<svg xmlns="http://www.w3.org/2000/svg" xmlns:xlink="http://www.w3.org/1999/xlink" width="707" height="603"><style><![CDATA[.B{fill-rule:evenodd}.C{fill:#f1cbb3}.D{fill:#e87613}]]></style><defs><filter filterUnits="userSpaceOnUse" color-interpolation-filters="sRGB" id="A"><feFlood flood-opacity="0" result="A"/><feColorMatrix in="SourceAlpha" values="0 0 0 0 0 0 0 0 0 0 0 0 0 0 0 0 0 0 127 0"/><feOffset dx="-10" dy="22"/><feGaussianBlur stdDeviation="17"/><feColorMatrix values="0 0 0 0 0 0 0 0 0 0 0 0 0 0 0 0 0 0 0.1019608 0"/><feBlend in2="A"/><feBlend in="SourceGraphic"/></filter><path d="M0 0h319v504H0V0z" id="B"/><clipPath id="C"><use xlink:href="#B"/></clipPath></defs><g transform="translate(.5 .5)"><g transform="matrix(.999391 -.034899 .0349 .999391 0 24.00398)"><g opacity=".346"><path d="M478.704 279.494C474.503 202.252 109.983 40.72 38.8 111.257s-9.977 209.72 132.632 249.795 311.473-4.315 307.27-81.558z" fill="#f2f2f2"/><path d="M245.506 348.46c8.457-65.2 344.035-179.896 403.352-115.788s39.204 193.892-90.676 219.17-321.133-38.18-312.676-103.38z" fill="#dde3e9"/></g><g filter="url(#A)"><path d="M36.45 0H214.55q.895 0 1.788.044.894.044 1.785.132.9.088 1.775.22.885.13 1.763.306.877.175 1.745.392.868.217 1.725.477.856.26 1.698.56.843.3 1.67.644.827.342 1.636.725.81.383 1.598.804.79.422 1.557.882.767.46 1.51.957.744.497 1.463 1.03.718.533 1.4 1.1.692.568 1.355 1.17.663.6 1.295 1.234.633.633 1.234 1.296.6.663 1.168 1.355.568.692 1.1 1.4.533.72 1.03 1.463.497.744.957 1.51.46.767.882 1.557.422.79.804 1.598.383.81.725 1.636.343.827.644 1.67.302.843.56 1.7.26.856.478 1.724.217.868.392 1.746.174.877.305 1.763.132.885.22 1.776.088.9.132 1.784.044.894.044 1.788V479.55q0 .895-.044 1.788-.044.894-.132 1.785-.087.9-.22 1.775-.13.885-.305 1.763-.175.877-.392 1.745-.218.868-.478 1.725-.26.856-.56 1.698-.3.843-.644 1.67-.342.827-.725 1.636-.382.81-.804 1.598-.422.79-.882 1.556-.46.768-.957 1.512-.497.744-1.03 1.463-.533.718-1.1 1.4-.567.692-1.168 1.355-.6.663-1.234 1.295-.632.633-1.295 1.234-.663.6-1.355 1.168-.692.568-1.4 1.1-.72.533-1.463 1.03-.744.497-1.51.957-.768.46-1.557.882-.79.422-1.598.804-.81.383-1.636.725-.826.343-1.67.644-.842.302-1.698.56-.857.26-1.725.478-.868.217-1.745.392-.878.174-1.763.305-.885.132-1.775.22-.89.087-1.785.13-.893.044-1.788.044H36.45q-.895 0-1.788-.044-.894-.044-1.784-.13-.9-.088-1.776-.22-.885-.13-1.763-.305-.878-.175-1.745-.392-.868-.218-1.724-.478-.856-.26-1.7-.56-.842-.3-1.67-.644-.827-.342-1.636-.725-.81-.382-1.598-.804-.79-.422-1.557-.882-.767-.46-1.51-.957-.744-.497-1.463-1.03-.72-.533-1.4-1.1-.692-.567-1.355-1.168-.663-.6-1.296-1.234-.633-.632-1.234-1.295-.6-.663-1.17-1.355-.568-.692-1.1-1.4-.533-.72-1.03-1.463-.497-.744-.957-1.512-.46-.767-.882-1.556-.422-.79-.804-1.598-.383-.81-.725-1.636-.342-.826-.644-1.67-.3-.842-.56-1.698-.26-.857-.477-1.725-.217-.868-.392-1.745-.175-.878-.306-1.763-.13-.885-.22-1.775-.088-.89-.132-1.785Q0 480.446 0 479.55V36.45q0-.895.044-1.788.044-.894.132-1.784.088-.9.22-1.776.13-.885.306-1.763.175-.878.392-1.745.217-.868.477-1.724.26-.856.56-1.7.3-.842.644-1.67.342-.827.725-1.636.383-.81.804-1.598.422-.79.882-1.557.46-.767.957-1.51.497-.744 1.03-1.463.533-.72 1.1-1.4.568-.692 1.17-1.355.6-.663 1.234-1.296.633-.633 1.296-1.234.663-.6 1.355-1.17.692-.568 1.4-1.1.72-.533 1.463-1.03.744-.497 1.51-.957.767-.46 1.557-.882.79-.422 1.598-.804.81-.383 1.636-.725.827-.342 1.67-.644.843-.3 1.7-.56.856-.26 1.724-.477Q28.46.875 29.338.7 30.216.526 31.1.395q.885-.13 1.776-.22.9-.088 1.784-.132Q35.554 0 36.45 0h0z" transform="translate(142.46)" fill="#f2f2f2"/></g><path d="M357.44 11H177.763q-.597 0-1.192.03-.596.03-1.19.088-.594.058-1.184.146-.6.088-1.175.204-.585.116-1.164.26-.58.145-1.15.318-.57.173-1.132.374-.562.2-1.113.43-.55.228-1.1.483-.54.255-1.065.536-.526.28-1.038.588-.512.307-1.008.638-.496.33-.975.687-.48.355-.94.734-.46.378-.903.78-.442.4-.864.822-.422.422-.822.864-.4.442-.78.903-.378.46-.734.94-.355.48-.687.975-.33.496-.638 1.008-.307.512-.588 1.038-.28.526-.536 1.065-.255.54-.483 1.1-.228.55-.43 1.113-.2.562-.374 1.133-.173.57-.318 1.15-.145.58-.26 1.164-.116.585-.204 1.175-.088.6-.146 1.184-.058.594-.088 1.19-.03.596-.03 1.192v444.72q0 .596.03 1.192.03.596.088 1.19.058.594.146 1.184.088.6.204 1.175.116.585.26 1.164.145.578.318 1.15.173.57.374 1.133.2.56.43 1.112.228.552.483 1.09.255.54.536 1.065.28.526.588 1.038.307.51.638 1.007.33.496.687.976.355.48.734.94.378.46.78.903.4.442.822.864.422.42.864.822.442.4.903.78.46.378.94.734.48.355.975.686.496.332 1.008.64.512.306 1.038.587.526.282 1.065.537.54.255 1.1.483.55.228 1.113.43.562.2 1.132.374.57.173 1.15.318.58.145 1.164.262.585.116 1.175.204.6.087 1.184.146.594.058 1.19.087.596.03 1.192.03H357.44q.597 0 1.192-.03.596-.03 1.2-.087.593-.06 1.183-.146.6-.088 1.176-.204.585-.117 1.163-.262.58-.145 1.15-.318.57-.173 1.132-.374.562-.2 1.113-.43.55-.228 1.1-.483.54-.255 1.066-.537.526-.28 1.037-.587.512-.307 1.008-.64.496-.33.975-.686.48-.356.94-.734.46-.378.903-.78.442-.4.864-.822.422-.422.822-.864.4-.442.78-.903.38-.46.734-.94.355-.48.687-.976.33-.496.638-1.007.307-.512.588-1.038.28-.526.536-1.065.255-.54.483-1.09.23-.55.43-1.112.2-.562.374-1.133.173-.57.318-1.15.145-.58.26-1.164.116-.585.204-1.175.088-.6.146-1.184.058-.593.088-1.19.03-.596.03-1.192V35.3q0-.596-.03-1.192-.03-.596-.088-1.19-.058-.594-.146-1.184-.087-.6-.204-1.175-.116-.585-.26-1.164-.145-.58-.318-1.15-.173-.57-.374-1.133-.2-.562-.43-1.113-.228-.55-.483-1.1-.255-.54-.536-1.065-.28-.526-.588-1.038-.307-.512-.638-1.008-.33-.496-.687-.975-.355-.48-.734-.94-.378-.46-.78-.903-.4-.442-.822-.864-.422-.422-.864-.822-.442-.4-.903-.78-.46-.378-.94-.734-.48-.355-.975-.687-.496-.33-1.008-.638-.51-.307-1.038-.588-.526-.28-1.065-.536-.54-.255-1.1-.483-.55-.228-1.113-.43-.562-.2-1.132-.374-.57-.173-1.15-.318-.578-.145-1.163-.26-.586-.116-1.176-.204-.6-.088-1.183-.146-.594-.058-1.2-.088-.595-.03-1.192-.03zm-28.01 8.912V11H206.464v8.912q0 .22.01.437.01.218.032.436.02.218.054.434.032.216.075.43.043.215.096.427.053.212.117.42.064.21.137.415.074.206.157.408.084.202.177.4.094.198.197.39.103.193.216.38.112.188.234.37.12.182.252.357.13.176.27.345.14.17.286.33.147.162.302.317.155.155.317.302.162.147.33.286.17.14.345.27.176.13.357.252.182.122.37.234.188.112.38.215.193.103.39.197.198.094.4.177.202.084.408.157.206.074.415.137.21.064.422.117.212.053.427.096.215.043.43.075.216.032.434.054.218.02.436.032.22.01.437.01h105.144q.22 0 .437-.01.22-.01.436-.032.218-.02.434-.054.217-.032.43-.075.215-.043.427-.096.212-.053.42-.117.2-.064.416-.137.206-.074.408-.157.202-.084.4-.177.198-.094.39-.197.193-.103.38-.215.188-.113.37-.234.182-.122.357-.252.176-.13.345-.27.17-.14.33-.286.162-.147.317-.302.155-.155.302-.317.146-.162.285-.33.14-.17.27-.345.13-.176.252-.357.122-.182.234-.37.112-.188.216-.38.103-.193.196-.39.094-.198.177-.4.084-.202.158-.408.073-.206.137-.415.063-.21.117-.42.053-.212.095-.427.043-.214.075-.43.032-.216.054-.434.02-.218.032-.436.01-.218.01-.437z" fill="#2a2a32" class="B"/><g clip-path="url(#C)" transform="translate(161.469 .005)"><g transform="matrix(.939693 .34202 -.34202 .939693 -33.27216 -151.7232)"><g transform="matrix(.848048 .529919 -.529919 .848048 315.5501 .000015)" class="B"><path d="M137.818 44.748h-31.682q-.528 0-1.055.026-.527.026-1.052.078-.525.052-1.047.13-.522.077-1.04.18-.518.103-1.03.23-.512.128-1.017.28-.505.153-1.002.33-.497.178-.985.38-.488.202-.965.428-.477.226-.943.474-.465.25-.918.52-.453.27-.892.565-.44.293-.863.608-.424.314-.832.65-.408.335-.8.69-.39.354-.764.728-.373.373-.728.764-.354.39-.69.8-.335.408-.65.832-.314.424-.608.863-.293.44-.565.892-.27.453-.52.918-.25.466-.474.943-.226.477-.428.965-.202.488-.38.984-.178.497-.33 1.002-.153.505-.28 1.017-.128.512-.23 1.03-.103.518-.18 1.04-.077.522-.13 1.047-.052.525-.078 1.052-.026.527-.026 1.055v63.07q0 .528.026 1.055.026.527.078 1.052.052.525.13 1.047.077.522.18 1.04.103.518.23 1.03.128.512.28 1.017.153.505.33 1.002.178.497.38.985.202.488.428.965.226.477.474.942.25.465.52.918.27.453.565.892.293.44.608.863.314.424.65.832.335.408.69.8.354.39.728.764.373.373.764.727.39.355.8.69.408.335.832.65.424.314.863.607.44.293.892.565.453.27.918.52.465.25.943.474.477.226.965.428.488.202.985.38.497.178 1.002.33.505.153 1.017.28.512.128 1.03.23.518.103 1.04.18.522.077 1.047.13.525.052 1.052.078.527.025 1.055.025h10.225l.002.038H164.5c7.433-7.253.485-52.598-5.173-74.31V66.247q0-.528-.026-1.055-.026-.527-.078-1.052-.052-.525-.13-1.047-.077-.522-.18-1.04-.103-.518-.23-1.03-.128-.512-.282-1.017-.153-.505-.33-1.002-.178-.497-.38-.984-.202-.488-.428-.965-.226-.477-.474-.943-.25-.465-.52-.918-.27-.453-.565-.892-.293-.44-.608-.863-.314-.424-.65-.832-.335-.408-.69-.8-.354-.39-.728-.764-.373-.373-.764-.728-.39-.354-.8-.69-.408-.335-.832-.65-.424-.314-.863-.608-.44-.293-.89-.565-.453-.27-.918-.52-.465-.25-.942-.474-.477-.226-.965-.428-.488-.202-.985-.38-.497-.178-1.002-.33-.505-.153-1.017-.28-.512-.128-1.03-.23-.518-.103-1.04-.18-.522-.077-1.047-.13-.525-.052-1.052-.078-.527-.026-1.055-.026z" class="D"/><path d="M122.7 124.704c10.747 6.47 21.306 9.594 26.262 8.318 12.43-3.2 13.572-48.606 3.955-66.507S93.862 40.812 91.37 76.28c-.865 12.3 4.31 23.295 11.958 32.26L89.616 172.36h39.83l-6.745-47.657z" class="C"/><path d="M86.1 76.486l3.385-3.236-.053-1.288s12.5-25.557 31.718-25.557 25.284 8.93 30.448 16.512c-3.862 13.234-18.85 15.196-32.167 23.445-1.57-1.274-3.57-2.037-5.752-2.037-5.04 0-9.127 4.08-9.127 9.115s4.087 9.115 9.127 9.115a9.21 9.21 0 0 0 .415-.009c1.835 19.686 1.1 42.166-4.37 47.503H61.598c-1.382-23.972 4.828-30.8 11.173-37.797 5.97-6.575 12.06-13.282 12.06-34.52l1.268-1.247z" class="D"/></g><path d="M161.606 485.93s59.7 16.71 103.015 16.71 80.465-25.734 80.465-25.734-58.422-17.152-96.226-17.152-87.254 26.176-87.254 26.176z" class="D"/><g class="C"><path d="M299.075 518.698a9.37 9.37 0 0 1-.965-1.886c-5.32-14.08-90.533-165.97-99.022-193.74h95.937c6.455 21.114 35.506 153.613 39.595 180.05 12.9 41.7 39.46 176.748 42.85 186.103 3.567 9.842-16.502 20.095-21.85 7.996-8.51-19.253-28.785-72.524-37.813-105.052-8.463-30.494-15.355-57.928-18.73-73.47z"/><path d="M220.585 537.243c-38.958 9.853-181.457 27.668-191.236 30.462-10.06 2.874-18.88-17.877-6.446-22.372 19.785-7.152 74.3-23.677 107.354-30.42 26.586-5.424 50.846-9.85 67.133-12.442-1.38-45.787-7.687-155.667-3.553-179.4h84.887c-3.965 22.757-37.478 188.81-43.707 205.43-1.977 5.934-7.876 8.556-14.432 8.742h0z"/></g><path d="M194.11 323.07s56.1-16.066 106.18 0c11.614 53.027 39.833 74.073 44.795 155.37-56.408 28.05-126.09-20.004-184.156 7.35-16.59-38.26 6.636-130.404 33.18-162.72z" fill="#ff9b21"/><path d="M457.896 335.556l-64.37-15.148.47 31.582 57.18-.6q28.968 14.523 31.412 10.942.16-.236.207-.55c.742-5.09-6.067-6.403-6.12-9.917s9.325-7.157 18.37-10.233 4.847-5.89 1.923-6.917c-11.2-1.54-24.225-1.26-39.07.84zm-355.202 35.816c8.07-7.456 93.24-110.6 93.24-110.6l33.877 13.15-108.6 108.982c-6.054 6.492-5.066 19.68-4.396 28.623l.26 3.805c-5.813.313-7.168-3.283-8.596-7.072-1.613-4.28-3.32-8.81-11.65-8.24-3.22.22-6.38.73-9.467 1.226-10.666 1.716-20.464 3.29-28.786-7.61-1.32-1.73-1.674-6.464 4.104-7.84 14.396-3.43 36.067-10.786 40.013-14.43z" class="B C"/><path d="M330.106 188.998L356 200.96c-16.147 61.617 5.155 112.63 89.786 130.614l-18.618 80.184c-78.26-19-132.21-73.915-114.627-159.78 4.552-22.228 10.16-45.026 17.576-62.98z" fill="#afb9c5"/><g class="B"><path d="M113.232 357.83q84.1-136.375 204.086-182.617l2.635 1.012.012.033 36.713 24.654c-26.536 69.13-21.417 121.7-29.617 176.867l-108.695-41.724c-8.273 16.975-16.142 34.665-23.75 53.016l-81.387-31.24z" fill="#c5cfd6"/><path d="M218.368 336.055c16.843-34.56 35.357-66.154 56.73-94.327-15.032 33.132-31.74 74.98-34.64 102.807l-22.09-8.48z" fill-opacity=".102"/></g></g></g></g><g transform="matrix(-1 0 0 1 622.8993 196.9144)"><g transform="matrix(.891007 -.45399 .453991 .891007 81.54211 22.05704)"><path d="M23.936 51.245c6.476 3.903 12.838 5.79 15.825 5.02 7.49-1.93 8.178-29.328 2.383-40.13S6.558.625 5.057 22.026c-.52 7.427 2.598 14.056 7.206 19.465L4 80h24l-4.065-28.755z" class="B C"/><path d="M10.418 46.308C7.406 32.907-1.175 23.77.135 17.782s6.986-7.45 6.986-7.45S10.057-1.543 26.056.23 51.82 8.648 47.603 23.268c-3.876 0-8.556-1.402-15.027 1-3.08 1.143-4.405 7.1-4.405 7.1h-2.924S20.99 24.3 16.85 26.17s-1.88 9.087-1.88 9.087l-1.44 11.05h-3.11z" fill="#e8676b"/></g><g fill="#89c5cc"><path d="M134.53 165.32l48.082 127.227 33.702 93.773h19.217l-46.326-221H134.53z"/><path d="M122.646 165.32l-1.363 105.15c-1.218 2.72-75.754 62.008-75.754 62.008l9.905 16.843s88.492-57.066 93.016-64.67 27.253-77.568 39.08-119.33h-64.883z"/></g><path d="M41.2 336.432c-2.007.727-5.07 1.95-6.406 3.07-2.072 1.74-5.468 5.765-5.468 5.765l36.254 43.206s6.98-2.988 4.38-7l-4.257-6.7-7.898-27.595q-.014-.048-.032-.094-.02-.046-.04-.1-.023-.044-.05-.086-.027-.042-.06-.08-.03-.04-.066-.074-.035-.036-.074-.068-.038-.032-.08-.06-.042-.028-.086-.052-.044-.024-.1-.043-.046-.02-.094-.034-.048-.014-.097-.024-.05-.01-.1-.014-.05-.005-.1-.004-.05 0-.1.006-.05.005-.1.016-.05.01-.097.025l-4.215 1.337s-4.386-2.044-6.148-4.144c-1.105-1.317-2.04-4.098-2.582-6-.305-1.06-1.36-1.66-2.397-1.283zm176.094 53.112c-.733 2.005-1.765 5.136-1.765 6.88 0 2.705.9 7.894.9 7.894h56.402s2.2-7.268-2.538-7.848l-7.87-1.046-26.216-11.687q-.046-.02-.093-.036-.048-.016-.096-.027-.05-.01-.098-.017-.05-.006-.1-.007-.05-.001-.1.003-.05.004-.1.013-.05.01-.097.023-.048.014-.095.032-.046.02-.1.042-.044.023-.086.05-.042.027-.08.06-.04.03-.074.067-.036.035-.067.074-.032.04-.06.08-.028.04-.05.086-.024.044-.043.1l-1.686 4.1s-4.385 2.046-7.126 2.046c-1.72 0-4.45-1.072-6.247-1.87-1-.45-2.145-.025-2.524 1.012z" fill="#e4e4e4"/><path d="M242.205 101.46l-31.31 24.206 14.812 11.583 21.297-26.753q17.668-8.017 16.923-10.488-.05-.162-.177-.3c-1.168-1.263-2.684-.972-4.08-.705-1.088.208-2.103.403-2.825-.16-1.648-1.29.202-7 2.2-12.347s-.9-4.45-2.48-3.477q-7.4 6.933-14.353 18.442zM90.683 164.346l-20.867 1.012q-6.935 58.355-9.55 64.443c-1.278 2.976-11.402 12.344-18.484 17.765-2.843 2.175-1.487 4.698-.337 5.327 7.25 3.965 12.257.693 17.707-2.868 1.578-1.03 3.192-2.086 4.9-2.998 4.445-2.357 6.494-.28 8.43 1.682 1.715 1.738 3.34 3.385 6.463 1.787l-1.076-2.032c-2.56-4.762-6.335-11.786-4.594-16.848q1.34-3.896 17.397-67.27z" class="B C"/><path d="M125.192 72.537l8.03-3.53c22.695 13.17 40.77 53.9 54.356 56.502 12.844 2.46 27.88-6.768 45.546-18.57l9.252 11.794c-12.874 23.468-46.412 48.945-63.93 43.54-28.005-8.638-46.72-59.766-53.256-89.736z" fill="#db2721"/><path d="M114.906 187.096l74.24-18.5c3.392-.846 1.532-5.584.425-7.935-12.772-27.116-42.532-52.358-52.657-92.966l-22.25 1.98c-10.6 32.902-8 69.502.244 117.43z" fill="#dde3e9"/><path d="M113.525 69.95l-.245.06q-60.977 62.36-52.763 159.357l16.32-.832q10.97-21.87 23.462-68.477c-.543 17.602.272 35.313 3.19 51.525l66.826-16.662c4.785-35.92-48.558-127.026-48.558-127.026l-8.234 2.053z" fill="#ff4133" class="B"/></g></g></svg>