<?xml version="1.0" encoding="utf-8"?>
<svg width="482px" height="595px" viewBox="0 0 482 595" version="1.1" xmlns:xlink="http://www.w3.org/1999/xlink" xmlns="http://www.w3.org/2000/svg">
  <desc>Created with Lunacy</desc>
  <defs>
    <filter filterUnits="userSpaceOnUse" color-interpolation-filters="sRGB" id="filter_1">
      <feFlood flood-opacity="0" result="BackgroundImageFix" />
      <feColorMatrix in="SourceAlpha" type="matrix" values="0 0 0 0 0 0 0 0 0 0 0 0 0 0 0 0 0 0 127 0" />
      <feOffset dx="-10" dy="22" />
      <feGaussianBlur stdDeviation="17" />
      <feColorMatrix type="matrix" values="0 0 0 0 0 0 0 0 0 0 0 0 0 0 0 0 0 0 0.1019608 0" />
      <feBlend mode="normal" in2="BackgroundImageFix" result="effect0_dropShadow" />
      <feBlend mode="normal" in="SourceGraphic" in2="effect0_dropShadow" result="shape" />
    </filter>
    <path d="M0 0L319 0L319 504L0 504L0 0Z" transform="translate(3.051758E-05 1.525879E-05)" id="path_1" />
    <clipPath id="mask_1">
      <use xlink:href="#path_1" />
    </clipPath>
  </defs>
  <g id="Group-4" transform="translate(0.5 0.5)">
    <g id="Group" transform="matrix(0.9993908 -0.0348995 0.0348995 0.9993908 0 11.79633)">
      <g filter="url(#filter_1)">
        <path d="M36.449 0L214.551 0Q215.446 0 216.339 0.0439044Q217.233 0.0878088 218.124 0.175512Q219.014 0.263215 219.899 0.394505Q220.784 0.525796 221.662 0.700357Q222.539 0.874919 223.407 1.09233Q224.275 1.30974 225.132 1.56948Q225.988 1.82922 226.83 2.13066Q227.673 2.4321 228.499 2.77451Q229.326 3.11693 230.135 3.49949Q230.944 3.88206 231.733 4.30385Q232.522 4.72564 233.29 5.18565Q234.057 5.64565 234.801 6.14276Q235.545 6.63987 236.264 7.17289Q236.982 7.7059 237.674 8.27354Q238.366 8.84118 239.029 9.44207Q239.692 10.043 240.324 10.6757Q240.957 11.3084 241.558 11.9713Q242.159 12.6343 242.726 13.326Q243.294 14.0177 243.827 14.7364Q244.36 15.455 244.857 16.199Q245.354 16.943 245.814 17.7105Q246.274 18.4779 246.696 19.2671Q247.118 20.0562 247.5 20.865Q247.883 21.6739 248.225 22.5006Q248.568 23.3272 248.869 24.1697Q249.171 25.0122 249.43 25.8684Q249.69 26.7247 249.908 27.5926Q250.125 28.4606 250.3 29.3382Q250.474 30.2157 250.605 31.1008Q250.737 31.9859 250.824 32.8764Q250.912 33.7668 250.956 34.6605Q251 35.5542 251 36.449L251 479.551Q251 480.446 250.956 481.339Q250.912 482.233 250.824 483.124Q250.737 484.014 250.605 484.899Q250.474 485.784 250.3 486.662Q250.125 487.539 249.908 488.407Q249.69 489.275 249.43 490.132Q249.171 490.988 248.869 491.83Q248.568 492.673 248.225 493.499Q247.883 494.326 247.5 495.135Q247.118 495.944 246.696 496.733Q246.274 497.522 245.814 498.289Q245.354 499.057 244.857 499.801Q244.36 500.545 243.827 501.264Q243.294 501.982 242.726 502.674Q242.159 503.366 241.558 504.029Q240.957 504.692 240.324 505.324Q239.692 505.957 239.029 506.558Q238.366 507.159 237.674 507.726Q236.982 508.294 236.264 508.827Q235.545 509.36 234.801 509.857Q234.057 510.354 233.29 510.814Q232.522 511.274 231.733 511.696Q230.944 512.118 230.135 512.5Q229.326 512.883 228.499 513.225Q227.673 513.568 226.83 513.869Q225.988 514.171 225.132 514.43Q224.275 514.69 223.407 514.908Q222.539 515.125 221.662 515.3Q220.784 515.474 219.899 515.605Q219.014 515.737 218.124 515.825Q217.233 515.912 216.339 515.956Q215.446 516 214.551 516L36.449 516Q35.5542 516 34.6605 515.956Q33.7668 515.912 32.8764 515.825Q31.9859 515.737 31.1008 515.605Q30.2157 515.474 29.3381 515.3Q28.4606 515.125 27.5926 514.908Q26.7247 514.69 25.8684 514.43Q25.0122 514.171 24.1697 513.869Q23.3272 513.568 22.5006 513.225Q21.6739 512.883 20.865 512.5Q20.0562 512.118 19.2671 511.696Q18.4779 511.274 17.7105 510.814Q16.943 510.354 16.199 509.857Q15.455 509.36 14.7364 508.827Q14.0177 508.294 13.326 507.726Q12.6343 507.159 11.9713 506.558Q11.3084 505.957 10.6757 505.324Q10.043 504.692 9.44207 504.029Q8.84118 503.366 8.27354 502.674Q7.7059 501.982 7.17289 501.264Q6.63987 500.545 6.14276 499.801Q5.64565 499.057 5.18565 498.289Q4.72564 497.522 4.30385 496.733Q3.88206 495.944 3.49949 495.135Q3.11693 494.326 2.77451 493.499Q2.4321 492.673 2.13066 491.83Q1.82922 490.988 1.56948 490.132Q1.30974 489.275 1.09233 488.407Q0.874919 487.539 0.700357 486.662Q0.525796 485.784 0.394505 484.899Q0.263215 484.014 0.175512 483.124Q0.0878088 482.233 0.0439044 481.339Q0 480.446 0 479.551L0 36.449Q0 35.5542 0.0439044 34.6605Q0.0878088 33.7668 0.175512 32.8764Q0.263215 31.9859 0.394505 31.1008Q0.525796 30.2157 0.700357 29.3381Q0.874919 28.4606 1.09233 27.5926Q1.30974 26.7247 1.56948 25.8684Q1.82922 25.0122 2.13066 24.1697Q2.4321 23.3272 2.77451 22.5006Q3.11693 21.6739 3.49949 20.865Q3.88206 20.0562 4.30385 19.2671Q4.72564 18.4779 5.18565 17.7105Q5.64565 16.943 6.14276 16.199Q6.63987 15.455 7.17289 14.7364Q7.7059 14.0177 8.27354 13.326Q8.84118 12.6343 9.44207 11.9713Q10.043 11.3084 10.6757 10.6757Q11.3084 10.043 11.9713 9.44207Q12.6343 8.84118 13.326 8.27354Q14.0177 7.7059 14.7364 7.17289Q15.455 6.63987 16.199 6.14276Q16.943 5.64565 17.7105 5.18565Q18.4779 4.72564 19.2671 4.30385Q20.0562 3.88206 20.865 3.49949Q21.6739 3.11693 22.5006 2.77451Q23.3272 2.4321 24.1697 2.13066Q25.0122 1.82922 25.8684 1.56948Q26.7247 1.30974 27.5926 1.09233Q28.4606 0.874919 29.3382 0.700357Q30.2157 0.525796 31.1008 0.394505Q31.9859 0.263215 32.8764 0.175512Q33.7668 0.0878088 34.6605 0.0439044Q35.5542 0 36.449 0L36.449 0Z" id="base" fill="#F2F2F2" stroke="none" />
      </g>
      <path d="M203.975 -1.52588e-05L24.299 -1.52588e-05Q23.7025 -1.52588e-05 23.1067 0.029254Q22.5109 0.0585232 21.9173 0.116991Q21.3236 0.175459 20.7336 0.262985Q20.1435 0.35051 19.5585 0.466883Q18.9735 0.583256 18.3948 0.728195Q17.8162 0.873135 17.2454 1.04629Q16.6745 1.21945 16.1129 1.42041Q15.5513 1.62136 15.0002 1.84964Q14.4491 2.07791 13.9098 2.33295Q13.3706 2.58799 12.8445 2.86918Q12.3185 3.15037 11.8068 3.45704Q11.2952 3.7637 10.7992 4.0951Q10.3032 4.42651 9.8241 4.78184Q9.34498 5.13718 8.88388 5.5156Q8.42277 5.89402 7.98079 6.29461Q7.53881 6.6952 7.11701 7.117Q6.69522 7.53879 6.29463 7.98077Q5.89404 8.42276 5.51562 8.88386Q5.1372 9.34497 4.78186 9.82409Q4.42652 10.3032 4.09512 10.7992Q3.76372 11.2952 3.45705 11.8068Q3.15039 12.3184 2.8692 12.8445Q2.588 13.3706 2.33296 13.9098Q2.07792 14.4491 1.84965 15.0002Q1.62138 15.5513 1.42042 16.1129Q1.21946 16.6745 1.04631 17.2454Q0.87315 17.8162 0.72821 18.3948Q0.583271 18.9734 0.466898 19.5585Q0.350526 20.1435 0.263 20.7336Q0.175474 21.3236 0.117006 21.9173Q0.0585384 22.5109 0.0292692 23.1067Q0 23.7025 0 24.299L0 469.02Q0 469.616 0.0292692 470.212Q0.0585384 470.808 0.117006 471.401Q0.175474 471.995 0.263 472.585Q0.350526 473.175 0.466898 473.76Q0.583271 474.345 0.72821 474.924Q0.87315 475.502 1.04631 476.073Q1.21946 476.644 1.42042 477.206Q1.62138 477.767 1.84965 478.318Q2.07792 478.87 2.33296 479.409Q2.588 479.948 2.8692 480.474Q3.15039 481 3.45705 481.512Q3.76372 482.023 4.09512 482.519Q4.42652 483.015 4.78186 483.495Q5.1372 483.974 5.51562 484.435Q5.89404 484.896 6.29463 485.338Q6.69522 485.78 7.11701 486.202Q7.53881 486.623 7.98079 487.024Q8.42277 487.425 8.88388 487.803Q9.34498 488.181 9.8241 488.537Q10.3032 488.892 10.7992 489.223Q11.2952 489.555 11.8068 489.862Q12.3185 490.168 12.8445 490.449Q13.3706 490.731 13.9098 490.986Q14.4491 491.241 15.0002 491.469Q15.5513 491.697 16.1129 491.898Q16.6745 492.099 17.2454 492.272Q17.8162 492.445 18.3948 492.59Q18.9735 492.735 19.5585 492.852Q20.1435 492.968 20.7336 493.056Q21.3236 493.143 21.9173 493.202Q22.5109 493.26 23.1067 493.289Q23.7025 493.319 24.299 493.319L203.975 493.319Q204.572 493.319 205.167 493.289Q205.763 493.26 206.357 493.202Q206.95 493.143 207.54 493.056Q208.13 492.968 208.716 492.852Q209.301 492.735 209.879 492.59Q210.458 492.445 211.029 492.272Q211.599 492.099 212.161 491.898Q212.723 491.697 213.274 491.469Q213.825 491.241 214.364 490.986Q214.903 490.731 215.43 490.449Q215.956 490.168 216.467 489.862Q216.979 489.555 217.475 489.223Q217.971 488.892 218.45 488.537Q218.929 488.181 219.39 487.803Q219.851 487.425 220.293 487.024Q220.735 486.623 221.157 486.202Q221.579 485.78 221.979 485.338Q222.38 484.896 222.758 484.435Q223.137 483.974 223.492 483.495Q223.847 483.015 224.179 482.519Q224.51 482.023 224.817 481.512Q225.124 481 225.405 480.474Q225.686 479.948 225.941 479.409Q226.196 478.87 226.424 478.318Q226.653 477.767 226.854 477.206Q227.055 476.644 227.228 476.073Q227.401 475.502 227.546 474.924Q227.691 474.345 227.807 473.76Q227.923 473.175 228.011 472.585Q228.099 471.995 228.157 471.401Q228.215 470.808 228.245 470.212Q228.274 469.616 228.274 469.02L228.274 24.299Q228.274 23.7025 228.245 23.1067Q228.215 22.5109 228.157 21.9173Q228.099 21.3236 228.011 20.7336Q227.924 20.1435 227.807 19.5585Q227.691 18.9734 227.546 18.3948Q227.401 17.8162 227.228 17.2454Q227.055 16.6745 226.854 16.1129Q226.653 15.5513 226.424 15.0002Q226.196 14.4491 225.941 13.9098Q225.686 13.3706 225.405 12.8445Q225.124 12.3184 224.817 11.8068Q224.51 11.2952 224.179 10.7992Q223.848 10.3032 223.492 9.82409Q223.137 9.34497 222.758 8.88386Q222.38 8.42276 221.979 7.98077Q221.579 7.53879 221.157 7.117Q220.735 6.6952 220.293 6.29461Q219.851 5.89402 219.39 5.5156Q218.929 5.13718 218.45 4.78184Q217.971 4.42651 217.475 4.0951Q216.979 3.7637 216.467 3.45704Q215.956 3.15037 215.429 2.86918Q214.903 2.58799 214.364 2.33295Q213.825 2.07791 213.274 1.84964Q212.723 1.62136 212.161 1.42041Q211.599 1.21945 211.029 1.04629Q210.458 0.873134 209.879 0.728195Q209.301 0.583256 208.716 0.466883Q208.13 0.35051 207.54 0.262985Q206.95 0.175459 206.357 0.116991Q205.763 0.0585232 205.167 0.0292539Q204.572 -1.52588e-05 203.975 -1.52588e-05ZM175.964 8.91153L175.964 1.52588e-05L53 1.52588e-05L53 8.91153Q53 9.13025 53.0107 9.3487Q53.0215 9.56715 53.0429 9.78482Q53.0643 10.0025 53.0964 10.2188Q53.1285 10.4352 53.1712 10.6497Q53.2139 10.8642 53.267 11.0764Q53.3201 11.2885 53.3836 11.4978Q53.4471 11.7071 53.5208 11.9131Q53.5945 12.119 53.6782 12.3211Q53.7619 12.5231 53.8554 12.7208Q53.9489 12.9186 54.052 13.1115Q54.1551 13.3043 54.2676 13.4919Q54.38 13.6795 54.5015 13.8614Q54.623 14.0433 54.7533 14.2189Q54.8836 14.3946 55.0224 14.5637Q55.1611 14.7327 55.308 14.8948Q55.4549 15.0569 55.6095 15.2115Q55.7642 15.3662 55.9262 15.513Q56.0883 15.6599 56.2574 15.7987Q56.4264 15.9374 56.6021 16.0677Q56.7778 16.198 56.9596 16.3195Q57.1415 16.441 57.3291 16.5535Q57.5167 16.6659 57.7096 16.769Q57.9025 16.8721 58.1002 16.9656Q58.2979 17.0592 58.5 17.1429Q58.702 17.2265 58.908 17.3002Q59.1139 17.3739 59.3232 17.4374Q59.5325 17.5009 59.7447 17.554Q59.9568 17.6072 60.1713 17.6499Q60.3859 17.6925 60.6022 17.7246Q60.8186 17.7567 61.0362 17.7782Q61.2539 17.7996 61.4723 17.8103Q61.6908 17.8211 61.9095 17.8211L167.054 17.8211Q167.273 17.8211 167.491 17.8103Q167.71 17.7996 167.927 17.7782Q168.145 17.7567 168.361 17.7246Q168.578 17.6925 168.792 17.6499Q169.007 17.6072 169.219 17.554Q169.431 17.5009 169.64 17.4374Q169.85 17.3739 170.056 17.3002Q170.262 17.2265 170.464 17.1429Q170.666 17.0592 170.863 16.9656Q171.061 16.8721 171.254 16.769Q171.447 16.6659 171.634 16.5535Q171.822 16.441 172.004 16.3195Q172.186 16.198 172.361 16.0677Q172.537 15.9374 172.706 15.7987Q172.875 15.6599 173.037 15.513Q173.199 15.3662 173.354 15.2115Q173.509 15.0569 173.656 14.8948Q173.802 14.7327 173.941 14.5637Q174.08 14.3946 174.21 14.2189Q174.341 14.0432 174.462 13.8614Q174.584 13.6795 174.696 13.4919Q174.808 13.3043 174.912 13.1115Q175.015 12.9186 175.108 12.7208Q175.202 12.5231 175.285 12.3211Q175.369 12.119 175.443 11.9131Q175.516 11.7071 175.58 11.4978Q175.643 11.2885 175.697 11.0764Q175.75 10.8642 175.792 10.6497Q175.835 10.4352 175.867 10.2188Q175.899 10.0025 175.921 9.78482Q175.942 9.56715 175.953 9.3487Q175.964 9.13025 175.964 8.91153Z" transform="translate(11.00323 11.00032)" id="Screen" fill="#2A2A32" fill-rule="evenodd" stroke="none" />
      <g id="Illustration" transform="translate(19.00845 0.004943848)">
        <path d="M0 0L319 0L319 504L0 504L0 0Z" transform="translate(3.051758E-05 1.525879E-05)" id="Mask" fill="none" stroke="none" />
        <g clip-path="url(#mask_1)">
          <g id="In-Screen" transform="matrix(0.9397031 0.3420238 -0.3420238 0.9397031 -33.27069 -151.7238)">
            <g id="Head/Front" transform="matrix(0.8480439 0.529917 -0.529917 0.8480439 315.5502 1.525879E-05)">
              <path d="M53.1806 0L21.499 0Q20.9712 0 20.4441 0.0258965Q19.917 0.051793 19.3917 0.103524Q18.8665 0.155254 18.3444 0.232694Q17.8224 0.310134 17.3048 0.413097Q16.7871 0.51606 16.2752 0.644298Q15.7632 0.772536 15.2582 0.92574Q14.7531 1.07894 14.2562 1.25674Q13.7593 1.43454 13.2717 1.63651Q12.7841 1.83848 12.307 2.06413Q11.8299 2.28979 11.3644 2.53857Q10.899 2.78736 10.4463 3.05869Q9.99362 3.33002 9.5548 3.62323Q9.11597 3.91645 8.69206 4.23084Q8.26815 4.54523 7.86018 4.88005Q7.45221 5.21486 7.06115 5.56929Q6.6701 5.92372 6.29691 6.29691Q5.92372 6.6701 5.56929 7.06115Q5.21486 7.45221 4.88005 7.86018Q4.54523 8.26815 4.23084 8.69206Q3.91645 9.11597 3.62323 9.55479Q3.33002 9.99362 3.05869 10.4463Q2.78736 10.899 2.53857 11.3644Q2.28979 11.8299 2.06413 12.307Q1.83848 12.7841 1.63651 13.2717Q1.43454 13.7593 1.25674 14.2562Q1.07894 14.7531 0.92574 15.2582Q0.772536 15.7632 0.644298 16.2752Q0.51606 16.7871 0.413097 17.3048Q0.310134 17.8224 0.232694 18.3444Q0.155254 18.8665 0.103524 19.3917Q0.051793 19.917 0.0258965 20.4441Q0 20.9712 0 21.499L0 84.5695Q0 85.0972 0.0258965 85.6244Q0.051793 86.1515 0.103524 86.6768Q0.155254 87.202 0.232694 87.724Q0.310134 88.2461 0.413097 88.7637Q0.51606 89.2813 0.644298 89.7933Q0.772536 90.3052 0.92574 90.8103Q1.07894 91.3153 1.25674 91.8122Q1.43454 92.3092 1.63651 92.7968Q1.83848 93.2844 2.06413 93.7615Q2.28979 94.2386 2.53857 94.704Q2.78736 95.1695 3.05869 95.6221Q3.33002 96.0748 3.62323 96.5137Q3.91645 96.9525 4.23084 97.3764Q4.54523 97.8003 4.88005 98.2083Q5.21486 98.6162 5.56929 99.0073Q5.92372 99.3984 6.29691 99.7716Q6.6701 100.145 7.06115 100.499Q7.45221 100.854 7.86018 101.188Q8.26815 101.523 8.69206 101.838Q9.11597 102.152 9.55479 102.445Q9.99362 102.738 10.4463 103.01Q10.899 103.281 11.3644 103.53Q11.8299 103.779 12.307 104.004Q12.7841 104.23 13.2717 104.432Q13.7593 104.634 14.2562 104.812Q14.7531 104.99 15.2582 105.143Q15.7632 105.296 16.2752 105.424Q16.7871 105.552 17.3048 105.655Q17.8224 105.758 18.3444 105.836Q18.8665 105.913 19.3917 105.965Q19.917 106.017 20.4441 106.043Q20.9712 106.068 21.499 106.068L31.7239 106.068C31.7246 106.081 31.7253 106.093 31.726 106.106L79.8528 106.106C87.286 98.8528 80.3382 53.5074 74.6796 31.7972L74.6796 21.499Q74.6796 20.9712 74.6537 20.4441Q74.6278 19.917 74.5761 19.3917Q74.5243 18.8665 74.4469 18.3444Q74.3694 17.8224 74.2665 17.3048Q74.1635 16.7871 74.0353 16.2752Q73.907 15.7632 73.7538 15.2582Q73.6006 14.7531 73.4228 14.2562Q73.245 13.7593 73.0431 13.2717Q72.8411 12.7841 72.6154 12.307Q72.3898 11.8299 72.141 11.3644Q71.8922 10.899 71.6209 10.4463Q71.3496 9.99362 71.0564 9.5548Q70.7631 9.11597 70.4487 8.69206Q70.1344 8.26815 69.7995 7.86018Q69.4647 7.45221 69.1103 7.06115Q68.7559 6.6701 68.3827 6.29691Q68.0095 5.92372 67.6184 5.56929Q67.2274 5.21486 66.8194 4.88005Q66.4114 4.54523 65.9875 4.23084Q65.5636 3.91645 65.1248 3.62323Q64.686 3.33002 64.2333 3.05869Q63.7806 2.78736 63.3151 2.53857Q62.8497 2.28979 62.3726 2.06413Q61.8955 1.83848 61.4079 1.63651Q60.9203 1.43454 60.4234 1.25674Q59.9265 1.07894 59.4214 0.92574Q58.9164 0.772536 58.4044 0.644298Q57.8925 0.51606 57.3748 0.413097Q56.8572 0.310134 56.3351 0.232694Q55.8131 0.155254 55.2879 0.103524Q54.7626 0.051793 54.2355 0.0258965Q53.7084 0 53.1806 0Z" transform="translate(84.63686 44.74764)" id="Hair-Back" fill="#E87613" fill-rule="evenodd" stroke="none" />
              <g id="Head" transform="translate(89.6155 51.37692)">
                <path d="M33.0837 73.327C43.8303 79.7957 54.3893 82.9212 59.3459 81.6453C71.7747 78.4459 72.9174 33.0388 63.3006 15.1378C53.6839 -2.76306 4.24567 -10.5654 1.75377 24.902C0.888911 37.2116 6.06459 48.1971 13.7116 57.1612L0 120.984L39.8291 120.984L33.0837 73.327Z" id="Head" fill="#F1CBB3" fill-rule="evenodd" stroke="none" />
              </g>
              <path d="M24.696 30.0811C25.8524 28.9391 26.9712 27.8343 28.0814 26.8454L28.0279 25.557C28.0279 25.557 40.5284 0 59.746 0C78.9636 0 85.0295 8.93017 90.1942 16.512C86.3321 29.7459 71.3446 31.7082 58.0273 39.9572C56.4575 38.6835 54.4559 37.9202 52.2757 37.9202C47.2347 37.9202 43.1482 42.0012 43.1482 47.0354C43.1482 52.0696 47.2347 56.1507 52.2757 56.1507C52.4147 56.1507 52.553 56.1476 52.6905 56.1414C54.5256 75.8271 53.7904 98.3077 48.3215 103.644L0.194613 103.644C-1.18694 79.6724 5.0225 72.8342 11.3676 65.8465C17.3379 59.2716 23.4283 52.5645 23.4283 31.328C23.8566 30.91 24.2788 30.4931 24.696 30.0811Z" transform="translate(61.40322 46.40496)" id="Hair-Front" fill="#E87613" fill-rule="evenodd" stroke="none" />
            </g>
            <g id="Bottom/Skinny-Jeans-1" transform="matrix(0.9999957 4.661267E-07 -4.661267E-07 0.9999957 0.0001831055 323.0706)">
              <path d="M0 26.1757C0 26.1757 59.7 42.8865 103.015 42.8865C146.329 42.8865 183.48 17.1521 183.48 17.1521C183.48 17.1521 125.058 0 87.2541 0C49.4499 0 0 26.1757 0 26.1757Z" transform="translate(161.6063 136.6827)" id="Skirt-Shadow" fill="#E87613" stroke="none" />
              <path d="M99.9869 195.627C99.6031 195.05 99.279 194.422 99.0219 193.741C93.702 179.662 8.48927 27.7699 0 0L95.9375 0C102.392 21.1138 131.443 153.613 135.532 180.049C148.431 221.748 174.991 356.797 178.381 366.152C181.948 375.994 161.879 386.247 156.531 374.148C148.022 354.895 127.746 301.624 118.718 269.096C110.255 238.602 103.363 211.168 99.9869 195.627Z" transform="translate(199.0884 3.051758E-05)" id="Leg" fill="#F1CBB3" stroke="none" />
              <path d="M203.785 214.172C164.827 224.025 22.3276 241.84 12.5486 244.634C2.48914 247.508 -6.33111 226.757 6.10296 222.262C25.8877 215.11 80.4035 198.585 113.457 191.841C140.043 186.417 164.303 181.991 180.59 179.399C179.21 133.612 172.903 23.732 177.037 0L261.924 0C257.959 22.7574 224.446 188.809 218.217 205.43C216.24 211.364 210.341 213.986 203.785 214.172L203.785 214.172Z" transform="translate(16.79996 0)" id="Leg" fill="#F1CBB3" stroke="none" />
              <g id="Left-Shoe" transform="matrix(0.1736482 0.9848078 -0.9848078 0.1736482 64.56247 205.0672)">
                <path d="M3.3897 9.09878C2.2069 12.2157 5.55575e-16 18.4718 0 21.7593C0 26.2503 1.49525 34.8663 1.49525 34.8663C6.70135 34.8663 95.0715 34.8663 95.0715 34.8663C95.0715 34.8663 98.7191 22.7988 90.8603 21.8366C83.0016 20.8744 77.8035 20.099 77.8035 20.099L33.6903 0.418936Q33.6447 0.398573 33.5972 0.382867Q33.5498 0.367161 33.501 0.35627Q33.4522 0.345379 33.4026 0.339411Q33.353 0.333443 33.303 0.332457Q33.253 0.331472 33.2032 0.33548Q33.1534 0.339487 33.1042 0.348447Q33.055 0.357407 33.007 0.371231Q32.959 0.385054 32.9126 0.403603Q32.8662 0.422151 32.8218 0.445239Q32.7775 0.468328 32.7357 0.495725Q32.6939 0.523123 32.655 0.554556Q32.6162 0.585989 32.5807 0.621144Q32.5451 0.656299 32.5133 0.694825Q32.4814 0.73335 32.4536 0.774861Q32.4258 0.816373 32.4022 0.860455Q32.3786 0.904538 32.3596 0.950751C31.4744 3.09965 29.305 8.36575 29.305 8.36575C29.305 8.36575 22.0299 11.7626 17.4814 11.7626C14.2115 11.7626 8.73675 9.42386 5.91731 8.10904C4.91674 7.64244 3.7814 8.06659 3.3897 9.09878Z" transform="translate(1.659119 31.54568)" id="shoe" fill="#E4E4E4" stroke="none" />
              </g>
              <g id="Right-Shoe" transform="translate(345.0864 330.4052)">
                <path d="M3.38965 9.09891C2.20687 12.2159 5.55566e-16 18.4721 0 21.7597C0 26.2508 1.49522 34.8669 1.49522 34.8669C6.70123 34.8669 95.0698 34.8669 95.0698 34.8669C95.0698 34.8669 98.7173 22.7992 90.8587 21.837C83 20.8748 77.8021 20.0994 77.8021 20.0994L33.6897 0.418959Q33.6441 0.398595 33.5966 0.382888Q33.5492 0.367182 33.5004 0.35629Q33.4516 0.345398 33.402 0.339429Q33.3524 0.333461 33.3024 0.332475Q33.2524 0.33149 33.2026 0.335497Q33.1528 0.339504 33.1036 0.348464Q33.0544 0.357424 33.0064 0.371248Q32.9584 0.385071 32.912 0.40362Q32.8656 0.422169 32.8212 0.445258Q32.7769 0.468346 32.7351 0.495744Q32.6933 0.523143 32.6544 0.554577Q32.6156 0.58601 32.58 0.621166Q32.5445 0.656322 32.5127 0.694848Q32.4808 0.733375 32.453 0.774887Q32.4252 0.816399 32.4016 0.860483Q32.378 0.904566 32.359 0.950781C31.4738 3.09968 29.3045 8.36589 29.3045 8.36589C29.3045 8.36589 22.0295 11.7628 17.4811 11.7628C14.2112 11.7628 8.73662 9.42403 5.91722 8.10919C4.91666 7.64257 3.78133 8.06671 3.38965 9.09891Z" transform="translate(1.659119 31.54626)" id="shoe" fill="#E4E4E4" stroke="none" />
              </g>
              <path d="M38.755 8.03276C38.755 8.03276 94.8652 -8.03276 144.935 8.03276C156.549 61.0594 184.768 82.1057 189.73 163.404C133.322 191.454 63.641 143.4 5.57361 170.754C-11.0171 132.493 12.2099 40.3502 38.755 8.03276Z" transform="translate(155.3561 -8.032745)" id="Skirt" fill="#FF9B21" stroke="none" />
            </g>
            <g id="Body/Long-Sleeve-1" transform="matrix(0.933576 0.3583661 -0.3583661 0.933576 134.8467 105.1689)">
              <path d="M354.014 14.7919L288.491 23.7176L300.247 53.0343L353.414 31.9842Q385.663 35.1616 386.661 30.942Q386.727 30.6639 386.657 30.3536C385.526 25.3362 378.698 26.55 377.39 23.2879C376.082 20.0258 383.532 13.2641 390.873 7.15171C398.215 1.03927 393.287 -0.0854292 390.189 0.00490276C379.18 2.58206 367.122 7.51106 354.014 14.7919ZM35.2398 175.522C40.1029 165.669 82.6548 38.8633 82.6548 38.8633L118.993 38.9995C118.993 38.9995 59.2239 173.325 56.6639 179.661C53.3384 187.891 58.9873 199.85 62.8177 207.958C63.4102 209.213 63.9593 210.375 64.4249 211.417C59.11 213.792 56.5569 210.921 53.8653 207.895C50.8252 204.476 47.6084 200.859 40.0357 204.378C37.1101 205.737 34.3415 207.344 31.6367 208.914C22.2938 214.338 13.7109 219.32 2.03504 212.125C0.183979 210.985 -1.84448 206.69 3.05653 203.334C15.2667 194.972 32.8623 180.339 35.2398 175.522Z" transform="translate(30.14178 84.52313)" id="Skin" fill="#F1CBB3" fill-rule="evenodd" stroke="none" />
              <path d="M0 0.594058L28.5088 0C41.0071 62.4592 82.5151 98.9702 166.465 78.0357L184.881 158.266C106.212 175.497 33.6486 149.789 11.8118 64.9055C6.15892 42.9319 1.20557 19.9827 0 0.594058Z" transform="matrix(0.9961947 0.08715574 -0.08715574 0.9961947 212.3839 7.694672)" id="Clothes-Back" fill="#AFB9C5" stroke="none" />
              <path d="M127.933 0.026418L127.91 5.96496e-05L127.818 5.96506e-05L125.087 5.96801e-05Q29.6321 86.174 -5.8396e-05 243.626L87.1768 243.626C87.7017 223.767 88.7088 204.432 90.3489 185.62L206.777 185.62C194.662 131.178 171.043 83.934 171.043 9.8864L127.933 0.026418Z" transform="translate(70.36743 -7.629395E-05)" id="Clothes" fill="#C5CFD6" fill-rule="evenodd" stroke="none" />
              <path d="M-1.267e-05 108.392C3.33908 70.0919 9.30162 33.9613 19.1584 -0.000237699C16.998 36.3186 16.3983 81.374 23.6632 108.392L-1.267e-05 108.392Z" transform="translate(160.7164 77.22792)" id="Shade" fill="#000000" fill-opacity="0.101960786" fill-rule="evenodd" stroke="none" />
            </g>
          </g>
        </g>
      </g>
    </g>
    <g id="Group" transform="matrix(-1 0 0 1 480.5262 189.6789)">
      <g id="Head/Front" transform="matrix(0.8910065 -0.4539905 0.4539905 0.8910065 81.54211 22.05701)">
        <g id="Head" transform="translate(4 6.99999)">
          <path d="M19.9355 44.2445C26.411 48.1475 32.7734 50.0333 35.7601 49.2635C43.2494 47.333 43.938 19.9351 38.1432 9.13393C32.3483 -1.66719 2.55815 -6.37502 1.05659 15.0255C0.535444 22.453 3.65427 29.0816 8.26229 34.4904L6.10352e-05 73L24.0001 73L19.9355 44.2445Z" transform="translate(0.0001220703 1.192093E-06)" id="Head" fill="#F1CBB3" fill-rule="evenodd" stroke="none" />
        </g>
        <path d="M10.4181 46.3075C7.4059 32.9065 -1.17547 23.7714 0.135114 17.7817C1.44569 11.792 7.1213 10.3321 7.1213 10.3321C7.1213 10.3321 10.0567 -1.54282 26.0556 0.230376C42.0546 2.00357 51.8195 8.64776 47.6025 23.2679C43.7261 23.2679 39.0465 21.866 32.5755 24.2679C29.4957 25.411 28.17 31.358 28.17 31.358L25.2458 31.358C25.2458 31.358 20.9887 24.3006 16.8508 26.1712C12.7128 28.0418 14.9695 35.2586 14.9695 35.2586L13.5291 46.3075L10.4181 46.3075Z" id="Hair" fill="#E8676B" stroke="none" />
      </g>
      <g id="Bottom/Skinny-Jeans-1" transform="translate(6.529358 165.3193)">
        <path d="M0 0L48.0816 127.227L81.7833 221L101 221L54.6737 9.81437e-14L0 0Z" transform="translate(128 0)" id="Leg" fill="#89C5CC" stroke="none" />
        <path d="M77.1166 0C76.594 43.6542 76.9718 102.427 75.7541 105.149C74.5363 107.87 0 167.157 0 167.157L9.90498 184C9.90498 184 98.3967 126.934 102.921 119.331C107.445 111.728 130.174 41.7631 142 0L77.1166 0Z" transform="translate(39 0)" id="Leg" fill="#89C5CC" stroke="none" />
        <g id="Left-Shoe" transform="matrix(0.6427876 0.7660444 -0.7660444 0.6427876 52.21588 152.7799)">
          <path d="M1.76547 6.22502C1.03227 8.22952 2.94992e-16 11.3614 0 13.1057C0 15.8106 0.901243 21 0.901243 21C4.03915 21 57.3031 21 57.3031 21C57.3031 21 59.5016 13.7318 54.7648 13.1522C50.0281 12.5727 46.895 12.1057 46.895 12.1057L20.6791 0.418465Q20.6334 0.39812 20.586 0.382431Q20.5385 0.366741 20.4898 0.355864Q20.441 0.344986 20.3914 0.339028Q20.3418 0.33307 20.2918 0.332092Q20.2419 0.331114 20.1921 0.335126Q20.1423 0.339137 20.0931 0.348098Q20.044 0.357059 19.996 0.37088Q19.9479 0.3847 19.9015 0.403243Q19.8551 0.421786 19.8108 0.444865Q19.7665 0.467945 19.7247 0.495331Q19.6829 0.522717 19.6441 0.554137Q19.6052 0.585556 19.5697 0.620695Q19.5342 0.655834 19.5024 0.694342Q19.4705 0.73285 19.4427 0.774342Q19.4148 0.815835 19.3913 0.859898Q19.3677 0.903961 19.3487 0.950154C18.76 2.3781 17.6632 5.03869 17.6632 5.03869C17.6632 5.03869 13.2782 7.08463 10.5367 7.08463C8.81734 7.08463 6.08669 6.01265 4.28944 5.21326C3.28071 4.76459 2.14472 5.18819 1.76547 6.22502Z" transform="translate(1.000001 19)" id="shoe" fill="#E4E4E4" stroke="none" />
        </g>
        <g id="Right-Shoe" transform="translate(208 199)">
          <path d="M1.76547 6.22502C1.03227 8.22952 2.94992e-16 11.3614 0 13.1057C0 15.8106 0.901243 21 0.901243 21C4.03915 21 57.3031 21 57.3031 21C57.3031 21 59.5016 13.7318 54.7648 13.1522C50.0281 12.5727 46.895 12.1057 46.895 12.1057L20.6791 0.418465Q20.6334 0.39812 20.586 0.382431Q20.5385 0.366741 20.4898 0.355864Q20.441 0.344986 20.3914 0.339028Q20.3418 0.33307 20.2918 0.332092Q20.2419 0.331114 20.1921 0.335126Q20.1423 0.339137 20.0931 0.348098Q20.044 0.357059 19.996 0.37088Q19.9479 0.3847 19.9015 0.403243Q19.8551 0.421786 19.8108 0.444865Q19.7665 0.467945 19.7247 0.495331Q19.6829 0.522717 19.6441 0.554137Q19.6052 0.585556 19.5697 0.620695Q19.5342 0.655834 19.5024 0.694342Q19.4705 0.73285 19.4427 0.774342Q19.4148 0.815835 19.3913 0.859898Q19.3677 0.903961 19.3487 0.950154C18.76 2.3781 17.6632 5.03869 17.6632 5.03869C17.6632 5.03869 13.2782 7.08463 10.5367 7.08463C8.81734 7.08463 6.08669 6.01265 4.28944 5.21326C3.28071 4.76459 2.14472 5.18819 1.76547 6.22502Z" transform="translate(1 19)" id="shoe" fill="#E4E4E4" stroke="none" />
        </g>
      </g>
      <g id="Body/Long-Sleeve-1" transform="matrix(0.9702957 -0.2419219 0.2419219 0.9702957 0 98.25507)">
        <path d="M232.235 14.7042L196 30.6171L207.57 45.4393L234.707 24.6329Q253.789 21.128 253.665 18.5501Q253.657 18.3812 253.566 18.2163C252.738 16.7087 251.197 16.6237 249.778 16.5454C248.672 16.4845 247.64 16.4276 247.076 15.7054C245.789 14.0561 248.966 8.9612 252.188 4.25523C255.41 -0.45074 252.39 -0.28073 250.623 0.282011C244.711 3.57167 238.582 8.37908 232.235 14.7042ZM70.0001 39.0659L49.5083 35.0001Q28.6622 89.9443 24.6524 95.2181C22.6921 97.7964 10.6027 104.437 2.41988 107.984C-0.864588 109.407 -0.159387 112.183 0.803939 113.071C6.8803 118.672 12.5292 116.709 18.6784 114.572C20.4586 113.953 22.2807 113.32 24.1672 112.851C29.0502 111.639 30.5361 114.15 31.9404 116.523C33.1838 118.624 34.3631 120.616 37.7794 119.821C37.624 119.151 37.4331 118.4 37.2271 117.589C35.8953 112.349 33.9312 104.62 36.8451 100.13Q39.0882 96.6737 70.0001 39.0659Z" transform="translate(2 46.99997)" id="Skin" fill="#F1CBB3" fill-rule="evenodd" stroke="none" />
        <path d="M0 2.23117L8.48495 1.79458e-13C28.8399 16.5591 40.3221 59.6157 53.3324 64.3096C65.6331 68.7476 81.9283 61.986 101.223 53.093L108.516 66.1893C92.1296 87.354 55.0184 107.271 38.5627 99.1938C12.2535 86.2808 1.76656 32.8554 0 2.23117Z" transform="matrix(0.9961947 0.08715574 -0.08715574 0.9961947 127.8894 3.109344)" id="Coat-Back" fill="#DB2721" stroke="none" />
        <path d="M0 114C0 114 52.0076 114 76.5115 114C80.0076 114 79.3488 108.952 78.8435 106.404C73.0106 77.0038 50.2413 45.3115 50.2413 3.46073L28.1718 0C9.91749 29.3584 3.60483 65.5045 0 114Z" transform="translate(89.99988 0)" id="Shirt" fill="#DDE3E9" stroke="none" />
        <path d="M90 0L89.748 0Q15.4959 45.7566 0 141.859L16.0374 145Q31.9727 126.435 55.3688 84.2331C50.5834 101.181 47.0896 118.563 46 135L114.872 135C128.205 101.305 98.4864 0 98.4864 0L90 0Z" transform="translate(27 0)" id="Coat-Front" fill="#FF4133" fill-rule="evenodd" stroke="none" />
      </g>
    </g>
  </g>
</svg>