<?xml version="1.0" encoding="UTF-8" standalone="no"?>
<svg
   xmlns:dc="http://purl.org/dc/elements/1.1/"
   xmlns:cc="http://creativecommons.org/ns#"
   xmlns:rdf="http://www.w3.org/1999/02/22-rdf-syntax-ns#"
   xmlns:svg="http://www.w3.org/2000/svg"
   xmlns="http://www.w3.org/2000/svg"
   xmlns:xlink="http://www.w3.org/1999/xlink"
   xmlns:sodipodi="http://sodipodi.sourceforge.net/DTD/sodipodi-0.dtd"
   xmlns:inkscape="http://www.inkscape.org/namespaces/inkscape"
   width="1403.1188"
   height="602.33948"
   viewBox="0 0 371.24161 159.36844"
   version="1.1"
   id="svg237"
   sodipodi:docname="personality.svg"
   inkscape:version="0.92.3 (2405546, 2018-03-11)">
  <metadata
     id="metadata241">
    <rdf:RDF>
      <cc:Work
         rdf:about="">
        <dc:format>image/svg+xml</dc:format>
        <dc:type
           rdf:resource="http://purl.org/dc/dcmitype/StillImage" />
      </cc:Work>
    </rdf:RDF>
  </metadata>
  <sodipodi:namedview
     pagecolor="#ffffff"
     bordercolor="#666666"
     borderopacity="1"
     objecttolerance="10"
     gridtolerance="10"
     guidetolerance="10"
     inkscape:pageopacity="0"
     inkscape:pageshadow="2"
     inkscape:window-width="1920"
     inkscape:window-height="1017"
     id="namedview239"
     showgrid="false"
     inkscape:zoom="0.66371763"
     inkscape:cx="589.36591"
     inkscape:cy="214.79891"
     inkscape:window-x="-8"
     inkscape:window-y="-8"
     inkscape:window-maximized="1"
     inkscape:current-layer="g230" />
  <style
     id="style2"><![CDATA[.C{fill:#faf4d0}.D{fill:#a3276a}.E{fill:#f25c54}]]></style>
  <g
     transform="matrix(125.74167,0,0,-125.74167,86.601405,145.41386)"
     id="g230">
    <path
       d="M 0.6327,0.91348 0.5802,0.91274 V 0.41872 L 0.60145,0.081 0.6717,0.08066 H 0.871 L 0.87066,0.08186 0.85013,0.15874 0.82921,0.23694 C 0.82464,0.2523 0.82107,0.2696 0.8194,0.28382 A 0.1678,0.1678 0 0 0 0.81814,0.30762 0.1489,0.1489 0 0 0 0.81928,0.33014 C 0.82146,0.34925 0.82683,0.369 0.83578,0.3912 0.84473,0.4134 0.85213,0.42766 0.86702,0.455 0.89455,0.50556 0.91102,0.55867 0.91466,0.60952 0.9159,0.62615 0.91593,0.64425 0.9148,0.6597 0.91237,0.69266 0.90448,0.72518 0.89202,0.75366 A 0.2854,0.2854 0 0 1 0.8733,0.78885 0.2509,0.2509 0 0 1 0.7961,0.86608 C 0.7511,0.89472 0.6973,0.91033 0.6327,0.91348 Z"
       class="E"
       id="path4"
       inkscape:connector-curvature="0"
       style="fill:#f25c54" />
    <path
       d="M 0.32395,0.80048 C 0.31182,0.78317 0.30075,0.763 0.292,0.74196 0.27624,0.70476 0.26598,0.66345 0.2627,0.6245 0.26076,0.60166 0.2618,0.59002 0.26745,0.571 0.2712,0.55843 0.272,0.5554 0.2722,0.55087 0.2724,0.54634 0.27132,0.54065 0.26886,0.53612 L 0.26715,0.53295 A 0.1761,0.1761 0 0 0 0.26297,0.52644 L 0.2354,0.48267 0.5802,0.49694 Z"
       id="path6"
       inkscape:connector-curvature="0"
       style="fill:#62c882" />
    <path
       d="M 0.5802,0.49693 0.28012,0.32212 C 0.27996,0.3214 0.27926,0.32034 0.2773,0.31774 0.27534,0.31514 0.27086,0.3047 0.2738,0.2983 0.27674,0.2919 0.2766,0.29358 0.28095,0.289 0.2853,0.28442 0.28892,0.28023 0.29112,0.27583 0.29332,0.27143 0.2938,0.2689 0.29377,0.26313 0.29374,0.25736 0.2934,0.256 0.29142,0.2499 0.2842,0.2278 0.2859,0.20553 0.296,0.1904 0.30044,0.18376 0.30618,0.17886 0.31403,0.175 0.32188,0.17114 0.33216,0.16827 0.34453,0.16696 0.34648,0.16675 0.35098,0.16664 0.3574,0.16666 l 0.01537,6.8e-4 0.0175,0.0019 0.02587,0.00137 C 0.4263,0.17064 0.4295,0.1704 0.43562,0.16923 0.44174,0.16806 0.44566,0.16627 0.4487,0.164 0.45174,0.16173 0.45337,0.15938 0.45488,0.15718 0.45639,0.15498 0.461,0.14247 0.4629,0.132 l 0.0044,-0.02712 0.00376,-0.0233 1e-4,-5.8e-4 h 0.1303 z"
       id="path8"
       inkscape:connector-curvature="0"
       style="fill:#f7bf65" />
    <path
       d="M 0.56046,0.91162 0.5372,0.90987 C 0.49726,0.9049 0.4616,0.89603 0.43,0.88336 0.38974,0.86627 0.35762,0.84323 0.3338,0.81366 L 0.323,0.79915 0.5802,0.49694 Z"
       id="path10"
       inkscape:connector-curvature="0"
       style="fill:#00b1d7" />
    <path
       d="M 0.5802,0.91286 0.56867,0.91225 0.56046,0.91162 0.5802,0.49694 Z"
       class="D"
       id="path12"
       inkscape:connector-curvature="0"
       style="fill:#a3276a" />
    <g
       transform="matrix(2.8960573,0,0,2.8960573,-1.8046908,-1.1287112)"
       id="g42">
      <path
         d="M 1.184,0.64923 H 1.4048 V 0.53443 H 1.184 Z"
         class="C"
         id="path14"
         inkscape:connector-curvature="0"
         style="fill:#faf4d0" />
      <g
         class="E"
         id="g20"
         style="fill:#f25c54">
        <path
           d="M 1.022,0.64934 H 1.1841 V 0.53444 H 1.022 v 0.05745 z"
           id="path16"
           inkscape:connector-curvature="0" />
        <path
           d="M 0.9617,0.5344 1.0244,0.59415 V 0.53443 Z"
           id="path18"
           inkscape:connector-curvature="0" />
      </g>
      <g
         class="C"
         id="g28"
         style="fill:#faf4d0">
        <path
           d="M 1.04474,0.57804 V 0.5877 L 1.063,0.61327 H 1.0755 V 0.58805 H 1.0801 V 0.57804 H 1.0755 V 0.57097 H 1.06383 V 0.57804 Z M 1.0647,0.6 1.0564,0.58805 h 0.0083 z"
           id="path22"
           inkscape:connector-curvature="0" />
        <path
           d="M 1.1117,0.6046 1.0971,0.57096 H 1.08514 l 0.0148,0.03223 H 1.08356 v 0.01 h 0.02816 z"
           id="path24"
           inkscape:connector-curvature="0" />
        <path
           d="m 1.12417,0.6134 q 0.00448,0 0.0073,-0.0027 Q 1.1343,0.60805 1.1343,0.6031 1.1343,0.5981 1.13147,0.59556 1.1287,0.593 1.12417,0.593 1.11963,0.593 1.11675,0.59565 1.11392,0.5983 1.11392,0.60319 q 0,0.00495 0.00283,0.0076 0.003,0.0027 0.00742,0.0027 z M 1.15434,0.6128 1.132,0.57096 H 1.12092 L 1.14325,0.61279 Z M 1.12152,0.60308 q 0,-0.00165 6.5e-4,-0.00253 7e-4,-8.8e-4 0.002,-8.8e-4 0.00124,0 0.00194,8.8e-4 7.7e-4,9.4e-4 7.7e-4,0.00253 0,0.0017 -7.7e-4,0.0026 -7e-4,9.4e-4 -0.00194,9.4e-4 -0.00118,0 -0.002,-9.4e-4 -6.5e-4,-8.8e-4 -6.5e-4,-0.0026 z M 1.15116,0.59094 q 0.00454,0 0.00737,-0.00265 0.00283,-0.00265 0.00283,-0.0076 0,-0.00495 -0.00283,-0.00766 Q 1.1557,0.57038 1.15116,0.57038 q -0.00454,0 -0.00737,0.00265 -0.00283,0.0027 -0.00283,0.00766 0,0.00495 0.00283,0.0076 0.00283,0.00265 0.00737,0.00265 z M 1.1485,0.5807 q 0,-0.0017 6.5e-4,-0.00265 7e-4,-8.8e-4 0.00194,-8.8e-4 0.00124,0 0.00194,8.8e-4 7e-4,9.4e-4 7e-4,0.00265 0,0.00165 -7e-4,0.00253 -7e-4,9.4e-4 -0.00194,9.4e-4 -0.00124,0 -0.00194,-9.4e-4 Q 1.1485,0.58234 1.1485,0.5807 Z"
           id="path26"
           inkscape:connector-curvature="0" />
      </g>
      <g
         class="E"
         id="g40"
         style="fill:#f25c54">
        <path
           d="m 1.22997,0.61 q 0.00618,0 0.01025,-0.00307 0.00407,-0.00302 0.00522,-0.0082 h -0.007 q -10e-4,0.0023 -0.0032,0.00364 -0.00216,0.0014 -0.00513,0.0014 -0.00292,0 -0.00517,-0.00134 Q 1.2226,0.6001 1.22134,0.5976 1.2201,0.5951 1.2201,0.59176 q 0,-0.00532 0.00283,-0.0083 0.00287,-0.00297 0.0078,-0.00297 0.00364,0 0.00623,0.00216 0.00263,0.00216 0.0034,0.006 H 1.229 V 0.59349 H 1.246 V 0.58697 Q 1.2453,0.5836 1.24318,0.5808 1.24112,0.57796 1.23772,0.57624 1.23437,0.57456 1.23002,0.57456 q -0.00498,0 -0.00882,0.00216 -0.00378,0.0022 -0.006,0.00608 -0.00206,0.00393 -0.00206,0.00896 0,0.00503 0.00206,0.0089 0.002,0.00393 0.006,0.00613 0.00378,0.0022 0.00877,0.0022 z"
           id="path30"
           inkscape:connector-curvature="0" />
        <path
           d="M 1.27168,0.58165 H 1.25812 L 1.25572,0.57485 H 1.24858 l 0.01246,0.03344 h 0.0077 L 1.28114,0.57485 H 1.274 Z M 1.26986,0.58678 1.26488,0.60106 1.26,0.58677 Z"
           id="path32"
           inkscape:connector-curvature="0" />
        <path
           d="M 1.32122,0.60828 V 0.57484 H 1.31452 V 0.59817 L 1.30594,0.57484 H 1.3 L 1.29142,0.59808 V 0.57484 H 1.28466 v 0.03344 h 0.0082 L 1.30302,0.58313 1.31299,0.60828 Z"
           id="path34"
           inkscape:connector-curvature="0" />
        <path
           d="M 1.334,0.6033 V 0.59453 H 1.34598 V 0.58936 H 1.334 v -0.009 H 1.3474 V 0.57496 H 1.32723 V 0.60878 H 1.3474 V 0.6033 Z"
           id="path36"
           inkscape:connector-curvature="0" />
        <path
           d="m 1.37575,0.5841 q 0,-0.0026 -0.0013,-0.0048 Q 1.37315,0.57714 1.37062,0.5758 1.36808,0.5745 1.36444,0.5745 1.36084,0.5745 1.35802,0.5757 1.35519,0.57695 1.35347,0.57924 1.35179,0.58154 1.35155,0.58461 h 0.0072 Q 1.359,0.58256 1.36038,0.58117 1.36182,0.57983 1.36416,0.57983 q 0.002,0 0.0032,0.001 0.00115,0.00115 0.00115,0.00292 0,0.00158 -9e-4,0.0026 -9e-4,0.00105 -0.0023,0.00168 Q 1.36391,0.58865 1.36148,0.58947 1.3583,0.5906 1.3563,0.5916 1.3543,0.59265 1.35285,0.59462 q -0.0014,0.00196 -0.0014,0.00513 0,0.00436 0.003,0.00685 0.00316,0.00254 0.00834,0.00254 0.00537,0 0.00853,-0.0026 0.0032,-0.0026 0.00364,-0.007 H 1.36768 q -3e-4,0.00182 -0.00153,0.00297 -0.00125,0.0012 -0.0034,0.0012 -0.00187,0 -0.00302,-0.001 Q 1.35868,0.60186 1.35868,0.6 q 0,-0.0015 8.6e-4,-0.0025 9e-4,-9.6e-4 0.00225,-0.00158 Q 1.36319,0.5953 1.36553,0.59452 1.36879,0.59337 1.3708,0.59236 1.37286,0.59136 1.3743,0.58934 1.37574,0.58734 1.37574,0.58407 Z"
           id="path38"
           inkscape:connector-curvature="0" />
      </g>
    </g>
    <g
       id="g48"
       style="fill:#f7bf65">
      <path
         d="m 0.31815,0.12913 -0.14793,-0.141 V 0.129 Z"
         id="path44"
         inkscape:connector-curvature="0" />
      <path
         d="M 0.19218,0.1291 H -0.1465 v -0.24008 h 0.33868 v 0.12004 z"
         id="path46"
         inkscape:connector-curvature="0" />
    </g>
    <g
       class="E"
       id="g54"
       style="fill:#f25c54">
      <path
         d="M -0.08756,0.02852 V 0.0513 h 0.0384 V -0.03586 H -0.0745 v 0.06438 z m 0.074,-0.03705 q 7.4e-4,-0.00443 0.00283,-0.00665 0.00233,-0.00222 0.00613,-0.00222 0.0058,0 0.008,0.00566 0.00222,0.00566 0.00197,0.01748 -0.002,-0.00418 -0.00677,-0.00674 -0.00468,-0.00236 -0.0106,-0.00236 -0.01206,0 -0.0192,0.0074 -0.00702,0.0074 -0.00702,0.02117 0,0.009 0.0037,0.01576 0.00382,0.00677 0.01083,0.01046 0.00702,0.00382 0.01674,0.00382 0.0133,0 0.02068,-0.00554 0.0075,-0.00554 0.01034,-0.01514 0.00285,-0.0095 0.00285,-0.02317 0,-0.02388 -0.00726,-0.03607 -0.00714,-0.01206 -0.02426,-0.01206 -0.00972,0 -0.01674,0.00394 -0.007,0.00394 -0.0106,0.01034 -0.0037,0.0064 -0.0042,0.0139 z m 0.017,0.0331 q 0,0.00468 -0.0026,0.00726 -0.00246,0.00258 -0.00726,0.00258 -0.00443,0 -0.00702,-0.00246 -0.0026,-0.00234 -0.0026,-0.00714 0,-0.00455 0.0026,-0.00714 0.0027,-0.00246 0.00714,-0.00246 0.0042,0 0.007,0.00246 0.00283,0.00246 0.00283,0.0069 z"
         id="path50"
         inkscape:connector-curvature="0" />
      <path
         d="m 0.05555,0.05277 q 0.00935,0 0.01527,-0.00577 0.006,-0.00554 0.006,-0.01588 0,-0.01022 -0.006,-0.01576 -0.0058,-0.00543 -0.01527,-0.00543 -0.00948,0 -0.0155,0.00554 -0.006,0.00554 -0.006,0.01576 0,0.01034 0.006,0.01588 0.00603,0.00566 0.0155,0.00566 z M 0.11858,0.05154 0.07193,-0.03586 H 0.04878 l 0.04666,0.0874 z M 0.05,0.03123 Q 0.05,0.02778 0.05135,0.02593 0.05284,0.0241 0.0553,0.0241 q 0.0026,0 0.00406,0.00185 0.0016,0.00197 0.0016,0.0053 0,0.00357 -0.0016,0.00542 Q 0.05788,0.0386 0.0553,0.0386 0.05284,0.0386 0.05136,0.03664 0.05,0.0348 0.05,0.03123 Z M 0.11193,0.00587 q 0.00948,0 0.0154,-0.00554 0.006,-0.00554 0.006,-0.01588 0,-0.01034 -0.006,-0.016 Q 0.12142,-0.037 0.11193,-0.037 q -0.00948,0 -0.0154,0.00554 -0.006,0.00566 -0.006,0.016 0,0.01034 0.006,0.01588 0.006,0.00554 0.0154,0.00554 z M 0.1064,-0.01555 q 0,-0.00357 0.00135,-0.00554 0.00148,-0.00185 0.00406,-0.00185 0.0026,0 0.00406,0.00185 0.00148,0.00197 0.00148,0.00554 0,0.00345 -0.00148,0.0053 -0.00149,0.00195 -0.00407,0.00195 -0.0026,0 -0.00406,-0.00197 Q 0.1064,-0.0121 0.1064,-0.01555 Z"
         id="path52"
         inkscape:connector-curvature="0" />
    </g>
    <g
       transform="matrix(2.4274731,0,0,2.4274731,-3.3517356,-0.37141663)"
       id="g120">
      <path
         d="M 1.14862,0.2062 H 1.3204 V 0.1074 H 1.14862 Z"
         class="D"
         id="path56"
         inkscape:connector-curvature="0"
         style="fill:#a3276a" />
      <g
         class="C"
         id="g86"
         style="fill:#faf4d0">
        <path
           d="M 1.18298,0.17226 1.19253,0.1608 H 1.18707 L 1.17873,0.1711 V 0.1608 h -0.0045 v 0.02255 h 0.0045 V 0.17322 L 1.187,0.18334 h 0.00543 z"
           id="path58"
           inkscape:connector-curvature="0" />
        <path
           d="M 1.1995,0.18334 V 0.1608 H 1.195 v 0.02255 z"
           id="path60"
           inkscape:connector-curvature="0" />
        <use
           xlink:href="#A"
           id="use62"
           x="0"
           y="0"
           width="100%"
           height="100%" />
        <use
           x="0.01784"
           xlink:href="#A"
           id="use64"
           y="0"
           width="100%"
           height="100%" />
        <path
           d="M 1.2438,0.17977 V 0.17392 H 1.25178 V 0.17047 H 1.2438 V 0.1644 H 1.25274 V 0.1608 H 1.2393 V 0.18335 H 1.25275 V 0.17976 Z"
           id="path66"
           inkscape:connector-curvature="0" />
        <path
           d="M 1.27518,0.1608 H 1.27068 L 1.26058,0.17613 V 0.1608 h -0.0045 v 0.02255 h 0.0045 l 0.0101,-0.01546 v 0.01546 h 0.0045 z"
           id="path68"
           inkscape:connector-curvature="0" />
        <path
           d="m 1.29477,0.16696 q 0,-0.00172 -8.6e-4,-0.0032 -8.6e-4,-0.00144 -0.00256,-0.00233 -0.0017,-8.6e-4 -0.00412,-8.6e-4 -0.0024,0 -0.00428,8e-4 Q 1.28107,0.1622 1.27992,0.16373 1.2788,0.16526 1.27864,0.16731 h 0.0048 q 1.6e-4,-0.00137 0.001,-0.0023 9.6e-4,-9e-4 0.00252,-9e-4 0.0014,0 0.00214,7.3e-4 7.7e-4,7.7e-4 7.7e-4,0.00195 0,0.00105 -6e-4,0.00173 -6e-4,7e-4 -0.00153,0.00112 -9.3e-4,4.2e-4 -0.00256,9.6e-4 -0.002,7e-4 -0.00345,0.00137 -0.00134,7e-4 -0.0023,0.002 -9.3e-4,0.0013 -9.3e-4,0.00342 0,0.0029 0.00208,0.00457 0.002,0.0017 0.00556,0.0017 0.00358,0 0.0057,-0.00173 Q 1.29398,0.1802 1.29427,0.17733 H 1.2894 q -2e-4,0.0012 -0.00102,0.00198 -8.3e-4,8e-4 -0.00227,8e-4 -0.00125,0 -0.002,-6.7e-4 -7.5e-4,-6.4e-4 -7.5e-4,-0.00188 0,-0.001 5.7e-4,-0.00166 6e-4,-6.4e-4 0.0015,-0.00105 9.3e-4,-4.2e-4 0.0025,-9.3e-4 0.00217,-7.7e-4 0.0035,-0.00144 0.00137,-6.7e-4 0.00233,-0.002 9.6e-4,-0.00134 9.6e-4,-0.0035 z M 1.17874,0.13828 V 0.12992 h -0.0045 v 0.02255 h 0.0082 q 0.004,0 0.006,-0.00192 0.00204,-0.00192 0.00204,-0.0052 0,-0.00323 -0.002,-0.00514 Q 1.1864,0.1383 1.18254,0.1383 Z m 0.00323,0.0036 q 0.00396,0 0.00396,0.00345 0,0.0017 -9.3e-4,0.0026 -9.3e-4,9e-4 -0.00303,9e-4 H 1.17874 V 0.14188 Z"
           id="path70"
           inkscape:connector-curvature="0" />
        <path
           d="M 1.20718,0.13445 H 1.19814 L 1.19654,0.12991 H 1.19178 l 0.0083,0.0223 H 1.20522 L 1.21349,0.12991 H 1.20873 Z M 1.20598,0.13787 1.20266,0.1474 1.19934,0.13787 Z"
           id="path72"
           inkscape:connector-curvature="0" />
        <path
           d="M 1.22766,0.12992 1.2224,0.1387 H 1.2204 V 0.12992 H 1.2159 v 0.02255 h 0.0086 q 0.00393,0 0.00597,-0.00192 0.00208,-0.00192 0.00208,-0.00505 0,-0.00256 -0.00144,-0.00428 -0.0014,-0.00173 -0.004,-0.0023 l 0.00562,-0.009 z M 1.2204,0.1418 h 0.0037 q 0.00386,0 0.00386,0.00342 0,0.00163 -9.6e-4,0.00252 -9.3e-4,9.3e-4 -0.003,9.3e-4 H 1.2203 Z"
           id="path74"
           inkscape:connector-curvature="0" />
        <path
           d="M 1.24006,0.1489 V 0.14304 H 1.24804 V 0.1396 H 1.24006 V 0.13352 H 1.25 V 0.1299 H 1.23655 V 0.15245 H 1.25 V 0.1489 Z"
           id="path76"
           inkscape:connector-curvature="0" />
        <path
           d="M 1.27143,0.12992 H 1.26693 L 1.25683,0.14525 V 0.12992 h -0.0045 v 0.02255 h 0.0045 L 1.26693,0.137 v 0.01546 h 0.0045 z"
           id="path78"
           inkscape:connector-curvature="0" />
        <use
           y="-0.03088"
           x="0.071929999"
           xlink:href="#A"
           id="use80"
           width="100%"
           height="100%" />
        <path
           d="M 1.4328,0.33958 1.37646,0.28938 v 0.0502 z"
           id="path82"
           inkscape:connector-curvature="0" />
        <path
           d="M 1.3848,0.33957 H 1.25582 V 0.25415 l 0.12898,-8e-5 v 0.04275 z"
           id="path84"
           inkscape:connector-curvature="0" />
      </g>
      <path
         d="m 1.09703,0.33957 h 0.1588 V 0.25415 h -0.1588 z"
         class="D"
         id="path88"
         inkscape:connector-curvature="0"
         style="fill:#a3276a" />
      <g
         class="C"
         id="g112"
         style="fill:#faf4d0">
        <path
           d="M 1.1367,0.32244 V 0.30024 H 1.13224 V 0.31 H 1.12274 V 0.30025 H 1.11831 v 0.0222 h 0.00443 v -0.009 h 0.0095 v 0.009 z"
           id="path90"
           inkscape:connector-curvature="0" />
        <path
           d="M 1.15424,0.30472 H 1.14534 L 1.14378,0.30025 H 1.139 L 1.14717,0.32218 H 1.15223 L 1.16037,0.30025 H 1.1558 Z M 1.15304,0.30808 1.14977,0.31745 1.1465,0.30808 Z"
           id="path92"
           inkscape:connector-curvature="0" />
        <path
           d="m 1.1671,0.32244 v -0.013 q 0,-0.0026 0.00113,-0.00393 0.00116,-0.0013 0.00333,-0.0013 0.00214,0 0.00327,0.0013 0.00116,0.00132 0.00116,0.00393 v 0.013 h 0.0044 v -0.013 q 0,-0.00308 -0.00116,-0.00522 -0.00113,-0.002 -0.00317,-0.00314 -0.002,-0.00104 -0.0046,-0.00104 -0.004,0 -0.00638,0.0024 -0.0024,0.0024 -0.0024,0.007 v 0.013 z"
           id="path94"
           inkscape:connector-curvature="0" />
        <path
           d="M 1.1994,0.32244 V 0.31892 H 1.19327 V 0.30025 H 1.18884 v 0.01867 h -0.006 v 0.00352 z"
           id="path96"
           inkscape:connector-curvature="0" />
        <path
           d="M 1.2063,0.31892 V 0.31317 H 1.21416 V 0.30977 H 1.2063 V 0.3038 H 1.2151 V 0.30025 H 1.20187 v 0.0222 H 1.215 V 0.31892 Z M 1.12835,0.294 q 0.00415,0 0.00688,-0.00214 0.00273,-0.00214 0.0036,-0.0058 H 1.1342 q -7.2e-4,0.0018 -0.00226,0.00283 -0.0015,0.00104 -0.00365,0.00104 -0.00176,0 -0.00317,-8.8e-4 -0.0014,-8.8e-4 -0.0022,-0.0025 -8e-4,-0.00163 -8e-4,-0.00383 0,-0.00217 8e-4,-0.0038 8e-4,-0.00163 0.0022,-0.0025 0.0014,-8.8e-4 0.00317,-8.8e-4 0.00214,0 0.00365,0.00104 0.00154,0.00104 0.00226,0.00283 h 0.00465 q -8.8e-4,-0.00368 -0.0036,-0.0058 -0.00275,-0.0022 -0.007,-0.0022 -0.00317,0 -0.00562,0.0014 -0.00242,0.00145 -0.00377,0.00402 -0.00132,0.00258 -0.00132,0.00584 0,0.0033 0.00132,0.00588 0.00135,0.00258 0.00377,0.004 Q 1.12505,0.294 1.12825,0.294 Z"
           id="path98"
           inkscape:connector-curvature="0" />
        <path
           d="m 1.14647,0.2937 v -0.013 q 0,-0.0026 0.00113,-0.00393 0.00116,-0.0013 0.00333,-0.0013 0.00214,0 0.00327,0.0013 0.00116,0.00132 0.00116,0.00393 v 0.013 h 0.0044 V 0.2807 Q 1.15976,0.27762 1.1586,0.27548 1.15747,0.27338 1.15543,0.27234 1.15343,0.2713 1.15083,0.2713 q -0.004,0 -0.00638,0.0024 -0.0024,0.0024 -0.0024,0.007 v 0.013 z"
           id="path100"
           inkscape:connector-curvature="0" />
        <path
           d="M 1.1681,0.2937 V 0.2715 H 1.16367 v 0.0222 z"
           id="path102"
           inkscape:connector-curvature="0" />
        <path
           d="m 1.1874,0.27757 q 0,-0.0017 -8.5e-4,-0.00314 Q 1.1857,0.27303 1.18405,0.27213 1.18238,0.27128 1.18,0.27128 q -0.00236,0 -0.0042,8e-4 -0.00185,8.2e-4 -0.003,0.00233 -0.001,0.0015 -0.00126,0.00352 h 0.0047 Q 1.1764,0.27656 1.1773,0.27565 q 9.4e-4,-8.8e-4 0.00248,-8.8e-4 0.00138,0 0.0021,7.2e-4 7.5e-4,7.5e-4 7.5e-4,0.00192 0,0.00104 -6e-4,0.0017 -6e-4,7e-4 -0.0015,0.001 -9e-4,4e-4 -0.0025,9.4e-4 -0.00207,7e-4 -0.0034,0.00135 -0.00132,7e-4 -0.00226,0.00198 -9e-4,0.0013 -9e-4,0.00336 0,0.00286 0.00204,0.0045 0.00207,0.00167 0.00547,0.00167 0.00352,0 0.0056,-0.0017 0.0021,-0.0017 0.0024,-0.00453 H 1.1822 q -2e-4,0.0012 -10e-4,0.00195 -8.2e-4,8e-4 -0.00223,8e-4 -0.00123,0 -0.00198,-6.6e-4 Q 1.1762,0.28922 1.1762,0.288 q 0,-9.7e-4 5.7e-4,-0.00163 6e-4,-6.3e-4 0.00148,-0.00104 9e-4,-4e-4 0.00245,-9e-4 Q 1.18284,0.28368 1.18416,0.28303 1.18551,0.28237 1.18646,0.28105 1.1874,0.2797 1.1874,0.27757 Z"
           id="path104"
           inkscape:connector-curvature="0" />
        <path
           d="M 1.19512,0.2937 V 0.2715 H 1.1907 v 0.0222 z"
           id="path106"
           inkscape:connector-curvature="0" />
        <path
           d="M 1.21795,0.2715 H 1.21352 L 1.2036,0.28658 V 0.2715 H 1.19917 V 0.2937 H 1.2036 L 1.21353,0.2785 v 0.0152 h 0.00443 z"
           id="path108"
           inkscape:connector-curvature="0" />
        <path
           d="M 1.22642,0.29017 V 0.28442 H 1.23428 V 0.28102 H 1.22642 V 0.27505 h 0.0088 V 0.2715 H 1.222 V 0.2937 H 1.23523 V 0.29017 Z"
           id="path110"
           inkscape:connector-curvature="0" />
      </g>
      <g
         class="E"
         id="g118"
         style="fill:#f25c54">
        <path
           d="m 1.28805,0.3052 q 0,0.00235 0.00134,0.00443 0.00134,0.00212 0.00407,0.00346 0.00273,0.00134 0.0066,0.00134 0.00388,0 0.0066,-0.00134 Q 1.30939,0.31175 1.31073,0.30963 1.31207,0.30755 1.31207,0.3052 1.31207,0.3027 1.31092,0.3009 1.30982,0.2991 1.30772,0.29813 1.3128,0.2956 1.3128,0.28992 1.3128,0.2865 1.3111,0.28406 1.3094,0.28166 1.3065,0.28041 1.3035,0.27921 1.30008,0.27921 q -0.0035,0 -0.00642,0.0012 -0.003,0.00125 -0.0046,0.00365 -0.0017,0.00245 -0.0017,0.00586 0,0.00568 0.00507,0.00822 Q 1.29035,0.29916 1.2892,0.30091 1.2881,0.30271 1.2881,0.30521 Z M 1.297,0.30368 q 0,-0.00162 8.3e-4,-0.0025 8.3e-4,-8.3e-4 0.0022,-8.3e-4 0.00138,0 0.0022,8.3e-4 8.3e-4,8.8e-4 8.3e-4,0.0025 0,0.00157 -8.8e-4,0.0025 -8.3e-4,9.2e-4 -0.00217,9.2e-4 -0.00134,0 -0.0022,-9.2e-4 Q 1.297,0.30525 1.297,0.30368 Z M 1.29613,0.29043 q 0,-0.0017 0.00102,-0.00277 0.00106,-0.00102 0.003,-0.00102 0.00184,0 0.003,0.00102 0.00106,0.00106 0.00106,0.00277 0,0.00175 -0.0011,0.00277 Q 1.30201,0.29426 1.30025,0.29426 1.2985,0.29426 1.29739,0.2932 1.29633,0.29218 1.29633,0.29043 Z"
           id="path114"
           inkscape:connector-curvature="0" />
        <path
           d="m 1.32417,0.31305 q 0.0035,0 0.00572,-0.00212 0.0022,-0.00208 0.0022,-0.00596 0,-0.00383 -0.0022,-0.0059 -0.00217,-0.00208 -0.00572,-0.00208 -0.00355,0 -0.00582,0.00208 -0.0022,0.00208 -0.0022,0.0059 0,0.00388 0.0022,0.00596 0.00226,0.00212 0.00582,0.00212 z M 1.3478,0.3126 1.3303,0.2798 H 1.32162 l 0.0175,0.03278 z M 1.3221,0.30497 q 0,-0.0013 5e-4,-0.002 5.5e-4,-7e-4 0.00148,-7e-4 9.7e-4,0 0.00152,7e-4 6e-4,7.4e-4 6e-4,0.002 0,0.00134 -6e-4,0.00203 -5.5e-4,7.4e-4 -0.00152,7.4e-4 -9.2e-4,0 -0.00148,-7.4e-4 -5e-4,-7e-4 -5e-4,-0.00203 z m 0.02322,-0.0095 q 0.00355,0 0.00578,-0.00208 0.0022,-0.00208 0.0022,-0.00596 0,-0.00388 -0.0022,-0.006 -0.0022,-0.00208 -0.00578,-0.00208 -0.00355,0 -0.00578,0.00208 -0.0022,0.00212 -0.0022,0.006 0,0.00388 0.0022,0.00596 0.0022,0.00208 0.00578,0.00208 z M 1.34324,0.28742 q 0,-0.00134 5e-4,-0.00208 5.5e-4,-7e-4 0.00152,-7e-4 9.7e-4,0 0.00152,7e-4 5.5e-4,7.4e-4 5.5e-4,0.00208 0,0.0013 -5.5e-4,0.002 -5.5e-4,7.4e-4 -0.00152,7.4e-4 -9.7e-4,0 -0.00152,-7.4e-4 -5e-4,-7e-4 -5e-4,-0.002 z"
           id="path116"
           inkscape:connector-curvature="0" />
      </g>
    </g>
    <g
       id="g126"
       style="fill:#62c882">
      <path
         d="M 0.1787,0.5979 0.0499,0.72065 V 0.59794 Z"
         id="path122"
         inkscape:connector-curvature="0" />
      <path
         d="M 0.06132,0.8306 H -0.26692 V 0.59793 h 0.32824 v 0.11634 z"
         id="path124"
         inkscape:connector-curvature="0" />
    </g>
    <path
       d="M -0.21503,0.73432 V 0.7564 h 0.03722 V 0.67192 H -0.2024 v 0.0624 z m 0.0494,-0.04808 V 0.7058 l 0.03698,0.05178 h 0.0253 V 0.70652 h 0.0093 V 0.68624 h -0.0093 V 0.67192 H -0.127 v 0.01432 z m 0.04044,0.0445 -0.01684,-0.02422 h 0.01682 z m 0.05935,0.02708 q 0.00907,0 0.0148,-0.0055 0.00573,-0.00537 0.00573,-0.0154 0,-0.01 -0.00573,-0.01527 -0.00562,-0.00535 -0.01481,-0.00535 -0.0092,0 -0.01503,0.00537 -0.00572,0.00537 -0.00572,0.01527 0,0.01002 0.00573,0.0154 0.00585,0.0055 0.01503,0.0055 z m 0.06108,-0.0012 -0.04522,-0.0847 H -0.0724 l 0.04522,0.0847 z M -0.07122,0.73694 q 0,-0.00334 0.0013,-0.00513 Q -0.0685,0.73 -0.066,0.73 q 0.0025,0 0.00394,0.0018 0.00155,0.002 0.00155,0.00513 0,0.00346 -0.00155,0.00525 -0.00143,0.002 -0.00394,0.002 -0.0024,0 -0.00382,-0.002 -0.0013,-0.0018 -0.0013,-0.00525 z m 0.06,-0.02458 q 0.0092,0 0.0149,-0.00537 0.00574,-0.00537 0.00574,-0.01539 0,-0.01002 -0.00573,-0.0155 -0.00573,-0.00537 -0.0149,-0.00537 -0.0092,0 -0.0149,0.00537 -0.00573,0.0055 -0.00573,0.0155 0,0.01002 0.00573,0.0154 0.00573,0.00537 0.0149,0.00537 z M -0.0166,0.6916 q 0,-0.00346 0.0013,-0.00537 0.00143,-0.0018 0.00394,-0.0018 0.0025,0 0.00394,0.0018 0.00143,0.002 0.00143,0.00537 0,0.00334 -0.00143,0.00513 -0.00143,0.002 -0.00394,0.002 -0.0025,0 -0.00394,-0.002 -0.0013,-0.0018 -0.0013,-0.00513 z"
       class="C"
       id="path128"
       inkscape:connector-curvature="0"
       style="fill:#faf4d0" />
    <g
       transform="matrix(1.7210462,0,0,1.7210462,-2.3530399,0.35059901)"
       class="D"
       id="g144"
       style="fill:#a3276a">
      <path
         d="m 1.00453,0.27878 h 0.2076 V 0.1437 h -0.2076 z"
         id="path130"
         inkscape:connector-curvature="0" />
      <g
         class="C"
         id="g142"
         style="fill:#faf4d0">
        <path
           d="M 1.05398,0.2003 H 1.0393 L 1.0367,0.19295 H 1.029 L 1.04248,0.22913 H 1.05083 L 1.06426,0.19295 H 1.05654 Z M 1.052,0.20585 1.0466,0.2213 1.0412,0.20585 Z"
           id="path132"
           inkscape:connector-curvature="0" />
        <path
           d="M 1.09913,0.19295 H 1.09183 L 1.07545,0.21783 V 0.19295 h -0.0073 v 0.0366 h 0.0073 l 0.01638,-0.0251 v 0.0251 h 0.0073 z"
           id="path134"
           inkscape:connector-curvature="0" />
        <path
           d="M 1.1131,0.22954 V 0.19294 H 1.1058 v 0.0366 z"
           id="path136"
           inkscape:connector-curvature="0" />
        <path
           d="M 1.15922,0.22913 V 0.19295 H 1.15196 V 0.2182 L 1.14268,0.19295 H 1.13636 L 1.12708,0.2181 V 0.19295 h -0.0073 v 0.03618 h 0.00886 l 0.011,-0.0272 0.01078,0.0272 z"
           id="path138"
           inkscape:connector-curvature="0" />
        <path
           d="M 1.17314,0.22374 V 0.21424 H 1.186 V 0.20864 H 1.17304 V 0.1988 h 0.0145 V 0.19295 H 1.16572 v 0.0366 h 0.02182 v -0.0058 z"
           id="path140"
           inkscape:connector-curvature="0" />
      </g>
    </g>
    <g
       transform="matrix(1.1863222,0,0,1.1863222,-1.3253139,-0.32374692)"
       id="g180">
      <g
         id="g150"
         style="fill:#00b1d7">
        <path
           d="M 1.48854,1.04723 1.37828,1.15233 V 1.04726 Z"
           id="path146"
           inkscape:connector-curvature="0" />
        <path
           d="M 1.38336,1.24772 H 1.084 V 1.04726 h 0.29945 v 0.10023 z"
           id="path148"
           inkscape:connector-curvature="0" />
      </g>
      <g
         class="C"
         id="g162"
         style="fill:#faf4d0">
        <path
           d="M 1.10883,1.16373 V 1.18275 H 1.141 V 1.10998 H 1.11983 v 0.05376 z"
           id="path152"
           inkscape:connector-curvature="0" />
        <path
           d="M 1.14758,1.16373 V 1.18275 H 1.17965 V 1.10998 H 1.15848 v 0.05376 z"
           id="path154"
           inkscape:connector-curvature="0" />
        <path
           d="M 1.20852,1.1297 V 1.10996 H 1.18806 V 1.1297 Z"
           id="path156"
           inkscape:connector-curvature="0" />
        <path
           d="M 1.23595,1.1328 Q 1.23657,1.1291 1.23831,1.12725 1.24016,1.1254 1.24335,1.1254 q 0.00483,0 0.00668,0.00473 0.00185,0.00473 0.00164,0.0146 Q 1.24992,1.14123 1.24602,1.13918 1.24202,1.13712 1.23708,1.13712 q -0.01007,0 -0.01604,0.00617 -0.00586,0.00617 -0.00586,0.01768 0,0.0075 0.00308,0.01316 0.0032,0.00565 0.00905,0.00874 0.00586,0.0032 0.01398,0.0032 0.011,0 0.01727,-0.00463 Q 1.26483,1.17681 1.26719,1.1688 1.26966,1.1608 1.26966,1.14948 1.26966,1.12954 1.2636,1.11936 1.25764,1.10929 1.24335,1.10929 q -0.00812,0 -0.01398,0.0033 -0.00576,0.0033 -0.00884,0.00863 -0.00308,0.00534 -0.0035,0.0116 z m 0.0143,0.02765 q 0,0.004 -0.00216,0.00606 -0.00206,0.00216 -0.00606,0.00216 -0.0037,0 -0.00586,-0.00206 -0.00216,-0.00195 -0.00216,-0.00596 0,-0.0038 0.00216,-0.00596 0.00226,-0.00206 0.00596,-0.00206 0.0035,0 0.00576,0.00206 0.00236,0.00206 0.00236,0.00576 z"
           id="path158"
           inkscape:connector-curvature="0" />
        <path
           d="m 1.29357,1.18398 q 0.0078,0 0.01275,-0.00473 0.00493,-0.00463 0.00493,-0.01326 0,-0.00853 -0.00493,-0.01316 Q 1.30149,1.1482 1.29357,1.1482 q -0.008,0 -0.01295,0.00463 -0.00493,0.00463 -0.00493,0.01316 0,0.00863 0.00493,0.01326 0.00504,0.00473 0.01295,0.00473 z M 1.3462,1.18295 1.30724,1.10997 H 1.28792 L 1.32688,1.18295 Z M 1.28895,1.166 q 0,-0.00288 0.00113,-0.00442 0.00123,-0.00154 0.0033,-0.00154 0.00216,0 0.0034,0.00154 0.00134,0.00164 0.00134,0.00442 0,0.00298 -0.00134,0.00452 -0.00123,0.00164 -0.0034,0.00164 -0.00206,0 -0.0033,-0.00164 Q 1.28895,1.16898 1.28895,1.166 Z m 0.0517,-0.02117 q 0.008,0 0.01285,-0.00463 0.00493,-0.00463 0.00493,-0.01326 0,-0.00863 -0.00493,-0.01336 -0.00493,-0.00463 -0.01285,-0.00463 -0.008,0 -0.01285,0.00463 -0.00493,0.00473 -0.00493,0.01336 0,0.00863 0.00493,0.01326 0.00493,0.00463 0.01285,0.00463 z M 1.33602,1.12695 q 0,-0.00298 0.00113,-0.00463 0.00123,-0.00154 0.0034,-0.00154 0.00216,0 0.0034,0.00154 0.00123,0.00164 0.00123,0.00463 0,0.00288 -0.00123,0.00442 -0.00123,0.00164 -0.0034,0.00164 -0.00216,0 -0.0034,-0.00164 Q 1.33602,1.12983 1.33602,1.12695 Z"
           id="path160"
           inkscape:connector-curvature="0" />
      </g>
      <g
         transform="matrix(2.0269091,0,0,2.0269091,-1.5138453,0.75597198)"
         id="g178">
        <path
           d="M 1.14535,0.24252 H 1.28163 V 0.1437 H 1.14535 Z"
           class="D"
           id="path164"
           inkscape:connector-curvature="0"
           style="fill:#a3276a" />
        <g
           class="C"
           id="g176"
           style="fill:#faf4d0">
          <path
             d="M 1.17316,0.19326 1.1827,0.1818 H 1.17724 L 1.1689,0.1921 V 0.1818 H 1.1644 V 0.20435 H 1.1689 V 0.1942 L 1.17727,0.20432 H 1.1827 Z"
             id="path166"
             inkscape:connector-curvature="0" />
          <path
             d="M 1.19665,0.19504 V 0.1913 H 1.18308 v 0.00374 z"
             id="path168"
             inkscape:connector-curvature="0" />
          <path
             d="M 1.2064,0.19016 V 0.1818 H 1.202 V 0.20435 H 1.21 q 0.004,0 0.006,-0.00192 0.00204,-0.00192 0.00204,-0.0052 0,-0.00323 -0.002,-0.00514 Q 1.21396,0.19016 1.21,0.19016 Z m 0.00323,0.0036 q 0.00396,0 0.00396,0.00345 0,0.0017 -9.3e-4,0.0026 -9.3e-4,9e-4 -0.00303,9e-4 H 1.2064 V 0.19377 Z"
             id="path170"
             inkscape:connector-curvature="0" />
          <path
             d="m 1.23168,0.20466 q 0.00316,0 0.00572,-0.00147 Q 1.24,0.20172 1.24146,0.19907 1.24296,0.19645 1.24296,0.19313 1.24296,0.18981 1.24146,0.18716 1.24,0.1845 1.2374,0.18303 1.23484,0.18156 1.23168,0.18156 1.22852,0.18156 1.22593,0.18303 1.22337,0.1845 1.22187,0.18715 1.2204,0.1898 1.2204,0.19313 q 0,0.00332 0.00147,0.00594 0.0015,0.00265 0.00406,0.00412 0.0026,0.00147 0.00575,0.00147 z m 0,-0.00415 q -0.00198,0 -0.00348,-9e-4 Q 1.2267,0.19871 1.22584,0.19701 1.225,0.19536 1.225,0.19313 q 0,-0.00224 8.3e-4,-0.00393 8.6e-4,-0.00166 0.00236,-0.00256 0.0015,-9e-4 0.00348,-9e-4 0.00198,0 0.00348,9e-4 0.0015,9e-4 0.00233,0.00256 8.6e-4,0.0017 8.6e-4,0.00393 0,0.00224 -8.6e-4,0.004 -8.3e-4,0.0017 -0.00233,0.0026 -0.0015,9e-4 -0.00348,9e-4 z"
             id="path172"
             inkscape:connector-curvature="0" />
          <path
             d="M 1.25082,0.19016 V 0.1818 h -0.0045 v 0.02255 h 0.0082 q 0.004,0 0.006,-0.00192 0.00204,-0.00192 0.00204,-0.0052 0,-0.00323 -0.002,-0.00514 Q 1.25848,0.19017 1.25462,0.19017 Z m 0.00323,0.0036 q 0.00396,0 0.00396,0.00345 0,0.0017 -9.3e-4,0.0026 -9.3e-4,9e-4 -0.00303,9e-4 H 1.25082 V 0.19377 Z"
             id="path174"
             inkscape:connector-curvature="0" />
        </g>
      </g>
    </g>
    <g
       transform="matrix(1.4382644,0,0,1.4382644,-0.32588805,-0.39037527)"
       id="g226">
      <path
         d="m 0.82412,1.03102 h 0.2944 V 0.9135 h -0.2944 z"
         class="C"
         id="path182"
         inkscape:connector-curvature="0"
         style="fill:#faf4d0" />
      <g
         class="D"
         id="g188"
         style="fill:#a3276a">
        <path
           d="M 0.6846,1.03113 H 0.82412 V 0.9135 H 0.6846 v 0.0588 z"
           id="path184"
           inkscape:connector-curvature="0" />
        <path
           d="M 0.6327,0.91348 0.68605,0.96433 V 0.9135 Z"
           id="path186"
           inkscape:connector-curvature="0" />
      </g>
      <g
         class="C"
         id="g198"
         style="fill:#faf4d0">
        <path
           d="m 0.70167,0.97267 q 0,-0.00837 0.00355,-0.0133 0.0036,-0.00492 0.01116,-0.00492 0.00756,0 0.01116,0.00492 0.0036,0.00492 0.0036,0.0133 0,0.00832 -0.0036,0.01324 -0.0036,0.00492 -0.01116,0.00492 -0.00756,0 -0.01116,-0.00492 Q 0.70167,0.98103 0.70167,0.97267 Z m 0.01963,0 q 0,-0.0042 -0.001,-0.0065 Q 0.71932,0.9639 0.71638,0.9639 q -0.00294,0 -0.00396,0.00228 -9.6e-4,0.00228 -9.6e-4,0.0065 0,0.00416 9.6e-4,0.00644 0.001,0.00228 0.00396,0.00228 0.00294,0 0.004,-0.00228 0.001,-0.00228 0.001,-0.00644 z"
           id="path190"
           inkscape:connector-curvature="0" />
        <path
           d="M 0.7444,0.96404 V 0.9543 H 0.7343 v 0.00974 z"
           id="path192"
           inkscape:connector-curvature="0" />
        <path
           d="M 0.7465,0.98083 V 0.9902 H 0.76232 V 0.9542 H 0.75188 v 0.02652 z"
           id="path194"
           inkscape:connector-curvature="0" />
        <path
           d="m 0.77506,0.99082 q 0.00385,0 0.0063,-0.00233 0.00242,-0.00229 0.00242,-0.00654 0,-0.0042 -0.00243,-0.0065 -0.00239,-0.00228 -0.00629,-0.00228 -0.004,0 -0.0064,0.00228 -0.00243,0.00228 -0.00243,0.0065 0,0.00426 0.00243,0.00654 0.00248,0.00233 0.0064,0.00233 z M 0.80102,0.9903 0.7818,0.9543 H 0.77227 l 0.01922,0.036 z M 0.77277,0.98195 q 0,-0.00142 5.6e-4,-0.00218 6.1e-4,2.3e-4 0.00163,2.3e-4 0.00106,0 0.00167,-2.3e-4 6.7e-4,8.1e-4 6.7e-4,0.00218 0,0.00147 -6.6e-4,0.00223 -6.2e-4,8.2e-4 -0.00168,8.2e-4 -0.001,0 -0.00162,-8e-4 -5.7e-4,-7.8e-4 -5.7e-4,-0.00225 z M 0.79828,0.9715 q 0.0039,0 0.00634,-0.00228 0.00244,-0.00228 0.00244,-0.00654 0,-0.00426 -0.00243,-0.0066 Q 0.8022,0.9538 0.79828,0.9538 q -0.0039,0 -0.00634,0.00228 -0.00244,0.00234 -0.00244,0.0066 0,0.00426 0.00243,0.00654 Q 0.79438,0.9715 0.79828,0.9715 Z M 0.796,0.96268 q 0,-0.00148 5.6e-4,-0.00228 6.1e-4,-7.7e-4 0.00167,-7.7e-4 0.00107,0 0.00177,7.7e-4 5e-4,8e-4 5e-4,0.00228 0,0.00132 -5e-4,0.00218 -7e-4,8.1e-4 -0.00177,8.1e-4 -0.00106,0 -0.00167,-8e-4 Q 0.796,0.964 0.796,0.96268 Z"
           id="path196"
           inkscape:connector-curvature="0" />
      </g>
      <g
         transform="matrix(1.0678208,0,0,1.0678208,-0.06587606,-0.06649543)"
         class="D"
         id="g224"
         style="fill:#a3276a">
        <path
           d="M 0.90114,0.9916 Q 0.90114,0.9877 0.8995,0.9847 0.89786,0.98173 0.89473,0.98005 0.89164,0.9784 0.88736,0.9784 H 0.878 v 0.0263 h 0.00935 q 0.00428,0 0.00738,-0.00164 Q 0.89786,1.00146 0.8995,0.99848 0.90114,0.99555 0.90114,0.9916 Z M 0.8869,0.983 q 0.00425,0 0.00656,0.00224 0.00235,0.00224 0.00235,0.00626 0,0.00406 -0.00235,0.0063 Q 0.89116,1.00004 0.8869,1.00004 H 0.88326 V 0.983 Z"
           id="path200"
           inkscape:connector-curvature="0" />
        <use
           xlink:href="#B"
           id="use202"
           x="0"
           y="0"
           width="100%"
           height="100%" />
        <path
           d="M 0.93307,1.00472 V 0.9893 q 0,-0.0031 0.00134,-0.00466 Q 0.9358,0.983 0.93836,0.983 0.9409,0.983 0.94224,0.98463 0.94362,0.9862 0.94362,0.9893 V 1.00473 H 0.94884 V 0.9893 q 0,-0.00365 -0.00138,-0.0062 Q 0.9461,0.9806 0.9437,0.97938 0.9413,0.97815 0.93825,0.97815 q -0.00473,0 -0.00756,0.00283 -0.00284,0.00282 -0.00284,0.0083 v 0.01543 z"
           id="path204"
           inkscape:connector-curvature="0" />
        <path
           d="M 0.97576,0.9784 H 0.9705 L 0.95873,0.9963 V 0.9784 H 0.95348 V 1.0047 H 0.95873 L 0.9705,0.98668 v 0.01804 h 0.00525 z"
           id="path206"
           inkscape:connector-curvature="0" />
        <path
           d="M 0.99076,0.9918 1.002,0.9784 H 0.99553 L 0.9858,0.99045 V 0.9784 H 0.98055 V 1.0047 H 0.9858 V 0.993 L 0.99556,1.0048 H 1.002 Z M 0.89403,0.9464 H 0.88348 L 0.88162,0.9411 H 0.87607 l 0.0097,0.026 h 0.006 L 0.9014,0.9411 H 0.89585 Z M 0.89261,0.9504 0.88874,0.9614 0.88487,0.9504 Z"
           id="path208"
           inkscape:connector-curvature="0" />
        <path
           d="M 0.90946,0.94512 H 0.9183 V 0.941 H 0.9042 v 0.0263 h 0.00525 z"
           id="path210"
           inkscape:connector-curvature="0" />
        <path
           d="M 0.93934,0.9674 V 0.96323 H 0.93207 V 0.941 H 0.92682 V 0.96313 H 0.9196 V 0.9674 Z"
           id="path212"
           inkscape:connector-curvature="0" />
        <use
           xlink:href="#C"
           id="use214"
           x="0"
           y="0"
           width="100%"
           height="100%" />
        <use
           xlink:href="#B"
           x="0.056770001"
           y="-0.037310001"
           id="use216"
           width="100%"
           height="100%" />
        <use
           xlink:href="#C"
           x="0.050650001"
           id="use218"
           y="0"
           width="100%"
           height="100%" />
        <path
           d="m 1.02468,0.96766 q 0.0048,0 0.00797,-0.00238 0.00317,-0.00235 0.00406,-0.00637 h -0.0055 q -7.8e-4,0.0018 -0.0025,0.00283 -0.00168,0.00108 -0.004,0.00108 -0.00227,0 -0.00402,-0.00104 Q 1.01894,0.96073 1.01797,0.9588 1.017,0.95686 1.017,0.95425 1.017,0.95011 1.0192,0.9478 1.02144,0.9455 1.02527,0.9455 q 0.00283,0 0.00484,0.00168 0.00205,0.00168 0.00265,0.00466 h -0.009 V 0.9556 h 0.0133 V 0.95053 Q 1.0365,0.94793 1.03486,0.94573 1.03326,0.94353 1.03061,0.94219 q -0.0026,-0.0013 -0.006,-0.0013 -0.00388,0 -0.00686,0.00168 -0.00294,0.0017 -0.00458,0.00473 -0.0016,0.00306 -0.0016,0.00697 0,0.0039 0.0016,0.00693 0.00164,0.00306 0.00458,0.00477 0.00294,0.0017 0.00682,0.0017 z"
           id="path220"
           inkscape:connector-curvature="0" />
        <path
           d="m 1.05343,0.96778 q 0.0037,0 0.00667,-0.0017 0.00302,-0.0017 0.00473,-0.0048 0.00175,-0.00306 0.00175,-0.00693 0,-0.00388 -0.00175,-0.00697 -0.0017,-0.0031 -0.00473,-0.0048 -0.00298,-0.0017 -0.00667,-0.0017 -0.0037,0 -0.0067,0.0017 -0.00298,0.0017 -0.00473,0.0048 -0.0017,0.0031 -0.0017,0.00697 0,0.00387 0.0017,0.00693 0.00175,0.0031 0.00473,0.0048 0.00302,0.0017 0.0067,0.0017 z m 0,-0.00484 q -0.0023,0 -0.00406,-0.00104 Q 1.04762,0.96085 1.0466,0.95887 1.04565,0.95693 1.04565,0.95432 q 0,-0.0026 9.7e-4,-0.00458 10e-4,-0.00194 0.00276,-0.00298 0.00175,-0.00104 0.00406,-0.00104 0.0023,0 0.00406,0.00104 0.00175,0.00104 0.00272,0.00298 0.001,0.00197 0.001,0.00458 0,0.0026 -0.001,0.00455 Q 1.05925,0.96085 1.0575,0.96189 1.05575,0.96293 1.05344,0.96293 Z"
           id="path222"
           inkscape:connector-curvature="0" />
      </g>
    </g>
    <path
       d="M 0.5802,0.49694 0.23486,0.48265 0.2336,0.4806 0.22026,0.45908 C 0.21395,0.44908 0.2119,0.4453 0.21036,0.4406 0.2063,0.42836 0.20904,0.41746 0.21845,0.40855 0.22786,0.39964 0.2328,0.39874 0.251,0.39324 0.25663,0.3915 0.25924,0.39043 0.26247,0.38852 0.2657,0.38661 0.26784,0.38457 0.26942,0.38152 0.271,0.37847 0.27164,0.3758 0.27165,0.3717 0.27166,0.3676 0.27067,0.36232 0.26677,0.3539 0.26287,0.34548 0.26366,0.34696 0.26333,0.34465 0.263,0.34234 0.26476,0.33483 0.26912,0.33074 0.27348,0.32665 0.27294,0.3277 0.27624,0.32604 0.27954,0.32438 0.2801,0.32374 0.2801,0.32282 c 0,-9.2e-4 -1.2e-4,-5.7e-4 -3e-4,-9.4e-4 z"
       class="C"
       id="path228"
       inkscape:connector-curvature="0"
       style="fill:#faf4d0" />
  </g>
  <defs
     id="defs235">
    <path
       id="A"
       d="M 1.21895,0.18334 V 0.17977 H 1.21272 V 0.1608 h -0.0045 v 0.01897 h -0.0062 v 0.00358 z"
       inkscape:connector-curvature="0" />
    <path
       id="B"
       d="M 0.9188,0.9784 0.91264,0.98866 H 0.91034 V 0.9784 H 0.9051 v 0.0263 h 0.01 q 0.00458,0 0.00697,-0.00224 Q 0.9245,1.00024 0.9245,0.9966 0.9245,0.99362 0.92282,0.9916 0.9212,0.9896 0.91806,0.9889 L 0.9246,0.9784 Z M 0.91033,0.99227 h 0.00432 q 0.0045,0 0.0045,0.004 0,0.002 -0.00112,0.00294 -0.00108,0.00108 -0.0034,0.00108 h -0.0043 z"
       inkscape:connector-curvature="0" />
    <path
       id="C"
       d="M 0.94752,0.96323 V 0.9564 H 0.95684 V 0.9524 H 0.94752 V 0.9453 H 0.95795 V 0.941 h -0.0157 v 0.0263 h 0.0157 V 0.96323 Z"
       inkscape:connector-curvature="0" />
  </defs>
</svg>
