<svg xmlns="http://www.w3.org/2000/svg" xmlns:xlink="http://www.w3.org/1999/xlink" width="1253.178" height="602.336" viewBox="0 0 331.5698 159.3675"><style><![CDATA[.C{fill:#faf4d0}.D{fill:#ff7074}]]></style><g transform="matrix(125.7416727 0 0 -125.7416727 78.78938829 145.41375729)"><path d="M.6327.9135L.5802.9127v-.494L.6015.08.6717.0807H.871L.8706.082.85.1587.829.237C.8246.2523.821.2696.8194.2838a.168.168 0 0 0-.0013.0238.149.149 0 0 0 .0011.0225c.0022.019.0075.04.0165.061S.852.4277.867.455c.0275.0506.044.1037.0476.1545a.356.356 0 0 1 .0001.0502C.9124.6927.9045.7252.892.7537.887.7648.8798.7786.8733.7888a.251.251 0 0 1-.0772.0772C.751.8947.6973.9103.6327.9135z" fill="#fe8402"/><path d="M.324.8005C.3118.7832.3008.763.292.742.2762.7048.266.6634.2627.6245A.123.123 0 0 1 .2674.571C.2712.5584.272.5554.2722.551A.029.029 0 0 0 .2689.5361L.267.533A.176.176 0 0 0 .263.5264L.2354.4827.5802.497z" opacity=".776" fill="#016bc6"/><path d="M.5802.497L.28.322C.28.3214.2793.3203.2773.3177S.271.3047.2738.2983.2766.2936.281.289.289.2802.291.2758.2938.269.2938.263.2934.256.2914.25C.2842.2278.286.2055.296.1904A.044.044 0 0 1 .314.175.092.092 0 0 1 .3445.167.159.159 0 0 1 .3574.1667l.0154.0007.0175.002.026.0014A.084.084 0 0 0 .4356.1692c.006-.0012.01-.003.013-.0052S.4534.1594.455.1572A.099.099 0 0 0 .4629.132L.4673.105.47.0816.4712.08h.1303z" fill="#ffb902"/><path d="M.5605.9116L.5372.91C.4973.905.4616.896.43.8834.3897.8663.3576.8432.3338.8137L.323.799.5802.497z" fill="#052d84"/><path d="M.5802.913L.5687.9123.5605.9116.5802.497v.416z" fill="#a3276a"/><g transform="matrix(2.4023757 0 0 2.4023757 -1.3647904 -.89659058)"><path d="M1.184.6492h.2208V.5344H1.184z" class="D"/><g class="C"><path d="M1.022.6493h.162v-.115h-.162V.592z"/><path d="M.9617.5344l.0627.0598V.5344z"/></g><g class="D"><path d="M1.0447.578v.0097l.0183.0256h.0125V.588H1.08v-.01h-.0046V.57h-.0117v.007zm.02.022L1.0564.588h.0083z"/><path d="M1.1117.6046L1.097.57h-.012L1.1.6032h-.0164v.01h.0282z"/><path d="M1.1242.6134q.0045 0 .0073-.0027.0028-.0027.0028-.0076 0-.005-.0028-.0075Q1.1287.593 1.1242.593q-.0045 0-.0074.0026Q1.114.5982 1.114.603q0 .005.0028.0076.003.0027.0074.0027zm.0302-.0006L1.132.57h-.011l.0223.0418zM1.1215.603q0-.0017.0006-.0025.0007-.001.002-.001.0012 0 .002.001.0008.001.0008.0025 0 .0017-.0008.0026-.0007.001-.002.001-.0012 0-.002-.001-.0006-.001-.0006-.0026zm.0296-.012q.0045 0 .0074-.0027.0028-.0027.0028-.0076 0-.005-.0028-.0077-.0028-.0026-.0074-.0026-.0045 0-.0074.0026Q1.14.5757 1.14.5807q0 .005.0028.0076.0028.0027.0074.0027zM1.1485.5807q0-.0017.0006-.0027.0007-.001.002-.001.0012 0 .002.001.0007.001.0007.0027 0 .0017-.0007.0025-.0007.001-.002.001-.0012 0-.002-.001-.0006-.001-.0006-.0025z"/></g><g class="C"><path d="M1.23.61q.0062 0 .0103-.003.004-.003.0052-.0082h-.007Q1.2373.6 1.235.6014 1.233.6028 1.23.6028q-.003 0-.0052-.0013Q1.2226.6 1.2213.5976 1.22.595 1.22.5918q0-.0053.0028-.0083.003-.003.0078-.003.0036 0 .0062.0022.0026.0022.0034.006H1.229v.0048h.017V.587Q1.2453.5836 1.2432.5808 1.241.578 1.2377.5762 1.2344.5746 1.23.5746q-.005 0-.0088.0022-.0038.0022-.006.006-.002.004-.002.01 0 .005.002.009.002.004.006.006Q1.225.61 1.23.61z"/><path d="M1.2717.5816H1.258L1.2557.5748h-.007L1.26.6083h.0077L1.281.5748h-.007zM1.27.5868L1.265.6 1.26.5868z"/><path d="M1.3212.6083V.5748h-.0067v.0233L1.306.5748H1.3L1.2915.598V.5748h-.0068v.0334h.0082L1.303.583l.01.0252z"/><path d="M1.334.6033V.5945h.012V.5894h-.012v-.009h.0134V.5748h-.0202v.0338h.0202V.6033z"/><path d="M1.3757.584q0-.0026-.0013-.0048Q1.373.577 1.3706.5758 1.368.5745 1.3644.5745q-.0036 0-.0064.0012-.0028.0012-.0045.0035-.0017.0023-.002.0054h.0072q.0002-.002.0016-.0035.0014-.0013.0038-.0013.002 0 .0032.001.001.001.001.003 0 .0016-.001.0026-.001.001-.0023.0017-.0014.0006-.0038.0014-.0032.001-.0052.002-.002.001-.0034.003-.0014.002-.0014.005 0 .0044.003.007.0032.0025.0083.0025.0054 0 .0085-.0026.0032-.0026.0036-.007h-.0073q-.0003.0018-.0015.003-.0012.0012-.0034.0012-.002 0-.003-.001Q1.3587.602 1.3587.6q0-.0015.001-.0025.001-.001.0023-.0016.0014-.0006.0037-.0014.0033-.001.0053-.0022.002-.001.0035-.003.0014-.002.0014-.0053z"/></g></g><g class="C"><path d="M.3182.129l-.148-.14v.14z"/><path d="M.1922.129h-.3387v-.24h.3387v.12z"/></g><g class="D"><path d="M-.0876.0285v.0228h.0384V-.036h-.0254v.0644zm.074-.037q.0007-.0044.0028-.0066.0022-.0022.006-.0022.0058 0 .008.0057.0022.0057.002.0175Q.0034.0016-.0014-.001-.006-.0034-.012-.0034q-.012 0-.0192.0074-.007.0074-.007.0212 0 .01.0037.0158.0038.0068.0108.0105.007.0038.0167.0038.0133 0 .0207-.0055Q.021.0442.024.0345.027.025.027.0114q0-.024-.0073-.036-.007-.012-.0242-.012-.0097 0-.0167.004-.007.004-.0106.0103-.0037.0064-.0042.014zm.017.033q0 .0047-.0026.0073-.0025.0026-.0073.0026-.0044 0-.007-.0025-.0026-.0023-.0026-.007 0-.0046.0026-.007.0027-.0025.007-.0025.0042 0 .007.0025.0028.0025.0028.007z"/><path d="M.0556.0528Q.065.0528.0708.047q.006-.0055.006-.016 0-.0102-.006-.0158Q.065.01.0556.01.046.01.04.0155.034.02.034.0312q0 .0103.006.016.006.0057.0155.0057zm.063-.0012L.072-.036h-.023l.0467.0874zM.05.0312Q.05.0278.0514.026.0528.024.0553.024.058.024.0594.026.06.028.06.0312.06.0348.0594.0366.058.0386.0553.0386q-.0025 0-.004-.002Q.05.0348.05.0312zM.112.006q.0095 0 .0154-.0055.006-.0055.006-.016 0-.0103-.006-.016Q.1214-.037.112-.037q-.0095 0-.0154.0055-.006.0057-.006.016 0 .0103.006.016Q.1024.006.112.006zM.1064-.0156q0-.0036.0014-.0055.0015-.0018.004-.0018.0026 0 .004.0018.0015.002.0015.0055 0 .0034-.0015.0053-.0015.002-.004.002-.0026 0-.004-.002Q.1064-.012.1064-.0156z"/></g><g transform="matrix(2.4274731 0 0 2.4274731 -3.3517356 -.37141663)"><path d="M1.1486.2062h.1718V.1074h-.1718z" class="D"/><g class="C"><path d="M1.183.1723l.0095-.0115H1.187L1.1787.171V.1608h-.0045v.0225h.0045v-.01l.0084.01h.0054z"/><path d="M1.1995.1833V.1608H1.195v.0225z"/><use xlink:href="#A"/><use xlink:href="#A" x=".0178"/><path d="M1.2438.1798V.174h.008V.1705h-.008v-.006h.009V.1608h-.0134v.0225h.0134V.1798z"/><path d="M1.2752.1608h-.0045l-.01.0153V.1608H1.256v.0225h.0045l.01-.0155v.0155h.0045z"/><path d="M1.2948.167q0-.0017-.001-.0032-.001-.0014-.0026-.0023-.0017-.001-.004-.001-.0024 0-.0043.0008-.002.0008-.003.0024-.001.0015-.0013.0036h.0048q.0002-.0014.001-.0023.001-.001.0025-.001.0014 0 .002.0007.0008.0008.0008.002 0 .001-.0006.0017-.0006.0007-.0015.001-.001.0004-.0026.001-.002.0007-.0034.0014-.0013.0007-.0023.002-.001.0013-.001.0034 0 .003.002.0046.002.0017.0056.0017.0036 0 .0057-.0017.002-.0017.0024-.0046h-.005q-.0002.0012-.001.002Q1.2876.18 1.286.18q-.0012 0-.002-.0007-.0008-.0006-.0008-.002 0-.001.0006-.0017.0006-.0006.0015-.001.001-.0004.0025-.001.0022-.0008.0035-.0014.0014-.0007.0023-.002.001-.0013.001-.0035zm-.116-.0287V.13h-.0045v.0226h.0082q.004 0 .006-.002.002-.002.002-.0052 0-.0032-.002-.005-.002-.002-.006-.002zM1.182.142q.004 0 .004.0035 0 .0017-.001.0026-.001.001-.003.001h-.0032V.142z"/><path d="M1.2072.1345h-.01L1.1965.13h-.0048L1.2.1522h.005L1.2135.13h-.0048zM1.206.138l-.0033.0095L1.1993.138z"/><path d="M1.2277.13l-.0053.0088h-.002V.13H1.216v.0226h.0086q.004 0 .006-.002.002-.002.002-.005 0-.0026-.0014-.0043Q1.2297.1395 1.227.139l.0056-.01zm-.0072.012h.0037q.004 0 .004.0034 0 .0016-.001.0025-.001.001-.003.001h-.0037z"/><path d="M1.24.149V.143h.008V.1396H1.24v-.006h.009V.13h-.0134v.0225H1.25V.149z"/><path d="M1.2714.13H1.267l-.01.0153V.13h-.0045v.0226h.0045l.01-.0155v.0155h.0045z"/><use xlink:href="#A" x=".0719" y="-.0309"/></g></g><g transform="matrix(1.3022889 0 0 1.3022889 -1.57009465 -.28679539)"><g class="C"><path d="M1.288.5583L1.1982.4728v.0855z"/><path d="M1.2074.5583H.99V.4048h.2165v.0767z"/></g><g class="D"><path d="M1.0443.4958q0 .004.0023.0076.0023.0036.007.006.0046.0023.0112.0023.0066 0 .0112-.0023.0046-.0023.007-.006Q1.0852.5 1.0852.4958q0-.0042-.002-.0073-.002-.003-.0054-.0047.0087-.0043.0087-.014 0-.0058-.003-.01-.003-.004-.008-.0062-.005-.002-.011-.002-.006 0-.011.002-.005.002-.008.0062-.003.0042-.003.01 0 .0097.0086.014-.0035.0017-.0055.0047-.002.003-.002.0073zm.0153-.0026q0-.0028.0014-.0042.0014-.0014.0038-.0014.0024 0 .0038.0014.0014.0015.0014.0042 0 .0027-.0015.0042Q1.067.499 1.0647.499q-.0023 0-.0038-.0016Q1.0595.496 1.0595.4932zM1.058.4707q0-.003.0017-.0047.0018-.0017.005-.0017.003 0 .005.0017.0018.0018.0018.0047 0 .003-.002.0047-.002.0018-.005.0018-.003 0-.005-.0018Q1.058.4737 1.058.4707z"/><path d="M1.1058.5092q.006 0 .0098-.0036.0038-.0035.0038-.0102 0-.0065-.0038-.01Q1.112.4818 1.1058.4818q-.006 0-.01.0035-.0038.0035-.0038.01 0 .0066.0038.0102.004.0036.01.0036zM1.146.5084l-.0298-.056h-.0148l.0298.056zm-.0438-.013q0-.0022.001-.0034.001-.0012.0025-.0012.0016 0 .0026.0012.001.0013.001.0034 0 .0023-.001.0035-.001.0013-.0026.0013-.0016 0-.0025-.0013-.001-.0012-.001-.0035zm.0396-.0162q.006 0 .0098-.0035.0038-.0035.0038-.01 0-.0066-.0038-.0102Q1.148.4518 1.1418.4518q-.006 0-.0098.0035-.0038.0036-.0038.0102 0 .0066.0038.01.0038.0035.0098.0035zM1.1383.4656q0-.0023.001-.0035.001-.0012.0026-.0012.0016 0 .0026.0012.001.0013.001.0035 0 .0022-.001.0034-.001.0013-.0026.0013-.0016 0-.0026-.0013-.001-.0012-.001-.0034zM.7245.558H.99V.4048H.7245z"/></g><g class="C"><path d="M.795.5227v-.035H.788V.503H.773V.4877H.766v.035h.007V.5085h.015v.0142z"/><path d="M.8228.4947h-.014L.8063.4877H.799l.013.0346h.008L.8326.4877H.8252zM.821.5l-.005.0148L.8106.5z"/><path d="M.843.5227V.502q0-.004.0018-.0062Q.8466.494.85.494q.0034 0 .005.002Q.857.498.857.502v.0205h.007V.502q0-.005-.0018-.0082Q.8604.4906.8572.49.854.4873.85.4873.8436.4873.84.491.836.495.836.502v.0205z"/><path d="M.894.5227V.517H.8843V.4877h-.007V.517H.8677v.0056z"/><path d="M.9048.517V.508h.0124V.5027H.9048V.4933h.014V.4877h-.021v.035h.021V.517zM.782.476q.0065 0 .011-.0034Q.797.4693.7985.4635H.7912Q.8.4663.7876.468.7852.4696.7818.4696.779.4696.7768.4682.7746.4668.7734.4642.772.4616.772.4582q0-.0034.0012-.006.0012-.0026.0035-.004Q.779.4468.7818.4468q.0034 0 .0057.0016Q.8.45.7912.453h.0073Q.797.447.7928.4437.7885.4404.782.4404q-.005 0-.009.0022Q.7692.445.767.45.765.453.765.4582q0 .0052.002.0093.002.004.006.0063Q.777.476.782.476z"/><path d="M.8105.4757V.455Q.8105.45.8123.45.814.447.8175.447.821.447.8227.45.8245.45.8245.455v.0205h.007V.455q0-.005-.0018-.0082Q.828.4436.8246.442.8215.4403.8174.4403q-.0063 0-.01.0038Q.8036.448.8036.455v.0205z"/><path d="M.8446.4757v-.035h-.007v.035z"/><path d="M.875.4502q0-.0027-.0013-.005Q.8724.443.8697.4417.867.4403.8633.4403q-.0037 0-.0066.0012Q.8538.443.852.4452.8503.4476.85.4508h.0074Q.8577.4487.859.4472.8606.4458.863.4458q.0022 0 .0033.001.0012.0012.0012.003 0 .0016-.001.0027-.001.001-.0024.0017Q.8628.455.8603.456.857.457.855.458.8528.459.8513.461.85.4632.85.4664.85.47.853.4735.8564.4762.8617.4762q.0056 0 .0088-.0027Q.874.4708.8743.4663H.8668q-.0003.002-.0016.003Q.864.4707.8617.4707q-.002 0-.003-.001Q.8574.4686.8574.4667q0-.0015.001-.0026.001-.001.0023-.0016Q.862.4618.8645.46.8678.46.87.4588.872.4578.8735.4557.875.4536.875.4502z"/><path d="M.8872.4757v-.035h-.007v.035z"/><path d="M.9232.4407h-.007L.9006.4645V.4407h-.007v.035h.007l.0157-.024v.024h.007z"/><path d="M.9366.47V.46H.95V.4557H.9366V.4463h.014V.4407h-.021v.035h.021V.47z"/></g></g><g class="C"><path d="M.2378.5957L.11.7185V.5957z"/><path d="M.1204.8284h-.3282V.5957h.3282V.712z"/></g><path d="M-.1646.74v.022h.0372V.6775H-.152V.74zm.0494-.048v.0196l.037.0518h.0253V.712h.0093V.6918H-.053V.6775h-.0236v.0143zm.0404.0445L-.0916.712h.0168zm.0594.027q.009 0 .0148-.0055Q.005.7525.005.7425q0-.01-.0057-.0153Q-.0063.722-.0155.722q-.0092 0-.015.0054-.0057.0054-.0057.0153 0 .01.0057.0154.006.0055.015.0055zm.061-.0012L.0004.6775H-.022l.0452.0847zM-.0208.7425q0-.0033.0013-.005.0014-.0018.0038-.0018.0025 0 .004.0018.0015.002.0015.005 0 .0035-.0015.0052-.0014.002-.004.002-.0024 0-.0038-.002Q-.0208.746-.0208.7425zm.06-.0246q.0092 0 .015-.0054Q.0598.7072.0598.6972q0-.01-.0057-.0155Q.0484.6763.0392.6763.03.6763.0243.6817.0185.687.0185.6972q0 .01.0057.0154Q.03.718.0392.718zM.0338.6972q0-.0035.0013-.0054Q.0365.7.04.7.0415.7.043.6918q.0014.002.0014.0054 0 .0033-.0014.005-.0014.002-.004.002-.0025 0-.004-.002Q.0338.7005.0338.6972z" class="D"/><g transform="matrix(1.7210462 0 0 1.7210462 -2.29390652 .34840888)"><path d="M1.0045.2788h.2076v-.135h-.2076z" class="D"/><g class="C"><path d="M1.054.2003h-.0147L1.0367.193H1.03l.0135.0362h.0084L1.0642.193h-.0077zM1.052.206l-.0054.0154L1.0412.206z"/><path d="M1.099.193h-.0073l-.0164.025V.193h-.0073v.0366h.0073l.0164-.025v.025h.0073z"/><path d="M1.113.2295V.193h-.0073v.0366z"/><path d="M1.1592.229V.193H1.152v.0252L1.1427.193h-.0063L1.127.218V.193h-.0073V.229h.009l.01-.0272.0108.0272z"/><path d="M1.173.2237V.2143h.013V.2087h-.013V.1988h.0145V.193h-.0218v.0366h.0218V.2237z"/></g></g><g transform="matrix(1.1863222 0 0 1.1863222 -1.32531395 -.32374692)"><g class="C"><path d="M1.4885 1.0472l-.1103.105v-.105z"/><path d="M1.3834 1.2477H1.084v-.2005h.2995v.1002z"/></g><g class="D"><path d="M1.1088 1.1637v.02h.032V1.1h-.0212v.0538z"/><path d="M1.1476 1.1637v.02h.032V1.1h-.0212v.0538z"/><path d="M1.2085 1.1297V1.1H1.188v.0197z"/><path d="M1.236 1.1328q.0006-.0037.0024-.0055.002-.002.005-.002.0048 0 .0067.0047.002.0047.0016.0146-.0017-.0035-.0056-.0056-.004-.002-.009-.002-.01 0-.016.0062-.006.0062-.006.0177 0 .0075.003.0132.0032.0056.009.0087.006.0032.014.0032.011 0 .0173-.0046.0063-.0046.0086-.0126.0025-.008.0025-.0193 0-.02-.006-.03-.006-.01-.0202-.01-.008 0-.014.0033-.0058.0033-.0088.0086-.003.0053-.0035.0116zm.0143.0276q0 .004-.0022.006-.002.0022-.006.0022-.0037 0-.006-.002-.0022-.002-.0022-.006 0-.0038.0022-.006.0023-.002.006-.002.0035 0 .0058.002.0024.002.0024.0058z"/><path d="M1.2936 1.184q.0078 0 .0127-.0047.005-.0046.005-.0133 0-.0085-.005-.0132-.0048-.0046-.0127-.0046-.008 0-.013.0046-.005.0046-.005.0132 0 .0086.005.0133.005.0047.013.0047zm.0526-.001l-.04-.073H1.288l.04.073zm-.0573-.017q0-.003.001-.0044.0012-.0015.0033-.0015.0022 0 .0034.0015.0013.0016.0013.0044 0 .003-.0013.0045-.0012.0016-.0034.0016-.002 0-.0033-.0016-.001-.0015-.001-.0045zm.0517-.0212q.008 0 .0128-.0046.005-.0046.005-.0133 0-.0086-.005-.0134-.005-.0046-.0128-.0046-.008 0-.013.0046-.005.0047-.005.0134 0 .0086.005.0133.005.0046.013.0046zm-.0046-.018q0-.003.001-.0046.0012-.0015.0034-.0015.0022 0 .0034.0015.0012.0016.0012.0046 0 .003-.0012.0044-.0012.0016-.0034.0016-.0022 0-.0034-.0016-.001-.0015-.001-.0044z"/></g><g transform="matrix(2.0269091 0 0 2.0269091 -1.5138453 .75597198)"><path d="M1.1453.2425h.1363V.1437h-.1363z" class="D"/><g class="C"><path d="M1.1732.1933l.0095-.0115h-.0055L1.169.192V.1818h-.0045v.0225h.0045v-.01l.0084.01h.0054z"/><path d="M1.1966.195V.1913H1.183V.195z"/><path d="M1.2064.1902V.1818H1.202v.0225H1.21q.004 0 .006-.002.002-.002.002-.0052 0-.0032-.002-.005-.002-.002-.006-.002zm.0032.0036q.004 0 .004.0035 0 .0017-.001.0026-.001.001-.003.001h-.0032v-.007z"/><path d="M1.2317.2047q.0032 0 .0057-.0015.0026-.0015.004-.004.0015-.0026.0015-.006 0-.0033-.0015-.006Q1.24.1845 1.2374.183 1.2348.1816 1.2317.1816q-.0032 0-.0057.0015-.0026.0015-.004.004-.0015.0027-.0015.006 0 .0033.0015.006.0015.0027.004.004.0026.0015.0057.0015zm0-.0042q-.002 0-.0035-.001-.0015-.001-.0024-.0026Q1.225.1954 1.225.193q0-.0022.0008-.004.001-.0017.0024-.0026.0015-.001.0035-.001.002 0 .0035.001.0015.001.0023.0026.001.0017.001.004 0 .0022-.001.004-.0008.0017-.0023.0026-.0015.001-.0035.001z"/><path d="M1.2508.1902V.1818h-.0045v.0225h.0082q.004 0 .006-.002.002-.002.002-.0052 0-.0032-.002-.005-.002-.002-.006-.002zm.0032.0036q.004 0 .004.0035 0 .0017-.001.0026-.001.001-.003.001h-.0032v-.007z"/></g></g></g><g transform="matrix(1.4382644 0 0 1.4382644 -.32588805 -.39037527)"><path d="M.824 1.03h.2944V.9135H.824z" class="D"/><g class="C"><path d="M.6846 1.031H.824V.9135H.6846v.0588z"/><path d="M.6327.9135L.686.9643V.9135z"/></g><g class="D"><path d="M.7017.9727q0-.0084.0036-.0133.0036-.005.0112-.005.0076 0 .0112.005.0036.005.0036.0133Q.731.98.7275.986.724.9908.7164.9908.7088.9908.7052.986.7017.98.7017.9727zm.0196 0q0-.0042-.001-.0065Q.7193.964.7164.964q-.003 0-.004.0023-.001.0023-.001.0065 0 .0042.001.0064.001.0023.004.0023.003 0 .004-.0023.001-.0023.001-.0064z"/><path d="M.7444.964V.9543h-.01V.964z"/><path d="M.7465.9808v.0094h.0158v-.036H.752v.0265z"/><path d="M.775.9908q.004 0 .0063-.0023Q.7838.9862.7838.982q0-.0042-.0024-.0065Q.78.9732.775.9732q-.004 0-.0064.0023Q.7662.9777.7662.982q0 .0043.0024.0065Q.771.9908.775.9908zM.8.9903L.7818.9543H.7723l.0192.036zM.7728.982q0-.0014.0006-.0022Q.774.98.775.98.776.98.7766.9798.7773.9806.7773.982q0 .0015-.0007.0022Q.776.985.775.985.774.985.7733.9842.7728.9834.7728.982zM.7983.9715q.004 0 .0063-.0023Q.807.967.807.9627.807.9584.8046.956.8022.9538.7983.9538.7944.9538.792.956.7895.9584.7895.9627q0 .0043.0024.0065.0024.0023.0063.0023zM.796.9627q0-.0015.0006-.0023Q.7972.9596.7982.9596.7993.9596.8.9604.8005.9612.8005.9627.8005.964.8.965.7993.9657.7982.9657.7972.9657.7966.965.796.964.796.9627z"/></g><g class="C"><path d="M.901.9916q0-.004-.0016-.007Q.898.9817.8947.98.8916.9784.8874.9784H.878v.0263h.0094q.0043 0 .0074-.0016.003-.0016.0048-.0046Q.901.9955.901.9916zM.887.983q.0042 0 .0066.0022.0023.0022.0023.0063 0 .004-.0023.0063Q.8912 1 .887 1H.8833V.983z"/><use xlink:href="#B"/><path d="M.933 1.0047V.9893q0-.003.0013-.0047Q.9358.983.9384.983q.0025 0 .004.0015.0014.0016.0014.0047v.0154h.0052V.9893q0-.0037-.0014-.0062Q.946.9806.9437.9794.9413.978.9382.978.9335.978.9307.98.928.9838.928.9893v.0154z"/><path d="M.9758.9784H.9705l-.0118.018v-.018H.9535v.0263h.0053l.0118-.018v.018h.0053z"/><path d="M.9908.9918l.011-.0134H.9955l-.0097.012v-.012H.9805v.0263h.0053V.993l.0098.0118h.0063zM.894.9464H.8835L.8816.941H.876l.0097.026h.006L.9014.941H.896zm-.0014.004l-.004.011-.004-.011z"/><path d="M.9095.945h.0088V.941h-.014v.0263h.0053z"/><path d="M.9393.9674V.9632H.932V.941H.9268v.022H.9196v.0042z"/><use xlink:href="#C"/><use xlink:href="#B" x=".0568" y="-.0373"/><use xlink:href="#C" x=".0507"/><path d="M1.0247.9677q.0048 0 .008-.0024.0032-.0023.004-.0064h-.0055q-.0008.0018-.0025.0028-.0017.001-.004.001-.0023 0-.004-.001-.0018-.001-.0027-.003-.001-.002-.001-.0045 0-.004.0022-.0064.0022-.0023.006-.0023.0028 0 .0048.0017.002.0017.0027.0047h-.009v.0038h.0133v-.005Q1.0366.948 1.035.9457 1.0334.9435 1.0307.9422 1.028.941 1.0247.941q-.004 0-.007.0017-.003.0017-.0046.0047-.0016.003-.0016.007 0 .004.0016.007.0016.003.0046.0048.003.0017.0068.0017z"/><path d="M1.0534.9678q.0037 0 .0067-.0017.003-.0017.0047-.0048.0017-.003.0017-.007 0-.004-.0017-.007Q1.063.9443 1.06.9425 1.057.9408 1.0534.9408q-.0037 0-.0067.0017-.003.0017-.0047.0048-.0017.003-.0017.007 0 .004.0017.007.0017.003.0047.0048.003.0017.0067.0017zm0-.0048q-.0023 0-.004-.001-.0017-.001-.0028-.003-.001-.002-.001-.0045 0-.0026.001-.0046.001-.002.0028-.003.0018-.001.004-.001.0023 0 .004.001.0017.001.0027.003.001.002.001.0046 0 .0026-.001.0045-.001.002-.0027.003-.0018.001-.004.001z"/></g></g><path d="M.5802.497L.235.4827.2336.4806.2203.459A.082.082 0 0 1 .2104.4406C.2063.4284.21.4175.2184.4085S.2328.3987.251.3932C.2566.3915.2592.3904.2625.3885s.0054-.004.007-.007S.2716.3758.2717.3717.2707.3623.2668.354.2637.347.2633.3447A.021.021 0 0 1 .2691.3307C.2735.3266.273.3277.2762.326S.28.3237.28.3228z" fill="#12a73a"/></g><defs><path id="A" d="M1.219.1833V.1798h-.0062v-.02h-.0045v.02H1.202v.0036z"/><path id="B" d="M.9188.9784l-.006.0102H.9103V.9784H.905v.0263h.01q.0046 0 .007-.0022.0024-.0022.0024-.006 0-.003-.0017-.005Q.9212.9896.918.989L.9246.9784zm-.0085.014h.0043q.0045 0 .0045.004 0 .002-.001.003-.001.001-.0034.001H.9103z"/><path id="C" d="M.9475.9632V.9564h.0093v-.004H.9475v-.007H.958V.941H.9423v.0263H.958V.9632z"/></defs></svg>