<svg xmlns="http://www.w3.org/2000/svg" xmlns:xlink="http://www.w3.org/1999/xlink" width="1282.70898" height="602.33398" viewBox="0 0 339.38321 159.36699"><style><![CDATA[.C{fill:#faf4d0}.D{fill:#a3276a}.E{fill:#f25c54}]]></style><g transform="matrix(125.74167 0 0 -125.74167 86.602841 145.41344)"><path d="M.6327.91348L.5802.91274V.41872L.60145.081.6717.08066H.871l-.00034.0012-.02053.07688-.02092.0782C.82464.2523.82107.2696.8194.28382a.1678.1678 0 0 0-.00126.0238.1489.1489 0 0 0 .00114.02252C.82146.34925.82683.369.83578.3912S.85213.42766.86702.455c.02753.05056.044.10367.04764.15452C.9159.62615.91593.64425.9148.6597.91237.69266.90448.72518.89202.75366a.2854.2854 0 0 1-.01872.03519.2509.2509 0 0 1-.0772.07723C.7511.89472.6973.91033.6327.91348z" class="E"/><path d="M.32395.80048C.31182.78317.30075.763.292.74196.27624.70476.26598.66345.2627.6245.26076.60166.2618.59002.26745.571.2712.55843.272.5554.2722.55087S.27132.54065.26886.53612L.26715.53295A.1761.1761 0 0 0 .26297.52644L.2354.48267.5802.49694z" fill="#62c882"/><path d="M.5802.49693L.28012.32212C.27996.3214.27926.32034.2773.31774S.27086.3047.2738.2983.2766.29358.28095.289.28892.28023.29112.27583.2938.2689.29377.26313.2934.256.29142.2499C.2842.2278.2859.20553.296.1904.30044.18376.30618.17886.31403.175S.33216.16827.34453.16696C.34648.16675.35098.16664.3574.16666l.01537.00068.0175.0019.02587.00137C.4263.17064.4295.1704.43562.16923S.44566.16627.4487.164.45337.15938.45488.15718.461.14247.4629.132l.0044-.02712.00376-.0233L.47116.081h.1303z" fill="#f7bf65"/><path d="M.56046.91162L.5372.90987C.49726.9049.4616.89603.43.88336.38974.86627.35762.84323.3338.81366L.323.79915.5802.49694z" fill="#00b1d7"/><path d="M.5802.91286L.56867.91225.56046.91162.5802.49694v.41592z" class="D"/><g transform="matrix(2.4023757 0 0 2.4023757 -1.3647904 -.89659058)"><path d="M1.184.64923h.2208v-.1148H1.184z" class="C"/><g class="E"><path d="M1.022.64934h.1621v-.1149H1.022v.05745z"/><path d="M.9617.5344l.0627.05975V.53443z"/></g><g class="C"><path d="M1.04474.57804V.5877L1.063.61327h.0125V.58805h.0046V.57804h-.0046V.57097h-.01167v.00707zM1.0647.6L1.0564.58805h.0083z"/><path d="M1.1117.6046L1.0971.57096h-.01196l.0148.03223h-.01638v.01h.02816z"/><path d="M1.12417.6134q.00448 0 .0073-.0027.00283-.00265.00283-.0076 0-.005-.00283-.00754Q1.1287.593 1.12417.593q-.00454 0-.00742.00265-.00283.00265-.00283.00754 0 .00495.00283.0076.003.0027.00742.0027zm.03017-.0006L1.132.57096h-.01108l.02233.04183zM1.12152.60308q0-.00165.00065-.00253.0007-.00088.002-.00088.00124 0 .00194.00088.00077.00094.00077.00253 0 .0017-.00077.0026-.0007.00094-.00194.00094-.00118 0-.002-.00094-.00065-.00088-.00065-.0026zm.02964-.01214q.00454 0 .00737-.00265.00283-.00265.00283-.0076 0-.00495-.00283-.00766Q1.1557.57038 1.15116.57038q-.00454 0-.00737.00265-.00283.0027-.00283.00766 0 .00495.00283.0076.00283.00265.00737.00265zM1.1485.5807q0-.0017.00065-.00265.0007-.00088.00194-.00088.00124 0 .00194.00088.0007.00094.0007.00265 0 .00165-.0007.00253-.0007.00094-.00194.00094-.00124 0-.00194-.00094Q1.1485.58234 1.1485.5807z"/></g><g class="E"><path d="M1.22997.61q.00618 0 .01025-.00307.00407-.00302.00522-.0082h-.007q-.001.0023-.0032.00364-.00216.0014-.00513.0014-.00292 0-.00517-.00134Q1.2226.6001 1.22134.5976 1.2201.5951 1.2201.59176q0-.00532.00283-.0083.00287-.00297.0078-.00297.00364 0 .00623.00216.00263.00216.0034.006H1.229v.00484h.017V.58697Q1.2453.5836 1.24318.5808 1.24112.57796 1.23772.57624q-.00335-.00168-.0077-.00168-.00498 0-.00882.00216-.00378.0022-.006.00608-.00206.00393-.00206.00896 0 .00503.00206.0089.002.00393.006.00613.00378.0022.00877.0022z"/><path d="M1.27168.58165h-.01356l-.0024-.0068h-.00714l.01246.03344h.0077l.0124-.03344H1.274zm-.00182.00513l-.00498.01428L1.26.58677z"/><path d="M1.32122.60828V.57484h-.0067v.02333L1.30594.57484H1.3l-.00858.02324V.57484h-.00676v.03344h.0082l.01016-.02515.00997.02515z"/><path d="M1.334.6033V.59453h.01198V.58936H1.334v-.009h.0134v-.0054h-.02017v.03382h.02017V.6033z"/><path d="M1.37575.5841q0-.0026-.0013-.0048-.0013-.00216-.00383-.0035-.00254-.0013-.00618-.0013-.0036 0-.00642.0012-.00283.00125-.00455.00354-.00168.0023-.00192.00537h.0072Q1.359.58256 1.36038.58117q.00144-.00134.00378-.00134.002 0 .0032.001.00115.00115.00115.00292 0 .00158-.0009.0026-.0009.00105-.0023.00168-.0014.00062-.00383.00144Q1.3583.5906 1.3563.5916q-.002.00105-.00345.00302-.0014.00196-.0014.00513 0 .00436.003.00685.00316.00254.00834.00254.00537 0 .00853-.0026.0032-.0026.00364-.007h-.00728q-.0003.00182-.00153.00297-.00125.0012-.0034.0012-.00187 0-.00302-.001Q1.35868.60186 1.35868.6q0-.0015.00086-.0025.0009-.00096.00225-.00158.0014-.00062.00374-.0014.00326-.00115.00527-.00216.00206-.001.0035-.00302.00144-.002.00144-.00527z"/></g></g><g fill="#f7bf65"><path d="M.31815.12913l-.14793-.141V.129z"/><path d="M.19218.1291H-.1465v-.24008h.33868v.12004z"/></g><g class="E"><path d="M-.08756.02852V.0513h.0384v-.08716H-.0745v.06438zm.074-.03705q.00074-.00443.00283-.00665Q-.0084-.0174-.0046-.0174q.0058 0 .008.00566.00222.00566.00197.01748Q.00337.00156-.0014-.001-.00608-.00336-.012-.00336q-.01206 0-.0192.0074-.00702.0074-.00702.02117 0 .009.0037.01576.00382.00677.01083.01046.00702.00382.01674.00382.0133 0 .02068-.00554.0075-.00554.01034-.01514Q.02692.02507.02692.0114q0-.02388-.00726-.03607Q.01252-.03673-.0046-.03673q-.00972 0-.01674.00394-.007.00394-.0106.01034-.0037.0064-.0042.0139zm.017.0331q0 .00468-.0026.00726-.00246.00258-.00726.00258-.00443 0-.00702-.00246-.0026-.00234-.0026-.00714 0-.00455.0026-.00714.0027-.00246.00714-.00246.0042 0 .007.00246.00283.00246.00283.0069z"/><path d="M.05555.05277Q.0649.05277.07082.047q.006-.00554.006-.01588 0-.01022-.006-.01576Q.06502.00993.05555.00993q-.00948 0-.0155.00554-.006.00554-.006.01576 0 .01034.006.01588.00603.00566.0155.00566zM.11858.05154l-.04665-.0874H.04878l.04666.0874zM.05.03123q0-.00345.00135-.0053Q.05284.0241.0553.0241q.0026 0 .00406.00185.0016.00197.0016.0053 0 .00357-.0016.00542Q.05788.0386.0553.0386.05284.0386.05136.03664.05.0348.05.03123zM.11193.00587q.00948 0 .0154-.00554.006-.00554.006-.01588 0-.01034-.006-.016Q.12142-.037.11193-.037q-.00948 0-.0154.00554-.006.00566-.006.016 0 .01034.006.01588.006.00554.0154.00554zM.1064-.01555q0-.00357.00135-.00554.00148-.00185.00406-.00185.0026 0 .00406.00185.00148.00197.00148.00554 0 .00345-.00148.0053Q.11438-.0083.1118-.0083q-.0026 0-.00406-.00197Q.1064-.0121.1064-.01555z"/></g><g transform="matrix(2.4274731 0 0 2.4274731 -3.3517356 -.37141663)"><path d="M1.14862.2062h.17178v-.0988h-.17178z" class="D"/><g class="C"><path d="M1.18298.17226L1.19253.1608h-.00546L1.17873.1711V.1608h-.0045v.02255h.0045V.17322L1.187.18334h.00543z"/><path d="M1.1995.18334V.1608H1.195v.02255z"/><use xlink:href="#A"/><use x=".01784" xlink:href="#A"/><path d="M1.2438.17977V.17392h.00798V.17047H1.2438V.1644h.00894V.1608H1.2393v.02255h.01345V.17976z"/><path d="M1.27518.1608h-.0045l-.0101.01533V.1608h-.0045v.02255h.0045l.0101-.01546v.01546h.0045z"/><path d="M1.29477.16696q0-.00172-.00086-.0032-.00086-.00144-.00256-.00233-.0017-.00086-.00412-.00086-.0024 0-.00428.0008-.00188.00083-.00303.00236-.00112.00153-.00128.00358h.0048q.00016-.00137.001-.0023.00096-.0009.00252-.0009.0014 0 .00214.00073.00077.00077.00077.00195 0 .00105-.0006.00173-.0006.0007-.00153.00112-.00093.00042-.00256.00096-.002.0007-.00345.00137-.00134.0007-.0023.002-.00093.0013-.00093.00342 0 .0029.00208.00457.002.0017.00556.0017.00358 0 .0057-.00173.00214-.00173.00243-.0046H1.2894q-.0002.0012-.00102.00198-.00083.0008-.00227.0008-.00125 0-.002-.00067Q1.28336.1788 1.28336.17756q0-.001.00057-.00166.0006-.00064.0015-.00105.00093-.00042.0025-.00093.00217-.00077.0035-.00144.00137-.00067.00233-.002.00096-.00134.00096-.0035zM1.17874.13828V.12992h-.0045v.02255h.0082q.004 0 .006-.00192.00204-.00192.00204-.0052 0-.00323-.002-.00514Q1.1864.1383 1.18254.1383zm.00323.0036q.00396 0 .00396.00345 0 .0017-.00093.0026-.00093.0009-.00303.0009h-.00323V.14188z"/><path d="M1.20718.13445h-.00904l-.0016-.00454h-.00476l.0083.0223h.00514l.00827-.0223h-.00476zm-.0012.00342L1.20266.1474 1.19934.13787z"/><path d="M1.22766.12992L1.2224.1387H1.2204V.12992h-.0045v.02255h.0086q.00393 0 .00597-.00192.00208-.00192.00208-.00505 0-.00256-.00144-.00428-.0014-.00173-.004-.0023l.00562-.009zM1.2204.1418h.0037q.00386 0 .00386.00342 0 .00163-.00096.00252-.00093.00093-.003.00093h-.0037z"/><path d="M1.24006.1489V.14304h.00798V.1396h-.00798V.13352H1.25V.1299h-.01345v.02255H1.25V.1489z"/><path d="M1.27143.12992h-.0045l-.0101.01533V.12992h-.0045v.02255h.0045L1.26693.137v.01546h.0045z"/><use y="-.03088" x=".07193" xlink:href="#A"/><path d="M1.4328.33958l-.05634-.0502v.0502z"/><path d="M1.3848.33957h-.12898V.25415L1.3848.25407v.04275z"/></g><path d="M1.09703.33957h.1588V.25415h-.1588z" class="D"/><g class="C"><path d="M1.1367.32244v-.0222h-.00446V.31h-.0095V.30025h-.00443v.0222h.00443v-.009h.0095v.009z"/><path d="M1.15424.30472h-.0089L1.14378.30025H1.139l.00817.02193h.00506l.00814-.02193H1.1558zm-.0012.00336l-.00327.00937L1.1465.30808z"/><path d="M1.1671.32244v-.013q0-.0026.00113-.00393.00116-.0013.00333-.0013.00214 0 .00327.0013.00116.00132.00116.00393v.013h.0044v-.013q0-.00308-.00116-.00522-.00113-.002-.00317-.00314-.002-.00104-.0046-.00104-.004 0-.00638.0024-.0024.0024-.0024.007v.013z"/><path d="M1.1994.32244V.31892h-.00613V.30025h-.00443v.01867h-.006v.00352z"/><path d="M1.2063.31892V.31317h.00786v-.0034H1.2063V.3038h.0088V.30025h-.01323v.0222H1.215V.31892zM1.12835.294q.00415 0 .00688-.00214.00273-.00214.0036-.0058H1.1342q-.00072.0018-.00226.00283-.0015.00104-.00365.00104-.00176 0-.00317-.00088-.0014-.00088-.0022-.0025-.0008-.00163-.0008-.00383 0-.00217.0008-.0038.0008-.00163.0022-.0025.0014-.00088.00317-.00088.00214 0 .00365.00104.00154.00104.00226.00283h.00465q-.00088-.00368-.0036-.0058-.00275-.0022-.007-.0022-.00317 0-.00562.0014-.00242.00145-.00377.00402-.00132.00258-.00132.00584 0 .0033.00132.00588.00135.00258.00377.004.00242.00145.00562.00145z"/><path d="M1.14647.2937v-.013q0-.0026.00113-.00393.00116-.0013.00333-.0013.00214 0 .00327.0013.00116.00132.00116.00393v.013h.0044v-.013q0-.00308-.00116-.00522-.00113-.0021-.00317-.00314-.002-.00104-.0046-.00104-.004 0-.00638.0024-.0024.0024-.0024.007v.013z"/><path d="M1.1681.2937V.2715h-.00443v.0222z"/><path d="M1.1874.27757q0-.0017-.00085-.00314-.00085-.0014-.0025-.0023-.00167-.00085-.00405-.00085-.00236 0-.0042.0008-.00185.00082-.003.00233-.001.0015-.00126.00352h.0047Q1.1764.27656 1.1773.27565q.00094-.00088.00248-.00088.00138 0 .0021.00072.00075.00075.00075.00192 0 .00104-.0006.0017-.0006.0007-.0015.001-.0009.0004-.0025.00094-.00207.0007-.0034.00135-.00132.0007-.00226.00198-.0009.0013-.0009.00336 0 .00286.00204.0045.00207.00167.00547.00167.00352 0 .0056-.0017.0021-.0017.0024-.00453h-.00478q-.0002.0012-.001.00195-.00082.0008-.00223.0008-.00123 0-.00198-.00066Q1.1762.28922 1.1762.288q0-.00097.00057-.00163.0006-.00063.00148-.00104.0009-.0004.00245-.0009.00214-.00075.00346-.0014.00135-.00066.0023-.00198Q1.1874.2797 1.1874.27757z"/><path d="M1.19512.2937V.2715H1.1907v.0222z"/><path d="M1.21795.2715h-.00443L1.2036.28658V.2715h-.00443v.0222h.00443l.00993-.0152v.0152h.00443z"/><path d="M1.22642.29017V.28442h.00786v-.0034h-.00786V.27505h.0088V.2715H1.222v.0222h.01323V.29017z"/></g><g class="E"><path d="M1.28805.3052q0 .00235.00134.00443.00134.00212.00407.00346.00273.00134.0066.00134.00388 0 .0066-.00134.00273-.00134.00407-.00346.00134-.00208.00134-.00443 0-.0025-.00115-.0043-.0011-.0018-.0032-.00277Q1.3128.2956 1.3128.28992q0-.00342-.0017-.00586-.0017-.0024-.0046-.00365-.003-.0012-.00642-.0012-.0035 0-.00642.0012-.003.00125-.0046.00365-.0017.00245-.0017.00586 0 .00568.00507.00822-.00208.00102-.00323.00277-.0011.0018-.0011.0043zM1.297.30368q0-.00162.00083-.0025.00083-.00083.0022-.00083.00138 0 .0022.00083.00083.00088.00083.0025 0 .00157-.00088.0025-.00083.00092-.00217.00092-.00134 0-.0022-.00092Q1.297.30525 1.297.30368zM1.29613.29043q0-.0017.00102-.00277.00106-.00102.003-.00102.00184 0 .003.00102.00106.00106.00106.00277 0 .00175-.0011.00277-.0011.00106-.00286.00106-.00175 0-.00286-.00106-.00106-.00102-.00106-.00277z"/><path d="M1.32417.31305q.0035 0 .00572-.00212.0022-.00208.0022-.00596 0-.00383-.0022-.0059-.00217-.00208-.00572-.00208-.00355 0-.00582.00208-.0022.00208-.0022.0059 0 .00388.0022.00596.00226.00212.00582.00212zM1.3478.3126L1.3303.2798h-.00868l.0175.03278zM1.3221.30497q0-.0013.0005-.002.00055-.0007.00148-.0007.00097 0 .00152.0007.0006.00074.0006.002 0 .00134-.0006.00203-.00055.00074-.00152.00074-.00092 0-.00148-.00074-.0005-.0007-.0005-.00203zm.02322-.0095q.00355 0 .00578-.00208.0022-.00208.0022-.00596 0-.00388-.0022-.006-.0022-.00208-.00578-.00208-.00355 0-.00578.00208-.0022.00212-.0022.006 0 .00388.0022.00596.0022.00208.00578.00208zM1.34324.28742q0-.00134.0005-.00208.00055-.0007.00152-.0007.00097 0 .00152.0007.00055.00074.00055.00208 0 .0013-.00055.002-.00055.00074-.00152.00074-.00097 0-.00152-.00074-.0005-.0007-.0005-.002z"/></g></g><g fill="#62c882"><path d="M.1787.5979l-.1288.12275V.59794z"/><path d="M.06132.8306h-.32824V.59793h.32824v.11634z"/></g><path d="M-.21503.73432V.7564h.03722V.67192H-.2024v.0624zm.0494-.04808V.7058l.03698.05178h.0253V.70652h.0093V.68624h-.0093V.67192H-.127v.01432zm.04044.0445L-.14203.70652h.01682zm.05935.02708q.00907 0 .0148-.0055.00573-.00537.00573-.0154 0-.01-.00573-.01527Q-.05666.7163-.06585.7163q-.0092 0-.01503.00537Q-.0866.72704-.0866.73694q0 .01002.00573.0154.00585.0055.01503.0055zm.06108-.0012l-.04522-.0847H-.0724l.04522.0847zM-.07122.73694q0-.00334.0013-.00513Q-.0685.73-.066.73q.0025 0 .00394.0018.00155.002.00155.00513 0 .00346-.00155.00525-.00143.002-.00394.002-.0024 0-.00382-.002-.0013-.0018-.0013-.00525zm.06-.02458q.0092 0 .0149-.00537Q.00942.70162.00942.6916q0-.01002-.00573-.0155-.00573-.00537-.0149-.00537-.0092 0-.0149.00537-.00573.0055-.00573.0155 0 .01002.00573.0154.00573.00537.0149.00537zM-.0166.6916q0-.00346.0013-.00537.00143-.0018.00394-.0018.0025 0 .00394.0018.00143.002.00143.00537 0 .00334-.00143.00513-.00143.002-.00394.002-.0025 0-.00394-.002Q-.0166.69493-.0166.6916z" class="C"/><g transform="matrix(1.7210462 0 0 1.7210462 -2.3530399 .35059901)" class="D"><path d="M1.00453.27878h.2076V.1437h-.2076z"/><g class="C"><path d="M1.05398.2003H1.0393L1.0367.19295H1.029l.01348.03618h.00835l.01343-.03618h-.00772zM1.052.20585L1.0466.2213 1.0412.20585z"/><path d="M1.09913.19295h-.0073l-.01638.02488V.19295h-.0073v.0366h.0073l.01638-.0251v.0251h.0073z"/><path d="M1.1131.22954v-.0366h-.0073v.0366z"/><path d="M1.15922.22913V.19295h-.00726V.2182L1.14268.19295h-.00632L1.12708.2181V.19295h-.0073v.03618h.00886l.011-.0272.01078.0272z"/><path d="M1.17314.22374v-.0095H1.186v-.0056h-.01296V.1988h.0145V.19295h-.02182v.0366h.02182v-.0058z"/></g></g><g transform="matrix(1.1863222 0 0 1.1863222 -1.3253139 -.32374692)"><g fill="#00b1d7"><path d="M1.48854 1.04723l-.11026.1051v-.10507z"/><path d="M1.38336 1.24772H1.084v-.20046h.29945v.10023z"/></g><g class="C"><path d="M1.10883 1.16373v.01902H1.141v-.07277h-.02117v.05376z"/><path d="M1.14758 1.16373v.01902h.03207v-.07277h-.02117v.05376z"/><path d="M1.20852 1.1297v-.01974h-.02046v.01974z"/><path d="M1.23595 1.1328q.00062-.0037.00236-.00555.00185-.00185.00504-.00185.00483 0 .00668.00473.00185.00473.00164.0146-.00175-.0035-.00565-.00555-.004-.00206-.00894-.00206-.01007 0-.01604.00617-.00586.00617-.00586.01768 0 .0075.00308.01316.0032.00565.00905.00874.00586.0032.01398.0032.011 0 .01727-.00463.00627-.00463.00863-.01264.00247-.008.00247-.01932 0-.01994-.00606-.03012-.00596-.01007-.02025-.01007-.00812 0-.01398.0033-.00576.0033-.00884.00863-.00308.00534-.0035.0116zm.0143.02765q0 .004-.00216.00606-.00206.00216-.00606.00216-.0037 0-.00586-.00206-.00216-.00195-.00216-.00596 0-.0038.00216-.00596.00226-.00206.00596-.00206.0035 0 .00576.00206.00236.00206.00236.00576z"/><path d="M1.29357 1.18398q.0078 0 .01275-.00473.00493-.00463.00493-.01326 0-.00853-.00493-.01316-.00483-.00463-.01275-.00463-.008 0-.01295.00463-.00493.00463-.00493.01316 0 .00863.00493.01326.00504.00473.01295.00473zm.05263-.00103l-.03896-.07298h-.01932l.03896.07298zM1.28895 1.166q0-.00288.00113-.00442.00123-.00154.0033-.00154.00216 0 .0034.00154.00134.00164.00134.00442 0 .00298-.00134.00452-.00123.00164-.0034.00164-.00206 0-.0033-.00164-.00113-.00154-.00113-.00452zm.0517-.02117q.008 0 .01285-.00463.00493-.00463.00493-.01326 0-.00863-.00493-.01336-.00493-.00463-.01285-.00463-.008 0-.01285.00463-.00493.00473-.00493.01336 0 .00863.00493.01326.00493.00463.01285.00463zm-.00463-.01788q0-.00298.00113-.00463.00123-.00154.0034-.00154.00216 0 .0034.00154.00123.00164.00123.00463 0 .00288-.00123.00442-.00123.00164-.0034.00164-.00216 0-.0034-.00164-.00113-.00154-.00113-.00442z"/></g><g transform="matrix(2.0269091 0 0 2.0269091 -1.5138453 .75597198)"><path d="M1.14535.24252h.13628V.1437h-.13628z" class="D"/><g class="C"><path d="M1.17316.19326L1.1827.1818h-.00546L1.1689.1921V.1818h-.0045v.02255h.0045V.1942l.00837.01012h.00543z"/><path d="M1.19665.19504V.1913h-.01357v.00374z"/><path d="M1.2064.19016V.1818H1.202v.02255H1.21q.004 0 .006-.00192.00204-.00192.00204-.0052 0-.00323-.002-.00514Q1.21396.19016 1.21.19016zm.00323.0036q.00396 0 .00396.00345 0 .0017-.00093.0026-.00093.0009-.00303.0009H1.2064V.19377z"/><path d="M1.23168.20466q.00316 0 .00572-.00147.0026-.00147.00406-.00412.0015-.00262.0015-.00594 0-.00332-.0015-.00597Q1.24.1845 1.2374.18303 1.23484.18156 1.23168.18156q-.00316 0-.00575.00147-.00256.00147-.00406.00412Q1.2204.1898 1.2204.19313q0 .00332.00147.00594.0015.00265.00406.00412.0026.00147.00575.00147zm0-.00415q-.00198 0-.00348-.0009-.0015-.0009-.00236-.0026Q1.225.19536 1.225.19313q0-.00224.00083-.00393.00086-.00166.00236-.00256.0015-.0009.00348-.0009.00198 0 .00348.0009.0015.0009.00233.00256.00086.0017.00086.00393 0 .00224-.00086.004-.00083.0017-.00233.0026-.0015.0009-.00348.0009z"/><path d="M1.25082.19016V.1818h-.0045v.02255h.0082q.004 0 .006-.00192.00204-.00192.00204-.0052 0-.00323-.002-.00514-.00208-.00192-.00594-.00192zm.00323.0036q.00396 0 .00396.00345 0 .0017-.00093.0026-.00093.0009-.00303.0009h-.00323V.19377z"/></g></g></g><g transform="matrix(1.4382644 0 0 1.4382644 -.32588805 -.39037527)"><path d="M.82412 1.03102h.2944V.9135h-.2944z" class="C"/><g class="D"><path d="M.6846 1.03113h.13952V.9135H.6846V.9723z"/><path d="M.6327.91348l.05335.05085V.9135z"/></g><g class="C"><path d="M.70167.97267q0-.00837.00355-.0133.0036-.00492.01116-.00492.00756 0 .01116.00492.0036.00492.0036.0133 0 .00832-.0036.01324-.0036.00492-.01116.00492-.00756 0-.01116-.00492Q.70167.98103.70167.97267zm.01963 0q0-.0042-.001-.0065Q.71932.9639.71638.9639q-.00294 0-.00396.00228-.00096.00228-.00096.0065 0 .00416.00096.00644.001.00228.00396.00228.00294 0 .004-.00228.001-.00228.001-.00644z"/><path d="M.7444.96404V.9543H.7343v.00974z"/><path d="M.7465.98083V.9902h.01582v-.036H.75188v.02652z"/><path d="M.77506.99082q.00385 0 .0063-.00233Q.78378.9862.78378.98195q0-.0042-.00243-.0065Q.77896.97317.77506.97317q-.004 0-.0064.00228-.00243.00228-.00243.0065 0 .00426.00243.00654.00248.00233.0064.00233zM.80102.9903L.7818.9543H.77227l.01922.036zM.77277.98195q0-.00142.00056-.00218Q.77394.98.77496.98.77602.98.77663.97977.7773.98058.7773.98195q0 .00147-.00066.00223Q.77602.985.77496.985q-.001 0-.00162-.0008Q.77277.98342.77277.98195zM.79828.9715q.0039 0 .00634-.00228Q.80706.96694.80706.96268q0-.00426-.00243-.0066Q.8022.9538.79828.9538q-.0039 0-.00634.00228Q.7895.95842.7895.96268q0 .00426.00243.00654Q.79438.9715.79828.9715zM.796.96268Q.796.9612.79656.9604.79717.95963.79823.95963.7993.95963.8.9604.8005.9612.8005.96268.8005.964.8.96486.7993.96567.79823.96567q-.00106 0-.00167-.0008Q.796.964.796.96268z"/></g><g transform="matrix(1.0678208 0 0 1.0678208 -.06587606 -.06649543)" class="D"><path d="M.90114.9916q0-.0039-.00164-.0069Q.89786.98173.89473.98005.89164.9784.88736.9784H.878v.0263h.00935q.00428 0 .00738-.00164.00313-.0016.00477-.00458Q.90114.99555.90114.9916zM.8869.983q.00425 0 .00656.00224.00235.00224.00235.00626 0 .00406-.00235.0063-.0023.00224-.00656.00224H.88326V.983z"/><use xlink:href="#B"/><path d="M.93307 1.00472V.9893q0-.0031.00134-.00466Q.9358.983.93836.983.9409.983.94224.98463.94362.9862.94362.9893v.01543h.00522V.9893q0-.00365-.00138-.0062Q.9461.9806.9437.97938.9413.97815.93825.97815q-.00473 0-.00756.00283Q.92785.9838.92785.98928v.01543z"/><path d="M.97576.9784H.9705L.95873.9963V.9784H.95348v.0263h.00525L.9705.98668v.01804h.00525z"/><path d="M.99076.9918L1.002.9784H.99553L.9858.99045V.9784H.98055v.0263H.9858V.993l.00976.0118H1.002zM.89403.9464H.88348L.88162.9411H.87607l.0097.026h.006L.9014.9411H.89585zm-.00142.004l-.00387.011-.00387-.011z"/><path d="M.90946.94512H.9183V.941H.9042v.0263h.00525z"/><path d="M.93934.9674V.96323H.93207V.941H.92682v.02213H.9196V.9674z"/><use xlink:href="#C"/><use xlink:href="#B" x=".05677" y="-.03731"/><use xlink:href="#C" x=".05065"/><path d="M1.02468.96766q.0048 0 .00797-.00238.00317-.00235.00406-.00637h-.0055q-.00078.0018-.0025.00283-.00168.00108-.004.00108-.00227 0-.00402-.00104Q1.01894.96073 1.01797.9588 1.017.95686 1.017.95425q0-.00414.0022-.00645.00224-.0023.00607-.0023.00283 0 .00484.00168.00205.00168.00265.00466h-.009V.9556h.0133V.95053q-.00056-.0026-.0022-.0048-.0016-.0022-.00425-.00354-.0026-.0013-.006-.0013-.00388 0-.00686.00168-.00294.0017-.00458.00473-.0016.00306-.0016.00697 0 .0039.0016.00693.00164.00306.00458.00477.00294.0017.00682.0017z"/><path d="M1.05343.96778q.0037 0 .00667-.0017.00302-.0017.00473-.0048.00175-.00306.00175-.00693 0-.00388-.00175-.00697-.0017-.0031-.00473-.0048-.00298-.0017-.00667-.0017-.0037 0-.0067.0017-.00298.0017-.00473.0048-.0017.0031-.0017.00697 0 .00387.0017.00693.00175.0031.00473.0048.00302.0017.0067.0017zm0-.00484q-.0023 0-.00406-.00104Q1.04762.96085 1.0466.95887 1.04565.95693 1.04565.95432q0-.0026.00097-.00458.001-.00194.00276-.00298.00175-.00104.00406-.00104.0023 0 .00406.00104.00175.00104.00272.00298.001.00197.001.00458 0 .0026-.001.00455-.00097.00198-.00272.00302-.00175.00104-.00406.00104z"/></g></g><path d="M.5802.49694L.23486.48265.2336.4806.22026.45908C.21395.44908.2119.4453.21036.4406.2063.42836.20904.41746.21845.40855S.2328.39874.251.39324C.25663.3915.25924.39043.26247.38852s.00537-.00395.00695-.007S.27164.3758.27165.3717.27067.36232.26677.3539.26366.34696.26333.34465.26476.33483.26912.33074.27294.3277.27624.32604.2801.32374.2801.32282.27998.32225.2798.32188z" class="C"/></g><defs><path id="A" d="M1.21895.18334V.17977h-.00623V.1608h-.0045v.01897h-.0062v.00358z"/><path id="B" d="M.9188.9784L.91264.98866h-.0023V.9784H.9051v.0263H.9151q.00458 0 .00697-.00224Q.9245 1.00024.9245.9966q0-.00298-.00168-.005Q.9212.9896.91806.9889L.9246.9784zM.91033.99227h.00432q.0045 0 .0045.004 0 .002-.00112.00294-.00108.00108-.0034.00108H.91033z"/><path id="C" d="M.94752.96323V.9564h.00932V.9524H.94752V.9453h.01043V.941h-.0157v.0263h.0157V.96323z"/></defs></svg>
