<svg xmlns="http://www.w3.org/2000/svg" xmlns:xlink="http://www.w3.org/1999/xlink" width="1253.177978515625" height="602.335998535156" viewBox="0 0 331.56977 159.36752"><style><![CDATA[.B{fill:#faf4d0}.C{fill:#ff7074}]]></style><g transform="matrix(125.741672701932 0 0 -125.741672701932 78.78938828934004 145.41375728998202)"><path d="M.632707873532.913481979332L.58021020484.912739244005V.41871926443L.601450997906.081005082188.67168636195.080661985677h.199212364013L.870557575744.081851120754.850026371138.158733983433.829111128002.236930743557c-.00447127365.015384048297-.00804179295.032667568705-.0096983178.046891157308C.81838420936.292653090267.818170486433.2966937441.818157381394.307622268758S.81827000688.321149044566.819295842988.3301399298c.002166543426.019107097077.0075325529.03896287815.01648617909.061059481172s.016352284117.03645755.03124127534.063808155824C.89455488852.505567855577.910927503913.55867855664.914664975222.609525758943.91588680802.62615011485.915934297568.644253224203.914793640157.659695820983.912366253554.692659206253.904476371262.7251817412.89201475666.753655537704.887138703986.764802316647.879802876397.778579285917.873292606384.788842417925.85358239804.819900631938.827271921104.846218165434.7960939452.866068377115.751084923025.894718358043.697293917726.910328765198.632707873532.913481979332z" fill="#ff2924"/><path d="M.323948301995.800482357554C.311824753486.7831684151.300750526355.763000977623.291896071267.741962958337.27624207713.704761156.265978036852.663447145906.262688034257.6245011456.26075803429.601659142337.26179849854.590019272575.267448496096.571009280544.271188502578.558433273824.271900366704.555391846772.27218946606.55087184593S.27131987236.54065065404.268859877865.53612065225L.267148287897.532950909597C.266838288348.532380905273.264968749223.529449867964.262968749584.526439871048L.235388469218.482673621787.58021020484.496935517427z" opacity=".77600002" fill="#016bc6"/><path d="M.58021020484.496933571134L.280123574117.322118098827C.279960744256.3213954253.279261236595.320335663797.27728717655.317737771952S.270857483064.304700184396.273807484253.298300184354.276608179822.29358091306.28094817352.289100906044.2889241119.280229313597.291124111604.275829314192.293789654595.268912787967.29377335564.263132797006.293414319488.25598433255.291424319803.249894332057C.284192314465.227796331697.28591023238.205526538547.296013229394.19038853162.300441235456.183754537262.30617969552.17885572793.314029693778.175005720965s.018132503367-.006741070412.030500506268-.0080510653C.346480195926.166747669918.350984117393.166643568198.357404119338.166658340063l.01537500552.00067839787.017499878316.001908474964.025874537263.00137043975C.426313548863.170635614624.429504271554.170405722495.4356242749.169225720023s.01003444758-.002960271627.0130844483-.00523027799.004659894388-.004619042198.00616988833-.0068190419.006220132632-.014707856227.008010133252-.02516885137L.467278823087.10488342157.47103924069.081570405428.47116400306.081005082188h.130286994848z" fill="#ffb902"/><path d="M.56045876503.911620285265L.53719643235.90986776326C.497260397754.904912212004.46159268337.89602986005.43100026217.88335770646.3897391614.866265711256.357623231998.843233490288.333808431594.813656485045L.323012584238.799147010964.58021020484.496935517427z" fill="#052d84"/><path d="M.58021020484.912860113787L.568669685846.91225384853.56045876503.911620285265.58021020484.496935517427v.415922650067z" fill="#a3276a"/><g transform="matrix(2.4023757 0 0 2.4023757 -1.3647904 -.89659058)"><path d="M1.184096693993.649227797985h.22080653906v-.11480113119h-.22080653906z" class="C"/><g class="B"><path d="M1.0219914.64933648h.1621053v-.1149098h-.1621053v.0574548z"/><path d="M.96169565.53441468l.0626932.059752v-.0597395z"/></g><g class="C"><path d="M1.044736.5780353v.009663L1.063.6132697h.01249v-.025218h.0046V.5780353h-.0046v-.00707h-.011666v.00707zM1.0647.6000126L1.0564.5880518h.0083z"/><path d="M1.111699.60460838l-.014612-.0336435h-.01196l.01479.0322294h-.01638v.0099h.028164z"/><path d="M1.1241735.6133875q.00448 0 .0073-.0027.00283-.00265.00283-.0076 0-.0049-.00283-.007542-.00277-.00265-.0073-.00265-.00454 0-.00742.00265-.00283.00265-.00283.007542 0 .00495.00283.0076.0029.0027.00742.0027zm.030167-.0005892l-.02233-.0418334h-.011077l.02233.0418334zm-.03282-.009722q0-.00165.0006482-.002534.000707-.0008838.0019-.0008838.00124 0 .00194.0008838.000766.00094272.000766.002534 0 .00171-.000766.002592-.000707.00094272-.00194.00094272-.00118 0-.0019-.00094272-.0006482-.0008838-.0006482-.002592zm.029637-.0121376q.00454 0 .00737-.00265.00283-.00265.00283-.0076 0-.00495-.00283-.00766-.00283-.00265-.00737-.00265-.00454 0-.00737.00265-.00283.0027-.00283.00766 0 .00495.00283.0076.00283.00265.00737.00265zm-.00265-.010252q0-.00171.000648-.00265.000707-.0008838.00194-.0008838.00124 0 .00194.0008838.000707.00094273.000707.00265 0 .00165-.000707.002534-.000707.00094273-.00194.00094273-.00124 0-.00194-.00094273-.000648-.0008838-.000648-.002534z"/></g><g class="B"><path d="M1.2299725.60900252q.00618 0 .010252-.003066.00407-.003018.00522-.008192h-.0071q-.001.0023-.0032.00364-.00216.00139-.00513.00139-.00292 0-.00517-.00134-.00225-.00134-.0035-.003833-.00125-.00249-.00125-.005845 0-.005318.00283-.008288.00287-.00297.0078-.00297.00364 0 .00623.002156.00263.002156.0034.00599h-.01145v.00484h.017103v-.006516q-.0007186-.003354-.00283-.00618-.00206-.002827-.00546-.00455-.00335-.001677-.0077-.001677-.00498 0-.00882.002156-.00378.002204-.0059.006084-.00206.00393-.00206.00896 0 .00503.00206.00891.0021.00393.0059.006132.00378.002204.00877.002204z"/><path d="M1.2716808.58164663h-.013558l-.0024-.006803h-.00714l.012456.0334403h.0077l.012408-.0334403h-.00714zm-.00182.005126l-.00498.0142768-.00498-.0142768z"/><path d="M1.3212244.6082839V.5748436h-.0067v.0233316l-.00858-.0233316h-.00584l-.00858.0232357V.5748436h-.00676v.0334403h.0082l.010157-.025152.00997.025152z"/><path d="M1.3340962.60330138v-.008767h.011977v-.005174h-.011977v-.009103h.013414v-.005414h-.02017v.0338236h.02017v-.005366z"/><path d="M1.3757476.58408997q0-.002587-.0013-.00479-.0013-.002156-.00383-.003497-.00254-.001294-.00618-.001294-.0036 0-.00642.001198-.00283.001246-.00455.003545-.00168.0023-.00192.005366h.0072q.0002395-.00206.00163-.00345.00144-.00134.00378-.00134.0021 0 .0032.001102.00115.00115.00115.002922 0 .00158-.0009103.002587-.0009103.001054-.0023.001677-.0014.0006228-.00383.001437-.00316.001054-.00517.00206-.002.001054-.00345.003018-.0014.001964-.0014.005126 0 .00436.0031.00685.00316.00254.00834.00254.00537 0 .00853-.002587.0032-.002587.00364-.0069h-.00728q-.0002874.00182-.00153.00297-.00125.001198-.0034.001198-.00187 0-.00302-.001006-.00115-.00095818-.00115-.002827 0-.001485.0008623-.00249.0009103-.00095817.00225-.00158.0014-.00062282.00374-.00139.00326-.00115.00527-.002156.00206-.001006.0035-.003018.00144-.002012.00144-.00527z"/></g></g><g class="B"><path d="M.3181516.12913142L.17022-.0118608v.1409625z"/><path d="M.192178.12910612h-.3386824v-.2400778H.192178v.1200388z"/></g><g class="C"><path d="M-.08755868.02851715v.0227736h.0384074v-.0871552h-.02535874v.0643816zm.07410076-.03705327q.0007386-.004432.00283-.006647.00222-.002216.00603-.002216.0058 0 .008.005663.00222.005663.00197.0174803-.002-.004185-.00677-.006647-.00468-.002462-.0107-.002462-.012064 0-.019204.007386-.00702.007386-.00702.0211733 0 .008986.0037.015757.00382.00677.010833.0104635.00702.003816.016742.003816.013295 0 .02068-.00554.0075-.00554.01034-.0151414.00295-.00948.00295-.023143 0-.0238815-.00726-.0360685-.00714-.012064-.02425-.012064-.00972 0-.016742.00394-.007.00394-.010587.0103405-.0037.0064-.0042.0139104zm.0171.033114q0 .004678-.0026.007263-.00246.002585-.00726.002585-.00443 0-.00702-.002462-.0026-.00234-.0026-.00714 0-.004555.0026-.00714.0027-.002462.00714-.002462.0042 0 .007.002462.00283.002462.00283.006894z"/><path d="M.05555348.05276796q.00936 0 .015264-.005663.0059-.00554.0059-.01588 0-.0102173-.0059-.015757-.0058-.00554-.015264-.00554-.00948 0-.01551.00554-.0059.00554-.0059.015757 0 .0103405.0059.01588.00603.005663.01551.005663zm.063028-.00123l-.046655-.0874014h-.023143l.046655.0874014zm-.068567-.0203116q0-.003447.00135-.005293.00148-.001847.00394-.001847.0026 0 .00406.001847.0016.00197.0016.005293 0 .00357-.0016.005416-.00148.00197-.00406.00197-.00246 0-.00394-.00197-.00135-.001847-.00135-.005416zm.06192-.0253587q.00948 0 .015388-.00554.0059-.00554.0059-.01588 0-.0103405-.0059-.016003-.0059-.00554-.015388-.00554-.00948 0-.015388.00554-.0059.005663-.0059.016003 0 .0103405.0059.01588.0059.00554.015388.00554zm-.00554-.0214195q0-.00357.00135-.00554.00148-.001847.00406-.001847.0026 0 .00406.001847.00148.00197.00148.00554 0 .003447-.00148.005293-.00148.00197-.00406.00197-.0026 0-.00406-.00197-.00135-.001847-.00135-.005293z"/></g><g transform="matrix(2.4274730999999994 0 0 2.4274730999999994 -3.351735599999999 -.3714166300000001)"><path d="M1.148618.20619085h.1717803v-.0988067H1.148618z" class="C"/><g class="B"><path d="M1.1829848.17225986l.00955-.0114662h-.00546l-.00834.0103164v-.0103164h-.0045v.022549h.0045v-.0101247l.00837.0101247h.00543z"/><path d="M1.1995098.18334276v-.022549h-.0045v.022549z"/><use xlink:href="#B"/><use xlink:href="#B" x="0.017841"/><path d="M1.2438005.17976557v-.005845h.00798v-.00345h-.00798v-.006068h.00894v-.00361h-.013446v.022549h.013446v-.003577z"/><path d="M1.2751772.1607937h-.0045l-.010093.0153308V.1607937h-.0045v.022549h.0045l.010093-.0154586v.0154586h.0045z"/><path d="M1.294774.16695796q0-.001725-.0008624-.003194-.0008623-.001437-.00256-.002332-.0017-.00086236-.00412-.00086236-.0024 0-.00428.00079848-.00188.00083042-.00303.002363-.00112.001533-.00128.003577h.0048q.0001597-.001373.001-.0023.0009582-.0008943.00252-.0008943.0014 0 .00214.0007346.0007666.00076654.0007666.001948 0 .001054-.000607.001725-.0006068.00070266-.00153.001118-.0009263.0004152-.00256.00095818-.002.00070266-.00345.001373-.00134.00070266-.0023.002012-.0009263.0013-.0009263.003417 0 .002906.00208.004567.002.001693.00556.001693.00358 0 .0057-.001725.00214-.001725.00243-.0046h-.00485q-.0001916.001214-.00102.00198-.0008304.00079848-.00227.00079848-.00125 0-.002-.00067072-.0007665-.0006388-.0007665-.001884 0-.00099012.000575-.00166.0006068-.00063878.0015-.001054.0009262-.0004152.0025-.00092624.00217-.00076654.0035-.001437.00137-.00067072.00233-.002012.0009582-.00134.0009582-.003513zM1.178737.1382835v-.008368h-.0045v.02255h.0082q.004 0 .006-.001916.00204-.001916.00204-.005206 0-.003226-.002-.005142-.00208-.001916-.00594-.001916zm.00323.0036q.00396 0 .00396.00345 0 .001693-.0009262.002587-.0009263.0008943-.00303.0008943h-.00323v-.00693z"/><path d="M1.2071807.1344508h-.00904l-.0016-.004535h-.00476l.0083.0222935h.00514l.00827-.0222935h-.00476zm-.0012.003417l-.00332.009518-.00332-.009518z"/><path d="M1.2276577.12991543l-.00527.008783h-.00198v-.008783h-.0045v.02255h.0086q.00393 0 .00597-.001916.00208-.001916.00208-.005046 0-.002555-.00144-.00428-.0014-.001725-.0041-.0023l.00562-.009007zm-.00725.0118814h.0037q.00386 0 .00386.003417 0 .00163-.0009582.002523-.0009262.00092623-.0029.00092623h-.0037z"/><path d="M1.2400576.1488873v-.005845h.00798v-.00345h-.00798v-.006068h.00894v-.00361h-.013446v.02255h.013446v-.003577z"/><path d="M1.2714343.12991543h-.0045l-.010093.0153308v-.0153308h-.0045v.02255h.0045l.010093-.0154586v.0154586h.0045z"/><use xlink:href="#B" x="0.0719255" y="-0.03087828"/></g></g><g transform="matrix(1.3022889000000002 0 0 1.3022889000000002 -1.57009465 -.28679539)"><g class="B"><path d="M1.287953.55829705L1.198246.4727976V.558278z"/><path d="M1.207443.55828005H.99099114V.40484663H1.207443v.0767168z"/></g><g class="C"><path d="M1.04425967.49584234q0 .004012.00228.007553.00228.00362.00692.0059.00464.002282.01125.002282.0066 0 .01125-.002282.00464-.002282.00692-.0059.00228-.00354.00228-.007553 0-.004248-.00197-.007317-.0019-.003068-.00543-.00472.00865-.004327.00865-.014004 0-.005822-.0029-.009992-.0029-.00409-.00787-.006215-.00496-.002046-.010936-.002046-.00598 0-.010936.002046-.00496.002124-.00787.006215-.0029.00417-.0029.009992 0 .009677.00865.014004-.00354.00173-.0055.00472-.0019.003068-.0019.007317zm.015263-.002596q0-.002754.00142-.004248.00142-.001416.00378-.001416.00236 0 .00378.001416.00142.001495.00142.004248 0 .002675-.0015.004248-.00142.001573-.0037.001573-.00228 0-.00378-.001573-.00142-.001573-.00142-.004248zm-.0015-.0225795q0-.00291.00173-.00472.0018-.00173.00496-.00173.00315 0 .00496.00173.0018.0018.0018.00472 0 .003-.0019.00472-.0019.0018-.00488.0018-.003 0-.00488-.0018-.0018-.00173-.0018-.00472z"/><path d="M1.10581357.50921695q.00598 0 .00976-.00362.00378-.00354.00378-.01015 0-.00653-.00378-.0100703-.0037-.00354-.00976-.00354-.00606 0-.01.00354-.00378.00354-.00378.0100703 0 .0066.00378.01015.00386.00362.01.00362zm.04028-.00078674l-.029818-.0558586h-.0148l.029817.0558586zm-.04382-.0129812q0-.002203.0008655-.003383.000944-.00118.00252-.00118.00165 0 .0026.00118.00102.00126.00102.003383 0 .002282-.00102.003462-.000944.00126-.0026.00126-.00157 0-.00252-.00126-.0008655-.00118-.0008655-.003462zm.039573-.016207q.00606 0 .00983-.00354.00378-.00354.00378-.01015 0-.0066-.00378-.0102276-.00378-.00354-.00983-.00354-.00606 0-.00983.00354-.00378.00362-.00378.0102276 0 .0066.00378.01015.00378.00354.00983.00354zm-.00354-.0136893q0-.002282.0008654-.00354.000944-.00118.0026-.00118.00165 0 .0026.00118.000944.00126.000944.00354 0 .002203-.000944.003383-.000944.00126-.0026.00126-.00165 0-.0026-.00126-.0008654-.00118-.0008654-.003383zM.7244916.558135h.26649976V.40484613H.7244916z"/></g><g class="B"><path d="M.79511423.52265127v-.0349826h-.007036v.015212h-.0149642v-.015212h-.006987v.0349826h.006987v-.0141714h.0149642v.0141714z"/><path d="M.82275792.49470483h-.0140228l-.002478-.007036h-.007383l.012883.0345862h.007978l.012834-.0345862h-.0073833zm-.00188.005302l-.00515.014766-.005153-.014766z"/><path d="M.84303022.52265127v-.020514q0-.004113.00178-.006194.00183-.002032.00525-.002032.00337 0 .00515.002032.00183.00208.00183.006194v.020514h.00694v-.020514q0-.004856-.00183-.008225-.00178-.00332-.005-.004955-.00317-.001635-.00723-.001635-.0063 0-.01006.003766-.00377.003766-.00377.0110497v.020514z"/><path d="M.89394792.52265127v-.00555h-.00966v-.029433h-.007v.029433h-.0096v.00555z"/><path d="M.90482892.51710162v-.009068h.012388v-.00535h-.012388v-.009415h.013874v-.0056h-.02086v.0349826h.02086v-.00555zm-.122895-.04109635q.00654 0 .0108515-.00337.0043-.00337.005698-.009167h-.007333q-.00114.002824-.003568.00446-.002378.001635-.005748.001635-.002775 0-.005005-.001387-.00223-.001387-.00347-.003964-.00124-.002577-.00124-.006045 0-.00342.00124-.005996.00124-.002577.00347-.003964.00223-.001387.005005-.001387.00337 0 .005748.001635.002428.001635.003568.00446h.007333q-.001387-.005797-.005698-.009167-.0043-.00337-.0108515-.00337-.005005 0-.00887.00223-.003815.00228-.005946.006342-.00208.004063-.00208.009216 0 .005203.00208.009266.00213.004063.005946.006293.003815.00228.00887.002278z"/><path d="M.8105128.4756584v-.020514q0-.004113.001784-.006194.001833-.002032.005252-.002032.00337 0 .00515.002032.00183.00208.00183.006194v.020514h.00694v-.020514q0-.004856-.00183-.008225-.00178-.00332-.005-.004955-.00317-.001635-.00723-.001635-.006293 0-.0100588.003766-.003766.003766-.003766.0110497v.020514z"/><path d="M.84463292.4756584V.4406758h-.007v.0349826z"/><path d="M.87503362.45023905q0-.002676-.00134-.004955-.00134-.00223-.00396-.003617-.00263-.001338-.0064-.001338-.00372 0-.00664.00124-.00292.001288-.0047.003667-.00173.002378-.00198.00555h.00743q.0002478-.00213.00168-.003568.0015-.001387.0039-.001387.00218 0 .00332.00114.0012.00119.0012.003023 0 .001635-.0009415.002676-.0009414.0011-.00238.001734-.00144.00064416-.00396.001487-.00327.0011-.00535.00213-.00208.0011-.00357.003122-.00144.002032-.00144.005302 0 .00451.00322.007086.00327.002626.00862.002626.00555 0 .00882-.002676.00332-.002676.00377-.007135h-.00753q-.0002973.001883-.0016.003072-.0013.00124-.00352.00124-.00193 0-.00312-.00104-.0012-.000991-.0012-.002923 0-.001536.000892-.002577.0009414-.000991.00233-.001635.00144-.00064415.00387-.001437.00337-.00119.00545-.00223.00213-.00104.00362-.003122.0015-.00208.0015-.00545z"/><path d="M.88721532.4756584V.4406758h-.007v.0349826z"/><path d="M.92321522.44067582h-.007l-.015658.0237842v-.0237842h-.007v.0349826h.007l.015658-.0239824v.0239824h.007z"/><path d="M.93657212.47010877v-.009068h.012388v-.00535h-.012388v-.009415h.013874v-.0056h-.02086v.0349826h.02086v-.00555z"/></g></g><g class="B"><path d="M.23783948.5957196l-.1287932.1227525v-.1227252z"/><path d="M.12044688.82841725H-.2077893V.59574477h.32823618V.7120809z"/></g><path d="M-.1646436.73987874v.0220712h.0372228v-.084467h-.0245766v.062396zM-.1152574.6917993V.711365l.03698422.051778h.025292V.71208h.0093V.6917994h-.0093V.677483h-.023622v.0143165zm.040444.0445003L-.0916354.712081h.016822zm.0593536.027082q.00907 0 .014794-.005488.00573-.00537.00573-.0153902 0-.009902-.00573-.01527-.0056-.00537-.014794-.00537-.0092 0-.015032.00537-.00573.00537-.00573.01527 0 .0100215.00573.0153902.00585.005488.015032.005488zm.061084-.001193L.0004082.677483h-.02243l.045216.0847057zm-.066452-.019685q0-.00334.0013-.00513.00143-.0018.00382-.0018.0025 0 .00394.0018.00155.0019.00155.00513 0 .00346-.00155.00525-.00143.0019-.00394.0019-.0024 0-.00382-.0019-.0013-.0018-.0013-.00525zm.06-.0245766q.0092 0 .014913-.00537.00573-.00537.00573-.0153902 0-.0100215-.00573-.0155095-.00573-.00537-.014913-.00537-.0092 0-.014913.00537-.00573.005488-.00573.0155095 0 .0100215.00573.0153902.00573.00537.014913.00537zm-.00537-.02076q0-.00346.0013-.00537.00143-.0018.00394-.0018.0025 0 .00394.0018.00143.0019.00143.00537 0 .00334-.00143.00513-.00143.0019-.00394.0019-.0025 0-.00394-.0019-.0013-.0018-.0013-.00513z" class="C"/><g transform="matrix(1.7210462 0 0 1.7210462 -2.29390652 .34840888000000003)"><path d="M1.0045273.27877706h.2075946V.1437121h-.2075946z" class="C"/><g class="B"><path d="M1.0539766.20030702h-.01467l-.0026-.00736h-.00772l.013478.036182h.00835l.013426-.036182h-.00772zm-.00197.005547l-.0054.0154473-.0054-.0154473z"/><path d="M1.099133.1929462h-.0073l-.01638.0248816V.1929462h-.0073v.0365967h.0073l.01638-.02509v.02509h.0073z"/><path d="M1.113106.22954293v-.0365967h-.0073v.0365967z"/><path d="M1.1592165.22912823v-.036182h-.00726v.0252445l-.00928-.0252445h-.00632l-.00928.0251408v-.0251408h-.0073v.036182h.00886l.01099-.0272143.010782.0272143z"/><path d="M1.1731436.22373722v-.009486h.01296v-.005598h-.01296v-.00985h.014514v-.005858h-.021823v.0365967h.021823v-.005806z"/></g></g><g transform="matrix(1.1863222 0 0 1.1863222 -1.32531395 -.32374691999999994)"><g class="B"><path d="M1.4885444 1.0472336l-.1102624.1050914v-.1050675z"/><path d="M1.3833577 1.2477178h-.299453v-.2004614h.299453v.100231z"/></g><g class="C"><path d="M1.1088304 1.1637276v.019016h.03207v-.072774h-.021174v.053758z"/><path d="M1.1475765 1.1637276v.019016h.03207v-.072774h-.021174v.053758z"/><path d="M1.2085246 1.129705V1.10997h-.020455v.019735z"/><path d="M1.2359495 1.1327885q.0006168-.0037.00236-.00555.00185-.00185.00504-.00185.00483 0 .00668.00473.00185.00473.00164.014596-.00175-.0035-.00565-.00555-.0039-.00206-.00894-.00206-.010073 0-.016035.00617-.00586.00617-.00586.01768 0 .0075.00308.013157.0032.00565.00905.00874.00586.0032.01398.0032.0111 0 .017268-.00463.00627-.00463.00863-.012643.00247-.0079.00247-.019324 0-.01994-.00606-.030117-.00596-.010073-.02025-.010073-.00812 0-.01398.0033-.00576.0033-.00884.00863-.00308.00534-.0035.011615zm.014288.02765q0 .0039-.00216.00606-.00206.00216-.00606.00216-.0037 0-.00586-.00206-.00216-.00195-.00216-.00596 0-.0038.00216-.00596.00226-.00206.00596-.00206.0035 0 .00576.00206.00236.00206.00236.00576z"/><path d="M1.293573 1.1839767q.0078 0 .012746-.00473.00493-.00463.00493-.01326 0-.00853-.00493-.013157-.00483-.00463-.012746-.00463-.0079 0-.01295.00463-.00493.00463-.00493.013157 0 .00863.00493.01326.00504.00473.01295.00473zm.052627-.00103l-.038956-.07298H1.28792l.038956.07298zm-.057253-.01696q0-.00288.00113-.00442.00123-.00154.0033-.00154.00216 0 .0034.00154.00134.00164.00134.00442 0 .00298-.00134.00452-.00123.00164-.0034.00164-.00206 0-.0033-.00164-.00113-.00154-.00113-.00452zm.051702-.021174q.0079 0 .012848-.00463.00493-.00463.00493-.01326 0-.00863-.00493-.013362-.00493-.00463-.012848-.00463-.0079 0-.01285.00463-.00493.00473-.00493.013362 0 .00863.00493.01326.00493.00463.01285.00463zm-.00463-.017885q0-.00298.00113-.00463.00123-.00154.0034-.00154.00216 0 .0034.00154.00123.00164.00123.00463 0 .00288-.00123.00442-.00123.00164-.0034.00164-.00216 0-.0034-.00164-.00113-.00154-.00113-.00442z"/></g><g transform="matrix(2.0269091 0 0 2.0269091 -1.5138453 .75597198)"><path d="M1.145348.24251504h.1362833v-.0988067H1.145348z" class="C"/><g class="B"><path d="M1.1731592.1932554l.00955-.0114662h-.00546l-.00834.0103164V.1817892h-.0045v.022549h.0045V.1942136l.00837.0101247h.00543z"/><path d="M1.196647.195044V.191307h-.013574v.003737z"/><path d="M1.2064024.1901573v-.008368h-.0045v.022549h.0082q.004 0 .006-.001916.00204-.001916.00204-.005206 0-.003226-.0021-.005142-.00208-.001916-.00594-.001916zm.00323.00361q.00396 0 .00396.00345 0 .001693-.0009262.002587-.0009263.0008943-.00303.0008943h-.00323v-.00693z"/><path d="M1.2316842.20465768q.00316 0 .00572-.00147.0026-.00147.00406-.00412.0015-.00262.0015-.00594 0-.003322-.0015-.005973-.00147-.00265-.00406-.00412-.00256-.00147-.00572-.00147-.00316 0-.00575.00147-.00256.00147-.00406.00412-.00147.00265-.00147.005973 0 .003322.00147.00594.0015.00265.00406.00412.0026.00147.00575.00147zm0-.004152q-.00198 0-.00348-.0008943-.0015-.0008943-.00236-.002587-.0008304-.00166-.0008304-.003897 0-.002236.0008304-.00393.0008623-.00166.00236-.002555.0015-.0008943.00348-.0008943.00198 0 .00348.0008943.0015.0008943.00233.002555.0008623.001693.0008623.00393 0 .002236-.0008623.003897-.0008304.001693-.00233.002587-.0015.0008943-.00348.0008943z"/><path d="M1.2508178.1901573v-.008368h-.0045v.022549h.0082q.004 0 .006-.001916.00204-.001916.00204-.005206 0-.003226-.0021-.005142-.00208-.001916-.00594-.001916zm.00323.00361q.00396 0 .00396.00345 0 .001693-.0009262.002587-.0009262.0008943-.00303.0008943h-.00323v-.00693z"/></g></g></g><g transform="matrix(1.4382644 0 0 1.4382644 -.32588805 -.39037527)"><path d="M.824123561382 1.03101825714H1.1185273528V.913492307067H.824123561382z" class="C"/><g class="B"><path d="M.68460303 1.0311296h.1395205V.91349237h-.1395205v.0588185z"/><path d="M.63270787.91348198l.05335.0508484v-.0508377z"/></g><g class="C"><path d="M.70167145.9726656q0-.008367.00355-.0132864.0036-.00492.0111565-.00492.007556 0 .0111565.00492.0036.00492.0036.0132864 0 .008317-.0036.0132357-.0036.00492-.0111565.00492-.007556 0-.0111565-.00492-.00355-.004868-.00355-.0132357zm.0196253 0q0-.00421-.001014-.00649-.0009635-.002282-.003905-.002282-.00294 0-.003955.002282-.00096352.002282-.00096352.00649 0 .004158.00096352.00644.001014.002282.003955.002282.00294 0 .003905-.002282.001014-.002282.001014-.00644z"/><path d="M.7443879.96404466v-.009737H.7342963v.009737z"/><path d="M.74650826.98083014v.009382h.015822v-.0359037h-.0104466v.026522z"/><path d="M.7750564.9908203q.003854 0 .006288-.002333.002434-.002282.002434-.006542 0-.00421-.002434-.00649-.002383-.002282-.006288-.002282-.003905 0-.0064.002282-.002434.002282-.002434.00649 0 .00426.002434.006542.002485.002333.0064.002333zM.8010206.99031317L.781801.95430807H.772267l.0192196.036005zm-.0282463-.008367q0-.00142.00055783-.00218Q.77394067.9790045.77495514.9790045q.001065 0 .001673.00076067.00065925.00081138.00065925.00218 0 .00147-.00065925.00223-.00060854.00081138-.001673.00081138-.001014 0-.001623-.00081138Q.7727743.9834165.7727743.98194617zm.0255078-.0104465q.003905 0 .00634-.002282.002434-.002282.002434-.006542 0-.00426-.002434-.006592-.002434-.002282-.00634-.002282-.003905 0-.00634.002282-.002434.002333-.002434.006592 0 .00426.002434.006542.002434.002282.00634.002282zm-.002282-.008824q0-.00147.00055782-.002282Q.79716647.959633.79823093.959633q.001065 0 .001673.00076067.00060853.00081138.00060853.002282 0 .00142-.00060853.00218-.00060854.0008114-.001673.0008114-.001065 0-.001673-.0008114Q.7960001.964096.7960001.96267567z"/></g><g class="B"><path d="M.901144412096.99160063q0-.003913-.00164-.006894-.00164-.00298-.00477-.004658-.003093-.00164-.007378-.00164h-.009353v.0263072h.009353q.004285 0 .007378-.00164.00313-.001602.00477-.004583.00164-.002944.00164-.006894zm-.0142342-.008496q.004248 0 .006558.002236.002348.002236.002348.00626 0 .004062-.002348.006297-.0023.002236-.006558.002236h-.003652v-.017029z"/><use xlink:href="#C"/><path d="M.933070692096 1.004717V.9892904q0-.003093.00134-.004658.00138-.001528.00395-.001528.002534 0 .003875.001528.00138.001565.00138.004658v.0154266h.005217V.9892904q0-.003652-.00138-.006186-.00134-.002497-.003764-.003726-.002385-.00123-.00544-.00123-.004732 0-.007564.002832-.002832.002832-.002832.0083v.0154266z"/><path d="M.975758212096.97840976h-.005254l-.011775.017886v-.017886h-.005254v.0263072h.005254l.011775-.018035v.018035h.005254z"/><path d="M.990758642096.99178695l.0111415-.0133772h-.006372l-.009725.0120357v-.0120357h-.005254v.0263072h.005254v-.0118122l.009763.0118122h.006335zm-.09673134-.04540005h-.0105453l-.001863-.0053h-.005552l.009688.02601h.006l.00965-.02601h-.005552zm-.001416.003987l-.003875.0111042-.003875-.0111042z"/><path d="M.909458572096.94512h.00883V.941096h-.0140852v.0263072h.005254z"/><path d="M.939338912096.96740288v-.004173h-.007266v-.0221338h-.005254v.0221338h-.00723v.004173z"/><use xlink:href="#D"/><use xlink:href="#C" x="0.05676688" y="-0.0373141"/><use xlink:href="#D" x="0.05065353"/><path d="M1.024683112096.96766372q.0048 0 .00797-.002385.00317-.002348.00406-.006372h-.0055q-.0007825.00179-.0025.002832-.00168.00108-.004.00108-.00227 0-.00402-.001043-.00175-.001043-.00272-.00298-.000969-.001938-.000969-.004546 0-.004136.0022-.006446.00224-.0023.00607-.0023.00283 0 .00484.001677.00205.001677.00265.004658h-.0089v.003763h.013303v-.005068q-.00056-.002608-.0022-.004807-.0016-.002198-.00425-.00354-.0026-.001304-.006-.001304-.00388 0-.00686.001677-.00294.001714-.00458.004732-.0016.003056-.0016.006968 0 .003913.0016.00693.00164.003056.00458.00477.00294.001714.00682.001714z"/><path d="M1.053433912096.9677755q.0037 0 .00667-.001714.00302-.001714.00473-.004807.00175-.003056.00175-.00693 0-.003875-.00175-.006968-.0017-.003093-.00473-.004807-.00298-.001714-.00667-.001714-.0037 0-.0067.001714-.00298.001714-.00473.004807-.0017.003093-.0017.006968 0 .003875.0017.00693.00175.003093.00473.004807.00302.001714.0067.001714zm0-.004844q-.0023 0-.00406-.001043-.00175-.001043-.00276-.003018-.0009688-.001938-.0009688-.004546 0-.002608.0009688-.004583.001-.001938.00276-.00298.00175-.001043.00406-.001043.0023 0 .00406.001043.00175.001043.00272.00298.001.001975.001.004583 0 .002608-.001.004546-.0009688.001975-.00272.003018-.00175.001043-.00406.001043z"/></g></g><path d="M.58021020484.496935517427L.23485627987.482652182622.233593060898.480609193864.220262981446.459077934043C.213951980888.44907863951.211912019364.445285464297.210358019238.44059945964.206293518814.428355959602.209041129493.417462178778.21844612897.408549175206S.23280498992.39873549713.2509018901.393238497162C.256630789376.391499499398.259236699948.390434917088.262469700114.388520922636S.267838353542.38456811148.269419352244.3814231117.271640202234.37579879423.27165337714.371685798176.270667105672.362323111108.266770098228.3539091071.263655919744.346957357965.263329390678.344651350174.264759248256.334831453942.269115241478.33073645361.272943250343.327695415818.276244243005.326036415684.280086534666.323744051906.280086534666.322815989568.279978470493.32224905939.279801926753.32187832552z" fill="#12a73a"/></g><defs ><path id="B" d="M1.2189458.18334276v-.003577h-.00623v-.018972h-.0045v.018972h-.0062v.003577z"/><path id="C" d="M.918790462096.97840976l-.006148.010247h-.0023v-.010247h-.005254v.0263072h.0100236q.004583 0 .006968-.002236.002422-.002236.002422-.005887 0-.00298-.001677-.004993-.00164-.002012-.00477-.002683l.006558-.010508zm-.00846.0138616h.004322q.00451 0 .00451.003987 0 .002-.001118.002944-.00108.00108-.00339.00108h-.004322z"/><path id="D" d="M.947521492096.9632295v-.00682h.009316v-.004024h-.009316v-.00708h.0104335v-.00421h-.0156875v.0263072h.0156875v-.004173z"/></defs></svg>