<?xml version="1.0" encoding="UTF-8" standalone="no"?>
<!-- Created with Inkscape (http://www.inkscape.org/) -->

<svg
   xmlns:dc="http://purl.org/dc/elements/1.1/"
   xmlns:cc="http://creativecommons.org/ns#"
   xmlns:rdf="http://www.w3.org/1999/02/22-rdf-syntax-ns#"
   xmlns:svg="http://www.w3.org/2000/svg"
   xmlns="http://www.w3.org/2000/svg"
   xmlns:sodipodi="http://sodipodi.sourceforge.net/DTD/sodipodi-0.dtd"
   xmlns:inkscape="http://www.inkscape.org/namespaces/inkscape"
   width="610.5213mm"
   height="578.1731mm"
   viewBox="0 0 610.5213 578.1731"
   version="1.1"
   id="svg8"
   inkscape:version="0.92.4 (5da689c313, 2019-01-14)"
   sodipodi:docname="vectorstock_15431410 v2.svg">
  <defs
     id="defs2">
    <clipPath
       id="clipPath3731"
       clipPathUnits="userSpaceOnUse">
      <path
         inkscape:connector-curvature="0"
         id="path3729"
         d="M 0,4000 H 5000 V 0 H 0 Z" />
    </clipPath>
  </defs>
  <sodipodi:namedview
     id="base"
     pagecolor="#ffffff"
     bordercolor="#666666"
     borderopacity="1.0"
     inkscape:pageopacity="0.0"
     inkscape:pageshadow="2"
     inkscape:zoom="0.32"
     inkscape:cx="752.70932"
     inkscape:cy="891.86392"
     inkscape:document-units="mm"
     inkscape:current-layer="g3721"
     showgrid="false"
     inkscape:window-width="1920"
     inkscape:window-height="1017"
     inkscape:window-x="-8"
     inkscape:window-y="-8"
     inkscape:window-maximized="1" />
  <metadata
     id="metadata5">
    <rdf:RDF>
      <cc:Work
         rdf:about="">
        <dc:format>image/svg+xml</dc:format>
        <dc:type
           rdf:resource="http://purl.org/dc/dcmitype/StillImage" />
        <dc:title />
      </cc:Work>
    </rdf:RDF>
  </metadata>
  <g
     inkscape:label="Layer 1"
     inkscape:groupmode="layer"
     id="layer1"
     transform="translate(197.6453,62.345605)">
    <g
       transform="matrix(0.35277777,0,0,-0.35277777,-724.70633,935.27578)"
       inkscape:label="vectorstock_15431410"
       id="g3721"
       inkscape:export-filename="C:\Users\DavidN\Desktop\g3721.png"
       inkscape:export-xdpi="96"
       inkscape:export-ydpi="96">
      <path
         inkscape:connector-curvature="0"
         id="path3723"
         style="fill:none;fill-opacity:1;fill-rule:nonzero;stroke:none;stroke-width:0.42902783"
         d="M 1362.8572,1088.5714 H 3354.2857 V 2937.1428 H 1362.8572 Z" />
      <a
         id="a3759"
         inkscape:export-filename="C:\Users\DavidN\Desktop\a3759.png"
         inkscape:export-xdpi="96"
         inkscape:export-ydpi="96">
        <g
           id="g3725"
           transform="matrix(-1,0,0,1,5021.9526,-42.452833)">
          <g
             id="g3727"
             clip-path="url(#clipPath3731)">
            <g
               id="g3733"
               transform="translate(3054.9629,1840.0137)">
              <path
                 d="m -245.28303,-7.0754721 c -17.63,0 -31.921,14.291 -31.921,31.9210001 0,17.629 14.291,31.921 31.921,31.921 17.63,0 31.921,-14.292 31.921,-31.921 0,-17.6300001 -14.291,-31.9210001 -31.921,-31.9210001 m 112.604,-1.404 -0.003,0.06 c -0.564,135.6630021 -125.956,189.0830021 -125.924,189.3720021 l 9.884,86.587 c 0.41,3.502 -0.894,6.997 -3.522,9.361 -2.629,2.363 -6.217,3.323 -9.671,2.579 -27.074,-5.989 -53.299,-15.681 -78.175,-28.908 l 4.159,36.398 c 0.413,3.46 -0.888,6.913 -3.431,9.284 -2.586,2.366 -6.011,3.424 -9.507,2.677 -80.96,-15.847 -222.1126,-58.76959 -267.5226,-124.55059 -85.468,109.317 -134.23701,168.54463 -272.32401,185.59463 -51.50646,-2.81643 -64.37854,-18.45121 -79.4271,-40.01034 12.95027,177.043 110.13671,257.70144 217.8631,336.99229 155.88659,114.73865 428.80729,152.05234 559.31341,156.07296 C 70.637343,821.08895 192.06451,708.4182 214.01744,644.50607 202.03029,208.30404 170.86838,-502.76085 161.6572,-589.59633 188.84342,-526.83548 524.6782,586.06823 465.93847,818.62856 5.661428,1133.3414 -480.67074,1063.9012 -850.1962,827.41163 -1112.7589,659.37624 -1327.6559,273.64449 -1236.2384,-24.378859 -1128.8875,-374.34552 -935.58551,-563.96187 -300.01285,-598.39069 v 0 c 833.88659,-36.50798 470.31263,26.95842 470.31263,26.95842 l -8.20313,1.3916 c 0,0 -181.898305,19.83282 -280.0547,37.50464 -316.67485,57.01333 -901.44605,240.35463 -815.18446,285.11112 -81.81799,17.14179 16.71183,-46.52881 48.83317,-58.34517 298.33982,-123.35591 474.61531,-122.63656 518.16931,-119.20356 7.238,0.57 11.13,1.177 11.13,1.177 3.685,0.547 6.877,2.984 8.361,6.442 1.487,3.416 0.645,7.131 -0.999,10.504 -340.42269,360.631679 247.167,120.42617 244.126,329.623168 -6.591,18.078 -29.724,43.805 -29.157,68.7479999"
                 style="fill:#fff;fill-opacity:1;fill-rule:nonzero;stroke:none"
                 id="path3735"
                 inkscape:connector-curvature="0"
                 sodipodi:nodetypes="csssccccccccccccccsscccaaccccscccccccc" />
            </g>
          </g>
        </g>
      </a>
    </g>
  </g>
</svg>
