<?xml version="1.0" encoding="UTF-8"?>
<!DOCTYPE svg PUBLIC "-//W3C//DTD SVG 1.1//EN" "http://www.w3.org/Graphics/SVG/1.1/DTD/svg11.dtd">
<!-- Creator: CorelDRAW -->
<svg xmlns="http://www.w3.org/2000/svg" xml:space="preserve" width="6.07559in" height="1.27859in" version="1.1" style="shape-rendering:geometricPrecision; text-rendering:geometricPrecision; image-rendering:optimizeQuality; fill-rule:evenodd; clip-rule:evenodd"
viewBox="0 0 5937.71 1249.57"
 xmlns:xlink="http://www.w3.org/1999/xlink">
 <defs>
  <style type="text/css">
   <![CDATA[
    .fil1 {fill:url(#id0)}
    .fil2 {fill:url(#id1)}
    .fil4 {fill:url(#id2)}
    .fil3 {fill:url(#id3)}
    .fil0 {fill:url(#id4)}
   ]]>
  </style>
  <linearGradient id="id0" gradientUnits="userSpaceOnUse" x1="1980.13" y1="639.82" x2="3096.39" y2="639.82">
   <stop offset="0" style="stop-opacity:1; stop-color:#E98670"/>
   <stop offset="1" style="stop-opacity:1; stop-color:#E97474"/>
  </linearGradient>
  <linearGradient id="id1" gradientUnits="userSpaceOnUse" xlink:href="#id0" x1="3010.37" y1="639.82" x2="4085.49" y2="639.82">
  </linearGradient>
  <linearGradient id="id2" gradientUnits="userSpaceOnUse" xlink:href="#id0" x1="4805.69" y1="639.82" x2="5937.71" y2="639.82">
  </linearGradient>
  <linearGradient id="id3" gradientUnits="userSpaceOnUse" xlink:href="#id0" x1="4237.11" y1="639.82" x2="4629.96" y2="639.82">
  </linearGradient>
  <linearGradient id="id4" gradientUnits="userSpaceOnUse" xlink:href="#id0" x1="17.11" y1="620.57" x2="1930.99" y2="620.57">
  </linearGradient>
 </defs>
 <g id="Layer_x0020_1">
  <metadata id="CorelCorpID_0Corel-Layer"/>
  <g id="_6WW">
   <path class="fil0" d="M252.71 2.28c-202.39,16.33 -269.97,228.37 -249.08,315.26l0 0c16.5,68.63 80.57,117.78 148.68,136.39l0 0c67.93,18.78 140.07,12.64 210.29,5.62l0 0c43.89,-4.39 89.87,-8.78 130.95,7.2l0 0c61.09,23.7 97.6,87.42 112.87,150.96l0 0c15.1,63.72 13.69,130.07 24.41,194.49l0 0c27.03,163.6 137.09,311.04 286.29,383.37l0 0c28.61,13.87 60.03,24.58 93.38,32.65l0 0c14.92,4.39 30.19,7.73 45.99,9.48l0 0c0.7,0.18 1.4,0.18 2.1,0.35l0 0c121.47,20.01 259.96,11.06 373.88,-4.74l0 0c16.5,-1.4 31.07,-2.81 44.06,-4.56l0 0c39.15,-5.09 73.73,-12.46 104.09,-22.12l0 0 0.35 0c15.27,-4.74 29.49,-10.18 42.66,-16.14l0 0c101.11,-45.11 177.64,-114.1 229.42,-206.78l0 0c51.95,-92.51 77.93,-206.78 77.93,-342.64 0,-129.37 -20.89,-238.37 -62.84,-326.84l0 0c-41.78,-88.64 -104.27,-157.45 -187.47,-206.25l0 0c-42.83,-24.57 -93.21,-41.95 -151.14,-52.66l0 0c-57.92,-10.53 -146.05,-15.79 -264.53,-15.79l0 0 -171.67 0c-120.59,0 -224.16,72.32 -269.79,176.06l0 0 0 0.17c24.22,57.05 55.47,155.35 73.37,307.01l0 0c32.83,277.87 41.25,520.81 370.2,533.62l0 0c51.96,1.94 94.79,-6.84 129.72,-23.87l0 0c-207.13,121.12 -385.76,-11.71 -431.81,-49.32l0 0c-144.05,-117.65 -124.2,-431.42 -183.52,-648.56l0 0c-16.5,-60.38 -39.5,-114.27 -74.26,-155.53l0 0c-64.26,-76.24 -187.85,-179.08 -399.13,-179.08l0 0c-17.85,0 -36.3,0.73 -55.41,2.28zm931.56 905.05l0 -535.02c0,-15.97 12.99,-28.79 28.78,-28.79l0 0 79.69 0c91.28,0 155.88,22.47 193.97,67.58l0 0c31.95,37.91 50.38,97.95 55.47,180.1l0 0c0.18,1.4 0.18,2.63 0.35,4.03l0 0c0.88,14.57 1.23,29.84 1.23,45.82l0 0c0,110.76 -18.61,187.65 -55.82,230.65l0 0c-37.21,42.83 -103.92,64.42 -200.11,64.42l0 0 -74.78 0c-15.8,0 -28.78,-12.99 -28.78,-28.79l0 0z"/>
   <path class="fil1" d="M2485.91 39.5c-85.63,0 -161.94,54.05 -190.34,134.84l0 0 -326.62 928.91c-23.51,66.86 26.11,136.9 96.98,136.9l0 0 156.83 0c45.66,0 85.85,-30.12 98.67,-73.94l0 0 24.89 -85.09 382.32 0 23.66 84.09c12.48,44.32 52.91,74.94 98.95,74.94l0 0 159.34 0c70.87,0 120.49,-70.04 96.98,-136.9l0 0 -326.62 -928.91c-28.41,-80.79 -104.71,-134.84 -190.34,-134.84l0 0 -104.7 0zm-63.49 769.1l100.69 -342.08c4.54,-15.43 26.42,-15.37 30.87,0.09l0 0 98.52 342.08c2.96,10.28 -4.75,20.53 -15.45,20.53l0 0 -199.21 0c-10.73,0 -18.45,-10.32 -15.42,-20.62l0 0z"/>
   <path class="fil2" d="M3845.88 39.5c-47.72,0 -89.6,31.77 -102.46,77.73l0 0 -163.66 585.21c-8.66,30.95 -52.68,30.57 -60.79,-0.53l0 0 -152.06 -582.88c-12.22,-46.85 -54.53,-79.53 -102.95,-79.53l0 0 -164.15 0c-72.75,0 -124.04,71.39 -100.83,140.34l0 0 302.28 897.78c32.7,97.12 123.74,162.53 226.22,162.53l0 0 40.9 0c102.48,0 193.51,-65.41 226.22,-162.53l0 0 302.28 -897.78c23.22,-68.95 -28.08,-140.34 -100.83,-140.34l0 0 -150.17 0z"/>
   <path class="fil3" d="M4629.96 1074.23l0 -868.83c0,-91.63 -74.28,-165.91 -165.91,-165.91l0 0 -61.02 0c-91.63,0 -165.91,74.28 -165.91,165.91l0 0 0 868.83c0,91.63 74.28,165.91 165.91,165.91l0 0 61.02 0c91.63,0 165.91,-74.28 165.91,-165.91z"/>
   <path class="fil4" d="M4805.69 334.04l0 611.56c0,162.54 131.83,294.55 294.55,294.55l0 0 99.88 0c129.89,0 224.33,-3.86 283.31,-11.41l0 0c58.98,-7.72 107.95,-20.37 147.1,-38.26l0 0c101.11,-45.11 177.47,-114.1 229.42,-206.78l0 0c51.96,-92.51 77.76,-206.78 77.76,-342.64l0 0c0,-129.37 -20.89,-238.37 -62.67,-326.84l0 0c-41.95,-88.64 -104.27,-157.45 -187.47,-206.25l0 0c-43.01,-24.57 -93.38,-41.95 -151.31,-52.66l0 0c-57.75,-10.53 -145.86,-15.79 -264.35,-15.79l0 0 -171.67 0c-162.72,0 -294.55,131.82 -294.55,294.54zm285.77 608.87l0 -535.03c0,-8.25 3.51,-15.62 9.13,-20.89l0 0c2.28,-1.58 4.56,-3.16 6.85,-4.74l0 0c79.16,-54.24 144.63,-154.99 340.36,-154.99l0 0c-42.13,76 -84.26,135.68 -54.59,218.71l0 0c0.18,0.35 0.52,0.53 0.7,0.7l0 0c1.93,2.46 3.69,5.26 5.62,7.72l0 0c211.69,54.94 140.43,227.32 252.42,329.48l0 0c-38.54,166.31 -179.15,159.29 -311.73,152.27l0 0c-87.26,-4.62 -171.04,-9.24 -219.96,35.55l0 0c-15.98,0 -28.79,-12.99 -28.79,-28.78l0 0z"/>
  </g>
 </g>
</svg>
