<svg xmlns="http://www.w3.org/2000/svg" width="2307.481" height="2185.221" viewBox="0 0 610.521 578.173"><defs><clipPath id="A"><path d="M0 4000h5000V0H0z"/></clipPath></defs><a transform="matrix(.352778 0 0 -.352778 -527.06133 997.62178)"><g clip-path="url(#A)" transform="matrix(-1 0 0 1 5021.9526 -42.452833)"><path d="M2809.68 1832.94c-17.63 0-31.92 14.29-31.92 31.92s14.29 31.92 31.92 31.92 31.92-14.292 31.92-31.92-14.29-31.92-31.92-31.92m112.604-1.404l-.003.06c-.564 135.663-125.956 189.083-125.924 189.372l9.884 86.587c.4 3.502-.894 6.997-3.522 9.36a10.99 10.99 0 0 1-9.671 2.579c-27.074-5.99-53.3-15.68-78.175-28.908l4.16 36.398c.413 3.46-.888 6.913-3.43 9.284-2.586 2.366-6.01 3.424-9.507 2.677-80.96-15.847-222.113-58.77-267.523-124.55-85.468 109.317-134.237 168.545-272.324 185.595-51.506-2.816-64.38-18.45-79.427-40 12.95 177.043 110.137 257.7 217.863 336.992 155.887 114.74 428.807 152.052 559.313 156.073 261.604 8.06 383.03-104.61 404.984-168.523l-52.36-1234.102c27.186 62.76 363.02 1175.665 304.28 1408.225-460.277 314.713-946.61 245.273-1316.135 8.783-262.563-168.035-477.46-553.767-386.042-851.8 107.35-349.967 300.653-539.583 936.226-574.012h0c833.887-36.508 470.313 26.958 470.313 26.958l-8.203 1.392s-181.898 19.833-280.055 37.505c-316.675 57.013-901.446 240.355-815.184 285.11-81.818 17.142 16.712-46.53 48.833-58.345 298.34-123.356 474.615-122.637 518.17-119.204 7.238.57 11.13 1.177 11.13 1.177a10.86 10.86 0 0 1 8.361 6.442c1.487 3.416.645 7.13-1 10.504-340.423 360.632 247.167 120.426 244.126 329.623-6.59 18.078-29.724 43.805-29.157 68.748" fill="#fff"/></g></a></svg>