<?xml version="1.0" encoding="UTF-8" standalone="no"?>
<svg
   xmlns:dc="http://purl.org/dc/elements/1.1/"
   xmlns:cc="http://creativecommons.org/ns#"
   xmlns:rdf="http://www.w3.org/1999/02/22-rdf-syntax-ns#"
   xmlns:svg="http://www.w3.org/2000/svg"
   xmlns="http://www.w3.org/2000/svg"
   viewBox="0 0 6666.6665 5333.3335"
   height="5333.3335"
   width="6666.6665"
   xml:space="preserve"
   id="svg3713"
   version="1.1"><metadata
     id="metadata3719"><rdf:RDF><cc:Work
         rdf:about=""><dc:format>image/svg+xml</dc:format><dc:type
           rdf:resource="http://purl.org/dc/dcmitype/StillImage" /><dc:title></dc:title></cc:Work></rdf:RDF></metadata><defs
     id="defs3717"><clipPath
       id="clipPath3731"
       clipPathUnits="userSpaceOnUse"><path
         id="path3729"
         d="M 0,4000 H 5000 V 0 H 0 Z" /></clipPath></defs><g
     transform="matrix(1.3333333,0,0,-1.3333333,0,5333.3333)"
     id="g3721"><a
       transform="matrix(2.1861065,0,0,2.2749855,-2702.4226,-2343.1039)"
       id="a3759"><g
         id="g3725"
         transform="matrix(-1,0,0,1,5021.9526,-42.452833)"><g
           id="g3727"
           clip-path="url(#clipPath3731)"><g
             id="g3733"
             transform="translate(3054.9629,1840.0137)"><path
               d="m -245.28303,-7.0754721 c -17.63,0 -31.921,14.291 -31.921,31.9210001 0,17.629 14.291,31.921 31.921,31.921 17.63,0 31.921,-14.292 31.921,-31.921 0,-17.6300001 -14.291,-31.9210001 -31.921,-31.9210001 m 112.604,-1.404 -0.003,0.06 c -0.564,135.6630021 -125.956,189.0830021 -125.924,189.3720021 l 9.884,86.587 c 0.41,3.502 -0.894,6.997 -3.522,9.361 -2.629,2.363 -6.217,3.323 -9.671,2.579 -27.074,-5.989 -53.299,-15.681 -78.175,-28.908 l 4.159,36.398 c 0.413,3.46 -0.888,6.913 -3.431,9.284 -2.586,2.366 -6.011,3.424 -9.507,2.677 -80.96,-15.847 -222.1126,-58.76959 -267.5226,-124.55059 -85.468,109.317 -134.23701,168.54463 -272.32401,185.59463 -51.50646,-2.81643 -64.37854,-18.45121 -79.4271,-40.01034 12.95027,177.043 22.45242,290.56955 461.75504,297.47018 -569.6777,22.32496 -80.25959,169.74478 48.24738,183.16866 285.73445,29.84791 863.98591,6.86955 885.93884,-57.04258 -11.98715,-436.20203 -281.65035,-1413.22713 -258.71867,-1305.0626 27.18622,62.76085 97.27414,950.59059 59.96298,1191.72235 -473.13419,288.99856 -741.09768,314.91632 -1079.23903,197.19139 -294.3973,-102.49532 -477.4597,-553.76714 -386.0422,-851.790489 107.3509,-349.966661 238.51006,-421.725861 936.22555,-574.011831 v 0 c 243.445636,-77.22227 617.18347,-2.2233 0,0 632.0344,117.56092 860.01956,-94.09722 309.8553969,-104.34586 -33.2372099,34.26604 -109.6337049,121.6621 -206.1303469,153.96957 -297.94416,99.75294 -823.1163,256.58558 -736.85471,301.34207 -81.81799,17.14179 16.71183,-46.52881 48.83317,-58.34517 298.33982,-123.35591 474.61531,-122.63656 518.16931,-119.20356 7.238,0.57 11.13,1.177 11.13,1.177 3.685,0.547 6.877,2.984 8.361,6.442 1.487,3.416 0.645,7.131 -0.999,10.504 -340.42269,360.631679 247.167,120.42617 244.126,329.623168 -6.591,18.078 -29.724,43.805 -29.157,68.7479999"
               style="fill:#fff;fill-opacity:1;fill-rule:nonzero;stroke:none"
               id="path3735" /></g></g></g></a></g></svg>
