<svg xmlns="http://www.w3.org/2000/svg" width="2500" height="2500" viewBox="0 0 256 256" preserveAspectRatio="xMinYMin meet"><path d="M0 223a33 33 0 0 0 33 33h190a33 33 0 0 0 33-33V33a33 33 0 0 0-33-33H33A33 33 0 0 0 0 33v190z" fill="#563d7c"/><path d="M106.2 113.2V77h32c3 0 6 .3 8.8.8a22 22 0 0 1 7.5 2.7c2.2 1.3 4 3 5.2 5.4a18 18 0 0 1 2 8.9c0 6.5-2 11.2-6 14s-9 4.3-15 4.3h-34.5zM72 50.5v155h75a79 79 0 0 0 20.3-2.6c6.6-1.7 12.4-4.4 17.6-8s9.2-8.3 12.3-14 4.6-12.5 4.6-20.3a43 43 0 0 0-7.1-24.9c-4.7-7-11.8-11.7-21.4-14.4 7-3.3 12.2-7.6 15.7-12.8a34 34 0 0 0 5.3-19.5c0-7.2-1.2-13.3-3.6-18.2s-5.8-9-10-11.8-9.6-5-15.6-6.4-12.8-2-20.2-2H72zm34 128.5v-42.5h37c7.4 0 13.3 1.7 17.8 5s6.7 9 6.7 17c0 4-.7 7.4-2 10s-3.2 4.7-5.5 6.2-5 2.6-8 3.3-6.2 1-9.6 1h-36.5z" fill="#fff"/></svg>