<svg xmlns="http://www.w3.org/2000/svg" xmlns:xlink="http://www.w3.org/1999/xlink" width="1823" height="2500" viewBox="0 0 256 351" preserveAspectRatio="xMidYMid"><defs><path d="M1.3 280.7L102.2 89 58 5.6c-3.7-7-13-5-14.2 2.6L1.3 280.7z" id="A"/><filter x="-50%" y="-50%" width="200%" height="200%" id="B"><feGaussianBlur stdDeviation="17.5" in="SourceAlpha"/><feOffset/><feComposite in2="SourceAlpha" operator="arithmetic" k2="-1" k3="1"/><feColorMatrix values="0 0 0 0 0 0 0 0 0 0 0 0 0 0 0 0 0 0 0.06 0"/></filter><path d="M134.4 149l32-32.8-32-61c-3-5.8-10.4-6.4-13.4-.6l-18.2 36 31.7 58.6z" id="C"/><filter x="-50%" y="-50%" width="200%" height="200%" id="D"><feGaussianBlur stdDeviation="3.5" in="SourceAlpha"/><feOffset dx="1" dy="-9"/><feComposite in2="SourceAlpha" operator="arithmetic" k2="-1" k3="1"/><feColorMatrix values="0 0 0 0 0 0 0 0 0 0 0 0 0 0 0 0 0 0 0.09 0"/></filter></defs><path d="M0 283l2-3L102.7 87.5l-44.3-83C54.8-2.6 44.3-.8 43 7L0 283z" fill="#ffc24a"/><use fill="#ffa712" fill-rule="evenodd" xlink:href="#A"/><use filter="url(#B)" xlink:href="#A"/><path d="M135 150.4l33-33.7-33-63c-3-6-12-6-15 0l-17.6 33.6v3l32.6 60.2z" fill="#f4bd62"/><use fill="#ffa50e" fill-rule="evenodd" xlink:href="#C"/><use filter="url(#D)" xlink:href="#C"/><path fill="#f6820c" d="M0 283l1-1 3.5-1.4 130-132.4-32-61z"/><path d="M139 347.6l116.3-64.8-33.2-204.5a8 8 0 0 0-13.5-4.3L0 283l115.6 64.5a24.1 24.1 0 0 0 23.5 0" fill="#fde068"/><path d="M254.4 282.2l-33-203c-1-6.4-7.6-9-12-4.4L1.3 282.6l114.3 64a23.9 23.9 0 0 0 23.3 0l115.4-64.4z" fill="#fcca3f"/><path d="M139 345.6a24.1 24.1 0 0 1-23.5 0L0 283l115.6 64.5a24.1 24.1 0 0 0 23.5 0L255 281l-116 64.7z" fill="#eeab37"/></svg>