<svg xmlns="http://www.w3.org/2000/svg" width="2222" height="2500" viewBox="0 0 256 288" preserveAspectRatio="xMidYMid"><path d="M152.6 33l59 34.2a25.8 25.8 0 0 1 5.8-4.6c12.3-7 28-3 35 9.4 7 12.3 3 28-9.4 35a25.7 25.7 0 0 1-6.8 2.7V178a25.7 25.7 0 0 1 6.8 2.7c12.3 7 16.5 22.8 9.4 35-7 12.3-22.8 16.5-35 9.4a25.5 25.5 0 0 1-6.3-5.1l-58.8 34a25.7 25.7 0 0 1 1.3 8.1c0 14-11.5 25.6-25.6 25.6s-25.6-11.5-25.6-25.6c0-2.5.4-5 1-7.3l-59-34a25.8 25.8 0 0 1-5.7 4.5c-12.3 7-28 3-35-9.4s-3-28 9.4-35a25.7 25.7 0 0 1 6.8-2.7v-68.3a25.7 25.7 0 0 1-6.8-2.7C.6 100-3.6 84.2 3.4 72s22.8-16.5 35-9.4a25.8 25.8 0 0 1 5.8 4.6L103.4 33a25.7 25.7 0 0 1-1-7.3C102.4 11.5 113.8 0 128 0s25.6 11.5 25.6 25.6c0 2.5-.4 5-1 7.3zm-6.2 10.5l59.3 34.2a25.6 25.6 0 0 0 2.4 19.8c3.6 6.3 9.5 10.4 16 12l-1 68.7-76.7-134.8zm-36 .7L33 178.3a25.8 25.8 0 0 0-1-.3v-68.4c6.5-1.6 12.4-5.8 16-12a25.6 25.6 0 0 0 2.4-19.9l60-33.5zm25 6l77.4 134a25.5 25.5 0 0 0-4.5 5.8 25.7 25.7 0 0 0-2.7 6.8H50.6a25.7 25.7 0 0 0-2.7-6.8 25.8 25.8 0 0 0-4.5-5.7l77.4-134a25.7 25.7 0 0 0 7.1 1c2.5 0 5-.4 7.2-1zM147 244.7l59-34a25.9 25.9 0 0 1-.5-1.7l-155 1 59.2 34.2a25.6 25.6 0 0 1 18.5-7.8 25.6 25.6 0 0 1 19 8.4z" fill="#e535ab" fill-rule="evenodd"/></svg>