<svg xmlns="http://www.w3.org/2000/svg" viewBox="0 0 216.6 448.5"><path d="M202.8 179.7c-23-101.5-71-128.5-83.2-147.6C113 21.7 106.3 6 106.3 6c-.7 9-1.8 14.7-9.5 21.5-15.4 13.7-80.7 67-86.2 182.3-5 107.5 79 173.8 90.2 180.7 8.5 4.2 19 .1 24-3.8 40.5-27.8 96-102 78-207" fill="#10aa50"/><path d="M109.7 333c-2 26.6-3.6 42-9 57.3 0 0 3.5 25.3 6 52.2h8.8a488.6 488.6 0 0 1 9.6-56.2c-11.4-5.6-15-30-15.3-53.3z" fill="#b8c4c2"/><path d="M125 386.4h0c-11.5-5.3-14.8-30-15.3-53.3a1090.8 1090.8 0 0 0 2.5-114.7l-5-210.2a201 201 0 0 0 12.4 23.9c12.2 19 60.2 46 83.2 147.6 18 104.6-37.2 178.7-77.7 206.7z" fill="#12924f"/></svg>