<svg xmlns="http://www.w3.org/2000/svg" width="2500" height="2461" viewBox="0 0 256 252" preserveAspectRatio="xMinYMin meet" fill="#00546b"><path d="M235.6 194.2c-14-.3-24.7 1-33.8 5-2.6 1-6.8 1-7 4.3 1.4 1.4 1.6 3.7 2.8 5.6 2 3.5 5.7 8.2 9 10.6a164 164 0 0 0 11.1 8c6.8 4.2 14.4 6.6 21 10.8l11.5 8.2c2 1.4 3 3.7 5.6 4.5v-.5c-1.2-1.6-1.6-3.8-2.8-5.6l-5.2-5c-5-6.8-11.3-12.7-18-17.6-5.6-3.8-17.7-9-20-15.5l-.3-.3c3.8-.3 8.3-1.7 12-2.8 6-1.6 11.3-1.2 17.4-2.8a151 151 0 0 0 8.3-2.4V197c-3-3-5.4-7.3-8.7-10.3a232 232 0 0 0-28.7-21.4c-5.4-3.5-12.4-5.7-18-8.7-2-1-5.6-1.6-6.8-3.3-3-3.8-5-9-7-13.4a442 442 0 0 1-14.3-30.3c-3-6.8-5-13.6-9-19.8a175 175 0 0 0-67.3-65c-6.4-3.7-14-5.2-22.3-7L52 17c-2.8-1.2-5.6-4.5-8-6C34 4.6 8.4-9 1 9-3.6 20.2 8 31.4 12 37c3 4 6.8 8.5 9 13 1.2 3 1.6 6 2.8 9.2l9 23.3a84 84 0 0 0 6.4 10.8c1.4 2 3.8 2.8 4.4 6-2.4 3.5-2.6 8.7-4 13a77 77 0 0 0 5 58.5c2.8 4.3 9.4 14 18.3 10.3 7.8-3 6-13 8.4-21.7.5-2 .2-3.5 1.2-5v.3l7 14.4a100 100 0 0 0 22.6 23.3c4.2 3 7.5 8.5 12.7 10.4v-.5h-.3c-1-1.6-2.6-2.3-4-3.5-3-3-6.6-7-9-10.4A224 224 0 0 1 82 157l-7.5-16.7c-1-2-1-5.2-2.8-6.3-2.6 3.8-6.4 7-8.4 11.8-3.3 7.5-3.7 16.7-5 26.3-.7.2-.3 0-.7.3-5.6-1.4-7.5-7-9.6-12-5.2-12.4-6-32.2-1.6-46.5C48 110.4 53 99 51 95.4c-1-3.3-4.5-5.2-6.4-7.8a70 70 0 0 1-6.3-11.1c-4-9.8-6.3-20.5-10.7-30.3-2-4.5-5.7-9.2-8.7-13.4-3.3-4.7-7-8-9.6-13.6-1-2-2-5-.7-7 .3-1.4 1-2 2.4-2.3 2.3-2 8.7.5 11 1.6 6.4 2.6 11.8 5 17.2 8.7 2.4 1.7 5 5 8.2 6H51c5.6 1.2 11.8.3 17 2a111 111 0 0 1 25.1 12c22.8 14.4 41.6 35 54.3 59.5 2 4 3 7.7 5 11.8 3.7 8.5 8.2 17.2 11.8 25.6 3.7 8.2 7 16.5 12.4 23.3 2.6 3.7 13 5.6 17.7 7.5 3.5 1.6 9 3 12 5l17.4 11.8c2.8 2 11.5 6.4 12 10zM58.2 43c-3 0-5 .4-7 1v.3h.3c1.4 2.8 3.8 4.7 5.6 7l4.3 8c2.4-1.7 3.7-4.5 3.7-8.7-1-1.2-1.2-2.4-2-3.7-1-1.7-3.3-2.6-4.7-4z"/></svg>