<svg xmlns="http://www.w3.org/2000/svg" width="2500" height="1875" viewBox="0 0 512 384"><path fill="#cf649a" d="M440.6 220.6c-18 .1-33.4 4.4-46.4 10.8-4.8-9.5-9.6-17.8-10.4-24-1-7.2-2-11.6-1-20.2s6-20.8 6-21.8c-.1-1-1-5.3-11.4-5.4s-19.2 2-20.2 4.7a115 115 0 0 0-4.3 15.3c-1.8 9.4-20.6 42.7-31.3 60.2l-7-17.6c-1-7.2-2-11.6-1-20.2s6-20.8 6-21.8c-.1-1-1-5.3-11.4-5.4s-19.2 2-20.2 4.7-2 9-4.3 15.3c-2 6.2-27 61.8-33.6 76.3l-8.3 17.3c-2 4-.1.3-.3.7l-2.8 5.3v.1c-1.4 2.5-3 5-3.6 5-.5 0-1.5-6.7.2-16 3.7-19.3 12.7-49.4 12.6-50.5 0-.5 1.7-5.8-5.8-8.5-7.3-2.7-10 1.8-10.5 1.8s-1 1.6-1 1.6 8-34-15.5-34c-14.8 0-35.2 16-45.3 30.8l-51 28-1-1.2c-28.6-30.5-81.5-52-79.3-93 .8-15 6-54.2 101.6-101.8 78.3-39 141-28.3 152-4.5 15.5 34-33.5 97.2-115 106.3-31 3.5-47.3-8.5-51.4-13-4.3-4.7-5-5-6.5-4-2.6 1.4-1 5.6 0 8 2.4 6.3 12.4 17.5 29.4 23 15 5 51.3 7.6 95.3-9.4 49.3-19 87.8-72 76.5-116.4-11.5-45-86.3-60-157-34.8-42 15-87.7 38.4-120.5 69C4 118-2.2 149.7.4 163c9 47 74 77.8 100 100.5l-3.6 2c-13 6.4-62.5 32.3-75 59.7-14 31 2.2 53.3 13 56.3 33.4 9.3 67.6-7.4 86-35 18.4-27.5 16.2-63.2 7.7-79.5l-.3-.6 29-16.6c-3.2 8.7-5.5 19-6.7 34-1.4 17.6 5.8 40.4 15.3 49.4 4.2 4 9.2 4 12.3 4 11 0 16-9 21.5-20 6.8-13.3 12.8-28.7 12.8-28.7s-7.5 41.7 13 41.7c7.5 0 15-9.7 18.4-14.7v.1l.6-1a36.1 36.1 0 0 0 1.2-1.9v-.2a792 792 0 0 0 19.7-36.8c13-25.4 25.3-57.2 25.3-57.2s1.2 7.8 5 20.6c2.2 7.6 7 16 10.7 24l-12.6 16.7c-10.2 12.2-22.4 26-24 30-2 4.7-1.5 8.2 2.2 11 2.7 2 7.5 2.4 12.6 2a56 56 0 0 0 18.8-4.3 65 65 0 0 0 16.2-8.5 36 36 0 0 0 15.5-31.9 64 64 0 0 0-5.9-22.5l30.7-52.5s1.2 7.8 5 20.6c2 6.5 5.7 13.6 9 20.6-14.8 12-24 26-27.3 35.3-6 17-1.3 24.7 7.4 26.5 4 .8 9.5-1 13.7-2.8a62 62 0 0 0 17.3-8.9c10-7.4 19.6-17.7 19-31.6-.3-6.4-2-12.7-4.3-18.7 12.6-5.2 29-8.2 49.6-5.7 44.5 5.2 53.3 33 51.6 44.6s-11 18-14 20c-3 2-4 2.6-3.8 4 .4 2 1.8 2 4.5 1.6 3.7-.6 23.4-9.5 24.2-31 1.2-27.5-25-57.5-71.2-57.2zM97.4 336.3c-14.7 16-35.4 22.2-44.2 17-9.5-5.5-5.8-29.2 12.3-46.3 11-10.4 25.3-20 34.7-26 2-1.3 5.3-3.2 9-5.5.6-.4 1-.6 1-.6l2.3-1.4c6.7 24.4.3 45.8-15.2 62.7zm107.5-73c-5 12.5-16 44.6-22.4 42.8-5.6-1.5-9-25.8-1-49.8 4-12 12.5-26.5 17.5-32 8-9 17-12 19-8.3 2.6 4.8-10 39.6-13 47.4zm88.7 42.4c-2.2 1-4.2 2-5 1.3-.7-.4 1-2 1-2l15.5-17.4 8.7-11v1.2c0 14.4-13.8 24-20 28zM362 290c-1.6-1.2-1.4-5 4-16.5a62 62 0 0 1 15.2-19.6c1 3 1.6 6 1.5 8.6-.1 18-13 24.7-20.7 27.5z"/></svg>