<svg xmlns="http://www.w3.org/2000/svg" width="2270" height="2500" viewBox="0 0 256 282" preserveAspectRatio="xMinYMin meet" fill="#8cc84b"><path d="M116.5 3.6c7-4 16-4 23 0l105 59.3c6.6 3.7 11 11 11 18.6v119c0 8-4.8 15.4-11.7 19l-104.6 59a23 23 0 0 1-23.2-.6l-31.4-18.2c-2-1.3-4.5-2.3-6-4.4 1.3-1.8 3.7-2 5.7-2.8 4.4-1.4 8.4-3.6 12.4-5.8 1-.7 2.3-.4 3.2.2l26.8 15.5c2 1 4-.4 5.5-1.3L235 203c1.3-.6 2-2 2-3.3V82c.1-1.6-.8-3-2.2-3.7L130 19.7a3.6 3.6 0 0 0-4.1 0L21.7 78.5c-1.4.6-2.4 2-2.2 3.7V200a3.3 3.3 0 0 0 1.9 3.3L49.2 219c5.2 2.8 11.6 4.5 17.4 2.3 5-1.8 8.6-7 8.5-12.4V92c-.1-1.7 1.5-3.2 3.2-3h13.4c2 0 3 1.8 3 3.6V210c0 10.5-4.3 21.8-14 27a43 43 0 0 1-38.4-1.1c-10.2-5-20-11-30-16.5-7-3.6-11.8-11-11.7-19v-119C.5 73.8 5 66.3 12 62.6l104.6-59zM147 86c15.2-1 31.5-.6 45.2 7 10.6 5.7 16.5 17.8 16.7 29.6-.3 1.6-2 2.5-3.5 2.4h-13.2c-2 .1-3-1.7-3.2-3.3-1.3-5.6-4.3-11.2-9.6-14-8-4-17.6-4-26.5-3.8a37 37 0 0 0-19 4.7c-4.2 3-5.5 8.7-4 13.4 1.4 3.4 5.3 4.5 8.5 5.5 18.3 4.8 37.8 4.3 55.7 10.6 7.4 2.6 14.7 7.6 17.3 15.4 3.3 10.4 2 23-5.6 31.3-6 7-14.8 10.7-23.6 12.7a112 112 0 0 1-35.6 1.5 56 56 0 0 1-31.3-11.8 33 33 0 0 1-10.6-26c.1-1.6 1.7-2.7 3.2-2.6h13.3c1.8-.1 3 1.4 3.2 3 .8 5.4 2.8 11 7.5 14.2 9 5.8 20.4 5.4 30.7 5.6 8.6-.4 18.2-.5 25.2-6.2 3.7-3.2 4.8-8.6 3.8-13.3-1-4-5.2-5.8-8.7-7-18-5.7-37.7-3.6-55.7-10-7.3-2.6-14.3-7.4-17-15-4-10.6-2-23.7 6-31.8 8-8 19.6-11.2 30.6-12.3z"/></svg>