<svg xmlns="http://www.w3.org/2000/svg" viewBox="0 0 283.5 283.5"><path d="M29.6 175.3C24.4 159 23 142 26 124.4a177 177 0 0 1 5.5-21.4S45.2 57.7 92 37c0 0 16-8.5 40.3-9l-5.4-4.6c-11.4-7.6-28.4-10-38.7.6l-8.6 10a31 31 0 0 1-11.9 8.3c-4 1.5-8 1.2-12 2a26 26 0 0 0-11.9 4.9c-3.7 3-5.2 7-5.6 11.6-.4 3.6-.3 7.3-.5 11C37 82 33.6 85 26 91a31 31 0 0 0-7.9 9c-6 10.6 3.6 21.6 4 32.3a16 16 0 0 1-.9 6.5c-.8 2.3-2.4 3.8-3.7 5.7-1.8 2.5-3 5.5-2.5 8.6s2 6 3.6 8.7A82 82 0 0 0 29 174.9c.2 0 .4.2.6.4" fill="#e32286"/><linearGradient id="A" x1="53.5" x2="177.9" y1="247.7" y2="115.3" gradientUnits="userSpaceOnUse"><stop offset="0" stop-color="#e01d84"/><stop offset=".4" stop-color="#df1d85"/><stop offset=".8" stop-color="#932c87"/><stop offset="1" stop-color="#5d2f88"/></linearGradient><path d="M220.4 213.7c23-10 32.8-27.3 32.8-27.3 21.5-29.3 14.2-60.2 14.2-60.2-13.7 29.8-26.2 38-26.2 38 33.7-51.3.2-82.3.2-82.3 13.7 29.2-4.5 64.8-4.5 64.8-15.3 32.2-37 43.7-37 43.7 24.2 4.5 42-11.8 42-11.8-34.7 37.5-72.3 35.7-72.3 35.7 15.8 17.7 39.5 16.2 39.5 16.2-31 7.3-60-3-84-23a132 132 0 0 1-12.8-12l-4.4-5c-.5 18.5 18.8 35.7 18.8 35.7-24.2-10-35.3-31.7-35.3-31.7S75 167 87 135.2s47.5-38.5 47.5-38.5C164 111 189 115.5 189 115.5c52.7 8.8 49.7-17 49.7-17 .5-22.2-33-45.8-33-45.8C146 8.4 92 37 92 37c-46.7 20.7-60.5 66-60.5 66a177 177 0 0 0-5.5 21.4c-5 29.7 2.6 57.8 19.3 82.8 26 38.8 68.2 52.2 68.2 52.2 62.5 21.2 105.2-10 105.2-10 39.3-27 47.2-58.2 47.2-58.2-31.7 24.8-45.4 22.5-45.4 22.5zm-48.8-146c3 0 5.4 2.4 5.4 5.4s-2.4 5.4-5.4 5.4-5.4-2.4-5.4-5.4 2.4-5.4 5.4-5.4z" fill="url(#A)"/><radialGradient id="B" cx="190.5" cy="80.2" r="121.6" gradientTransform="matrix(1 2.387956e-03 -1.996728e-03 0.8362 0.1607 12.6849)" gradientUnits="userSpaceOnUse"><stop offset="0" stop-color="#e01d84"/><stop offset=".1" stop-color="#de1e85"/><stop offset=".3" stop-color="#d62085"/><stop offset=".4" stop-color="#c92386"/><stop offset=".6" stop-color="#b72786"/><stop offset=".7" stop-color="#9d2b87"/><stop offset=".9" stop-color="#7c2e88"/><stop offset="1" stop-color="#5d2f88"/></radialGradient><path d="M238.5 98.4c.5-22.2-33-45.8-33-45.8C145.8 8.4 91.8 37 91.8 37 45 57.7 31.3 103 31.3 103c-2.7 7.7-5 19.5-5 19.5-3 14.8-1.6 28.5-1.6 28.5 1.2 13 4 22 4 22 3 9.4 4.4 12.3 4.4 12.3-.1-.3-.6-2.5-.6-2.5s-4.2-20.2-.3-39.6c0 0 3.4-20.2 17.2-35.8 0 0 22.4-32 64-19.4 0 0 9 3.2 12 4.8a256 256 0 0 0 8.5 3.8c29.5 14.3 54.5 18.8 54.5 18.8 53 9 50-17 50-17zm-67-19.7c-3 0-5.4-2.4-5.4-5.4s2.4-5.4 5.4-5.4 5.4 2.4 5.4 5.4-2.4 5.4-5.4 5.4z" fill="url(#B)"/><linearGradient id="C" x1="83.2" x2="137.4" y1="62.3" y2="62.3" gradientUnits="userSpaceOnUse"><stop offset="0" stop-color="#e01d84"/><stop offset=".2" stop-color="#da1e85"/><stop offset=".7" stop-color="#c72085"/><stop offset="1" stop-color="#b52284"/></linearGradient><path d="M137.4 58.2l-34-10.6c-.2 0-1.2-.5-3 0 0 0-20 5-16.6 16 0 0 2 7 7.8 13.6l37.5-1.8 8.4-17.3z" fill="url(#C)"/></svg>