<svg xmlns="http://www.w3.org/2000/svg" width="2500" height="2500" viewBox="0 0 256 256" preserveAspectRatio="xMidYMid"><path d="M0 0h256v256H0V0z" fill="#34bdb2"/><path d="M168.5 87C155 79.2 143 73 127.3 73.3c-9 .2-16.7 5-18.3 14-1.5 8.3 6 13 13.6 15.8l36.4 15c22.8 9.5 34.4 25 33 44.6-1.8 25-17 43-40.8 49-31.4 7.8-61.8-4-87.5-20.5 6.5-10 14-16.6 20.5-26.5 15 6.3 26.5 15 42 16.2 11 1 23.4.4 25.8-12.5 2.2-11.6-8-17.8-17.7-21.3l-35-14c-21.3-8.7-30-25.7-28.5-45.7a49 49 0 0 1 33.6-42.8c36.7-11.3 57 .3 83.5 17.4L168.5 87" fill="#fff"/></svg>